<svg width="252" height="252" viewBox="0 0 252 252" fill="none" xmlns="http://www.w3.org/2000/svg">
<g filter="url(#filter0_d)">
<rect x="16" y="12" width="220" height="220" rx="8" fill="white"/>
</g>
<rect x="72" y="124" width="80" height="12" fill="#0B5DE7"/>
<rect x="72" y="159" width="120" height="12" fill="#ACACAC"/>
<rect x="72" y="194" width="100" height="12" fill="#ACACAC"/>
<rect x="101" y="33" width="114" height="42" rx="21" stroke="#E5E5E5" stroke-width="2"/>
<rect x="94" y="32" width="41" height="44" fill="white"/>
<rect x="36" y="32" width="104" height="44" rx="22" fill="#0B5DE7"/>
<path d="M58.4 47.8V49.72H61.36V59H63.52V49.72H66.48V47.8H58.4ZM72.2381 51.144C72.0141 51.112 71.8381 51.08 71.5341 51.08C70.5901 51.08 69.7421 51.448 69.2781 52.024V51.24H67.2781V59H69.3581V54.12C69.6141 53.656 70.3341 53 71.2461 53C71.5501 53 71.8541 53.032 71.9981 53.08L72.2381 51.144ZM79.1206 51.24V56.28C78.8326 56.648 78.1926 57.24 77.3126 57.24C76.9126 57.24 76.4646 57.112 76.1446 56.76C75.9046 56.488 75.7606 56.136 75.7606 55.432V51.24H73.6806V55.352C73.6806 56.504 73.9686 57.304 74.4646 57.912C75.0726 58.664 76.0326 59.16 77.1046 59.16C77.8566 59.16 78.5926 58.92 79.2006 58.376V59H81.2006V51.24H79.1206ZM82.8383 58.12C83.7503 58.792 84.8863 59.16 85.9583 59.16C87.5903 59.16 89.0463 58.248 89.0463 56.76C89.0463 54.072 85.2863 54.472 85.2863 53.464C85.2863 53.064 85.7663 52.84 86.3423 52.84C86.9023 52.84 87.4303 53.08 87.8303 53.368L88.8063 51.864C88.2943 51.464 87.1903 51.08 86.1823 51.08C84.6463 51.08 83.2063 52.008 83.2063 53.496C83.2063 55.992 86.9663 55.576 86.9663 56.744C86.9663 57.128 86.5343 57.4 85.9743 57.4C85.1903 57.4 84.3743 57.112 83.8463 56.632L82.8383 58.12ZM96.1731 57.24C96.0291 57.272 95.6291 57.32 95.3251 57.32C94.8131 57.32 94.4771 57.176 94.2691 56.936C94.0931 56.728 94.0131 56.44 94.0131 55.96V53H96.5731V51.24H94.0131V49.08H91.9331V51.24H89.7731V53H91.9331V55.72C91.9331 56.824 92.1091 57.512 92.5091 58.04C93.0371 58.744 93.9491 59.16 95.1971 59.16C95.5971 59.16 96.2211 59.096 96.4931 59L96.1731 57.24ZM103.765 56.584C103.397 56.984 102.693 57.48 101.813 57.48C100.709 57.48 99.8286 56.728 99.7166 55.64H105.093C105.125 55.464 105.141 55.256 105.141 55.048C105.141 52.888 103.621 51.08 101.477 51.08C99.1726 51.08 97.7006 52.968 97.7006 55.128C97.7006 57.56 99.4446 59.16 101.765 59.16C102.965 59.16 104.197 58.664 104.949 57.768L103.765 56.584ZM99.8126 54.12C99.9086 53.416 100.613 52.76 101.477 52.76C102.325 52.76 102.949 53.432 103.013 54.12H99.8126ZM112.419 56.28C112.019 56.856 111.331 57.24 110.547 57.24C109.379 57.24 108.499 56.344 108.499 55.128C108.499 54.008 109.283 53 110.499 53C111.299 53 111.987 53.384 112.419 53.96V56.28ZM114.499 59V47.64H112.419V51.8C111.811 51.32 111.075 51.08 110.227 51.08C108.115 51.08 106.419 52.84 106.419 55.128C106.419 56.184 106.803 57.144 107.411 57.848C108.099 58.648 109.187 59.16 110.339 59.16C111.123 59.16 111.859 58.92 112.499 58.376V59H114.499Z" fill="white"/>
<path d="M151.64 53.4C151.64 51.288 153.208 49.56 155.32 49.56C157.432 49.56 159 51.288 159 53.4C159 55.512 157.432 57.24 155.32 57.24C153.208 57.24 151.64 55.512 151.64 53.4ZM149.48 53.4C149.48 56.584 151.864 59.16 155.32 59.16C158.776 59.16 161.16 56.584 161.16 53.4C161.16 50.216 158.776 47.64 155.32 47.64C151.864 47.64 149.48 50.216 149.48 53.4ZM168.673 57.24C168.529 57.272 168.129 57.32 167.825 57.32C167.313 57.32 166.977 57.176 166.769 56.936C166.593 56.728 166.513 56.44 166.513 55.96V53H169.073V51.24H166.513V49.08H164.433V51.24H162.273V53H164.433V55.72C164.433 56.824 164.609 57.512 165.009 58.04C165.537 58.744 166.449 59.16 167.697 59.16C168.097 59.16 168.721 59.096 168.993 59L168.673 57.24ZM172.843 53.96C173.131 53.56 173.851 53 174.731 53C175.211 53 175.627 53.16 175.899 53.432C176.187 53.72 176.363 54.12 176.363 54.888V59H178.443V55.048C178.443 53.72 178.155 52.936 177.642 52.328C177.003 51.56 176.027 51.08 174.955 51.08C174.155 51.08 173.419 51.352 172.843 51.8V47.64H170.763V59H172.843V53.96ZM186.108 56.584C185.74 56.984 185.036 57.48 184.156 57.48C183.052 57.48 182.172 56.728 182.06 55.64H187.436C187.468 55.464 187.484 55.256 187.484 55.048C187.484 52.888 185.964 51.08 183.82 51.08C181.516 51.08 180.044 52.968 180.044 55.128C180.044 57.56 181.788 59.16 184.108 59.16C185.308 59.16 186.54 58.664 187.292 57.768L186.108 56.584ZM182.156 54.12C182.252 53.416 182.956 52.76 183.82 52.76C184.668 52.76 185.292 53.432 185.356 54.12H182.156ZM194.207 51.144C193.983 51.112 193.807 51.08 193.503 51.08C192.559 51.08 191.711 51.448 191.247 52.024V51.24H189.247V59H191.327V54.12C191.583 53.656 192.303 53 193.215 53C193.519 53 193.823 53.032 193.967 53.08L194.207 51.144Z" fill="#ACACAC"/>
<circle cx="48" cy="200" r="12" fill="#E5E5E5"/>
<circle cx="48" cy="165" r="12" fill="#E5E5E5"/>
<circle cx="48" cy="130" r="12" fill="#E5E5E5"/>
<rect x="16" y="96" width="220" height="2" fill="#F8F8F8"/>
<defs>
<filter id="filter0_d" x="0" y="0" width="252" height="252" filterUnits="userSpaceOnUse" color-interpolation-filters="sRGB">
<feFlood flood-opacity="0" result="BackgroundImageFix"/>
<feColorMatrix in="SourceAlpha" type="matrix" values="0 0 0 0 0 0 0 0 0 0 0 0 0 0 0 0 0 0 127 0"/>
<feOffset dy="4"/>
<feGaussianBlur stdDeviation="8"/>
<feColorMatrix type="matrix" values="0 0 0 0 0 0 0 0 0 0 0 0 0 0 0 0 0 0 0.12 0"/>
<feBlend mode="normal" in2="BackgroundImageFix" result="effect1_dropShadow"/>
<feBlend mode="normal" in="SourceGraphic" in2="effect1_dropShadow" result="shape"/>
</filter>
</defs>
</svg>
