<svg width="252" height="252" viewBox="0 0 252 252" fill="none" xmlns="http://www.w3.org/2000/svg">
<g filter="url(#filter0_d)">
<rect x="16" y="12" width="220" height="220" rx="8" fill="white"/>
</g>
<rect x="36" y="168" width="180" height="44" rx="4" fill="#0B5DE7"/>
<path d="M69.04 195H71.2V183.8H69.04V188.04H63.44V183.8H61.28V195H63.44V189.96H69.04V195ZM79.0444 192.28C78.6444 192.856 77.9564 193.24 77.1724 193.24C76.0044 193.24 75.1244 192.344 75.1244 191.128C75.1244 190.008 75.9084 189 77.1244 189C77.9244 189 78.6124 189.384 79.0444 189.96V192.28ZM81.1244 187.24H79.1244V187.864C78.5164 187.368 77.7324 187.08 76.8524 187.08C74.7404 187.08 73.0444 188.84 73.0444 191.128C73.0444 192.184 73.4284 193.144 74.0364 193.848C74.7244 194.648 75.8124 195.16 76.9644 195.16C77.7484 195.16 78.4844 194.92 79.1244 194.376V195H81.1244V187.24ZM85.6081 195V189.96C85.8961 189.56 86.6161 189 87.4961 189C87.9761 189 88.3921 189.16 88.6641 189.432C88.9521 189.72 89.1281 190.12 89.1281 190.888V195H91.2081V191.048C91.2081 189.72 90.9201 188.936 90.4081 188.328C89.7681 187.56 88.7921 187.08 87.7201 187.08C86.8561 187.08 86.1201 187.384 85.5281 187.864V187.24H83.5281V195H85.6081ZM98.81 192.28C98.41 192.856 97.722 193.24 96.938 193.24C95.77 193.24 94.89 192.344 94.89 191.128C94.89 190.008 95.674 189 96.89 189C97.69 189 98.378 189.384 98.81 189.96V192.28ZM100.89 195V183.64H98.81V187.8C98.202 187.32 97.466 187.08 96.618 187.08C94.506 187.08 92.81 188.84 92.81 191.128C92.81 192.184 93.194 193.144 93.802 193.848C94.49 194.648 95.578 195.16 96.73 195.16C97.514 195.16 98.25 194.92 98.89 194.376V195H100.89ZM102.526 194.12C103.438 194.792 104.574 195.16 105.646 195.16C107.278 195.16 108.734 194.248 108.734 192.76C108.734 190.072 104.974 190.472 104.974 189.464C104.974 189.064 105.454 188.84 106.03 188.84C106.59 188.84 107.118 189.08 107.518 189.368L108.494 187.864C107.982 187.464 106.878 187.08 105.87 187.08C104.334 187.08 102.894 188.008 102.894 189.496C102.894 191.992 106.654 191.576 106.654 192.744C106.654 193.128 106.222 193.4 105.662 193.4C104.878 193.4 104.062 193.112 103.534 192.632L102.526 194.12ZM112.733 189.96C113.021 189.56 113.741 189 114.621 189C115.101 189 115.517 189.16 115.789 189.432C116.077 189.72 116.253 190.12 116.253 190.888V195H118.333V191.048C118.333 189.72 118.045 188.936 117.533 188.328C116.893 187.56 115.917 187.08 114.845 187.08C114.045 187.08 113.309 187.352 112.733 187.8V183.64H110.653V195H112.733V189.96ZM125.935 192.28C125.535 192.856 124.847 193.24 124.063 193.24C122.895 193.24 122.015 192.344 122.015 191.128C122.015 190.008 122.799 189 124.015 189C124.815 189 125.503 189.384 125.935 189.96V192.28ZM128.015 187.24H126.015V187.864C125.407 187.368 124.623 187.08 123.743 187.08C121.631 187.08 119.935 188.84 119.935 191.128C119.935 192.184 120.319 193.144 120.927 193.848C121.615 194.648 122.703 195.16 123.855 195.16C124.639 195.16 125.375 194.92 126.015 194.376V195H128.015V187.24ZM138.099 187.24H135.171L132.499 189.752V183.64H130.419V195H132.499V191.64L135.779 195H138.579L134.307 190.728L138.099 187.24ZM144.952 192.584C144.584 192.984 143.88 193.48 143 193.48C141.896 193.48 141.016 192.728 140.904 191.64H146.28C146.312 191.464 146.328 191.256 146.328 191.048C146.328 188.888 144.808 187.08 142.664 187.08C140.36 187.08 138.888 188.968 138.888 191.128C138.888 193.56 140.632 195.16 142.952 195.16C144.152 195.16 145.384 194.664 146.136 193.768L144.952 192.584ZM141 190.12C141.096 189.416 141.8 188.76 142.664 188.76C143.512 188.76 144.136 189.432 144.2 190.12H141Z" fill="white"/>
<circle cx="127" cy="62" r="30" fill="#E5E5E5"/>
<path fill-rule="evenodd" clip-rule="evenodd" d="M133 54.7778C133 57.9688 130.413 60.5555 127.222 60.5555C124.031 60.5555 121.444 57.9688 121.444 54.7778C121.444 51.5868 124.031 49 127.222 49C130.413 49 133 51.5868 133 54.7778ZM133.684 62.1159C135.717 60.3242 137 57.7007 137 54.7778C137 49.3777 132.622 45 127.222 45C121.822 45 117.444 49.3777 117.444 54.7778C117.444 57.7008 118.727 60.3242 120.76 62.116C115.016 64.6131 111 70.3375 111 77H115C115 70.2498 120.472 64.7778 127.222 64.7778C133.972 64.7778 139.444 70.2498 139.444 77H143.444C143.444 70.3375 139.428 64.613 133.684 62.1159Z" fill="#ACACAC"/>
<rect x="170" y="170" width="2" height="40" fill="white" fill-opacity="0.4"/>
<path d="M185 186L193 194L201 186" stroke="black" stroke-width="2"/>
<rect x="66" y="102" width="120" height="16" fill="#0B5DE7"/>
<rect x="46" y="122" width="160" height="12" fill="#ACACAC"/>
<defs>
<filter id="filter0_d" x="0" y="0" width="252" height="252" filterUnits="userSpaceOnUse" color-interpolation-filters="sRGB">
<feFlood flood-opacity="0" result="BackgroundImageFix"/>
<feColorMatrix in="SourceAlpha" type="matrix" values="0 0 0 0 0 0 0 0 0 0 0 0 0 0 0 0 0 0 127 0"/>
<feOffset dy="4"/>
<feGaussianBlur stdDeviation="8"/>
<feColorMatrix type="matrix" values="0 0 0 0 0 0 0 0 0 0 0 0 0 0 0 0 0 0 0.12 0"/>
<feBlend mode="normal" in2="BackgroundImageFix" result="effect1_dropShadow"/>
<feBlend mode="normal" in="SourceGraphic" in2="effect1_dropShadow" result="shape"/>
</filter>
</defs>
</svg>
