<svg width="164" height="41" viewBox="0 0 164 41" fill="none" xmlns="http://www.w3.org/2000/svg">
<path d="M65.3 1.8H61.88V27H66.74V12.96L72.788 22.86H76.172L82.22 12.96V27H87.08V1.8H83.66L74.48 16.884L65.3 1.8ZM104.733 20.88C103.833 22.176 102.285 23.04 100.521 23.04C97.8927 23.04 95.9127 21.024 95.9127 18.288C95.9127 15.768 97.6767 13.5 100.413 13.5C102.213 13.5 103.761 14.364 104.733 15.66V20.88ZM109.413 9.54H104.913V10.944C103.545 9.828 101.781 9.18 99.8007 9.18C95.0487 9.18 91.2327 13.14 91.2327 18.288C91.2327 20.664 92.0967 22.824 93.4647 24.408C95.0127 26.208 97.4607 27.36 100.053 27.36C101.817 27.36 103.473 26.82 104.913 25.596V27H109.413V9.54ZM119.501 9.54H114.821V27H119.501V9.54ZM114.101 3.348C114.101 5.04 115.469 6.336 117.161 6.336C118.853 6.336 120.221 5.04 120.221 3.348C120.221 1.656 118.853 0.36 117.161 0.36C115.469 0.36 114.101 1.656 114.101 3.348ZM129.591 1.44H124.911V27H129.591V1.44ZM139.681 9.54H135.001V27H139.681V9.54ZM134.281 3.348C134.281 5.04 135.649 6.336 137.341 6.336C139.033 6.336 140.401 5.04 140.401 3.348C140.401 1.656 139.033 0.36 137.341 0.36C135.649 0.36 134.281 1.656 134.281 3.348ZM143.651 18.288C143.651 23.328 147.647 27.36 152.939 27.36C158.231 27.36 162.227 23.328 162.227 18.288C162.227 13.248 158.231 9.18 152.939 9.18C147.647 9.18 143.651 13.248 143.651 18.288ZM148.331 18.288C148.331 15.66 150.203 13.5 152.939 13.5C155.675 13.5 157.547 15.66 157.547 18.288C157.547 20.916 155.675 23.04 152.939 23.04C150.203 23.04 148.331 20.916 148.331 18.288Z" fill="white"/>
<rect x="3" y="3" width="34" height="23" stroke="#0B5DE7" strokeWidth="2"/>
<path d="M2 27L38 2M2 2L20 14.5" stroke="#0B5DE7" strokeWidth="2"/>
<circle cx="3" cy="3" r="3" fill="#0B5DE7"/>
<circle cx="37" cy="3" r="3" fill="#0B5DE7"/>
<circle cx="20" cy="14" r="3" fill="#0B5DE7"/>
<circle cx="3" cy="26" r="3" fill="#0B5DE7"/>
<circle cx="37" cy="26" r="3" fill="#0B5DE7"/>
</svg>
