<svg xmlns="http://www.w3.org/2000/svg" xmlns:xlink="http://www.w3.org/1999/xlink" version="1.1" width="256" height="256" viewBox="0 0 256 256" xml:space="preserve">
<desc>Created with Fabric.js 1.7.22</desc>
<defs>
</defs>
<g transform="translate(128 128) scale(0.72 0.72)" style="">
	<g style="stroke: none; stroke-width: 0; stroke-dasharray: none; stroke-linecap: butt; stroke-linejoin: miter; stroke-miterlimit: 10; fill: none; fill-rule: nonzero; opacity: 1;" transform="translate(-175.05 -175.05000000000004) scale(3.89 3.89)" >
	<path d="M 63.508 74.301 c -1.438 0 -2.875 -0.37 -4.157 -1.109 L 41.172 62.695 c -2.564 -1.48 -4.157 -4.239 -4.157 -7.2 V 34.504 c 0 -2.96 1.593 -5.72 4.157 -7.2 l 18.178 -10.495 c 2.564 -1.48 5.75 -1.48 8.314 0 l 18.178 10.495 c 2.564 1.48 4.157 4.239 4.157 7.2 v 20.991 c 0 2.961 -1.593 5.72 -4.157 7.2 L 67.665 73.191 C 66.383 73.931 64.945 74.301 63.508 74.301 z M 63.508 17.698 c -1.092 0 -2.184 0.281 -3.157 0.843 L 42.172 29.037 c -1.947 1.124 -3.157 3.219 -3.157 5.468 v 20.991 c 0 2.248 1.21 4.344 3.157 5.468 l 18.178 10.496 c 1.947 1.123 4.367 1.123 6.314 0 l 18.178 -10.496 C 86.79 59.839 88 57.744 88 55.495 V 34.504 c 0 -2.249 -1.21 -4.344 -3.157 -5.468 L 66.665 18.542 C 65.691 17.979 64.6 17.698 63.508 17.698 z" style="stroke: none; stroke-width: 1; stroke-dasharray: none; stroke-linecap: butt; stroke-linejoin: miter; stroke-miterlimit: 10; fill: rgb(0,0,0); fill-rule: nonzero; opacity: 1;" transform=" matrix(1 0 0 1 0 0) " stroke-linecap="round" />
	<path d="M 54.729 54.087 c -0.34 0 -0.664 -0.174 -0.85 -0.473 L 45.691 40.42 v 12.667 c 0 0.553 -0.448 1 -1 1 s -1 -0.447 -1 -1 V 36.913 c 0 -0.447 0.296 -0.839 0.726 -0.962 c 0.429 -0.122 0.888 0.055 1.124 0.435 l 8.189 13.193 V 36.913 c 0 -0.552 0.447 -1 1 -1 s 1 0.448 1 1 v 16.174 c 0 0.446 -0.296 0.839 -0.726 0.962 C 54.913 54.074 54.82 54.087 54.729 54.087 z" style="stroke: none; stroke-width: 1; stroke-dasharray: none; stroke-linecap: butt; stroke-linejoin: miter; stroke-miterlimit: 10; fill: rgb(0,0,0); fill-rule: nonzero; opacity: 1;" transform=" matrix(1 0 0 1 0 0) " stroke-linecap="round" />
	<path d="M 61.002 54.087 c -0.553 0 -1 -0.447 -1 -1 V 36.913 c 0 -0.552 0.447 -1 1 -1 h 7.17 c 0.553 0 1 0.448 1 1 s -0.447 1 -1 1 h -6.17 v 15.174 C 62.002 53.64 61.555 54.087 61.002 54.087 z" style="stroke: none; stroke-width: 1; stroke-dasharray: none; stroke-linecap: butt; stroke-linejoin: miter; stroke-miterlimit: 10; fill: rgb(0,0,0); fill-rule: nonzero; opacity: 1;" transform=" matrix(1 0 0 1 0 0) " stroke-linecap="round" />
	<path d="M 66.702 46 h -5.7 c -0.553 0 -1 -0.448 -1 -1 s 0.447 -1 1 -1 h 5.7 c 0.553 0 1 0.448 1 1 S 67.255 46 66.702 46 z" style="stroke: none; stroke-width: 1; stroke-dasharray: none; stroke-linecap: butt; stroke-linejoin: miter; stroke-miterlimit: 10; fill: rgb(0,0,0); fill-rule: nonzero; opacity: 1;" transform=" matrix(1 0 0 1 0 0) " stroke-linecap="round" />
	<path d="M 82.324 37.913 h -9.191 c -0.553 0 -1 -0.448 -1 -1 s 0.447 -1 1 -1 h 9.191 c 0.553 0 1 0.448 1 1 S 82.877 37.913 82.324 37.913 z" style="stroke: none; stroke-width: 1; stroke-dasharray: none; stroke-linecap: butt; stroke-linejoin: miter; stroke-miterlimit: 10; fill: rgb(0,0,0); fill-rule: nonzero; opacity: 1;" transform=" matrix(1 0 0 1 0 0) " stroke-linecap="round" />
	<path d="M 77.729 54.087 c -0.553 0 -1 -0.447 -1 -1 V 36.913 c 0 -0.552 0.447 -1 1 -1 s 1 0.448 1 1 v 16.174 C 78.729 53.64 78.281 54.087 77.729 54.087 z" style="stroke: none; stroke-width: 1; stroke-dasharray: none; stroke-linecap: butt; stroke-linejoin: miter; stroke-miterlimit: 10; fill: rgb(0,0,0); fill-rule: nonzero; opacity: 1;" transform=" matrix(1 0 0 1 0 0) " stroke-linecap="round" />
	<path d="M 29.608 46 H 1 c -0.552 0 -1 -0.448 -1 -1 s 0.448 -1 1 -1 h 28.608 c 0.552 0 1 0.448 1 1 S 30.161 46 29.608 46 z" style="stroke: none; stroke-width: 1; stroke-dasharray: none; stroke-linecap: butt; stroke-linejoin: miter; stroke-miterlimit: 10; fill: rgb(0,0,0); fill-rule: nonzero; opacity: 1;" transform=" matrix(1 0 0 1 0 0) " stroke-linecap="round" />
	<path d="M 29.608 35.854 H 6.073 c -0.552 0 -1 -0.448 -1 -1 s 0.448 -1 1 -1 h 23.535 c 0.552 0 1 0.448 1 1 S 30.161 35.854 29.608 35.854 z" style="stroke: none; stroke-width: 1; stroke-dasharray: none; stroke-linecap: butt; stroke-linejoin: miter; stroke-miterlimit: 10; fill: rgb(0,0,0); fill-rule: nonzero; opacity: 1;" transform=" matrix(1 0 0 1 0 0) " stroke-linecap="round" />
	<path d="M 29.608 56.146 H 6.073 c -0.552 0 -1 -0.447 -1 -1 s 0.448 -1 1 -1 h 23.535 c 0.552 0 1 0.447 1 1 S 30.161 56.146 29.608 56.146 z" style="stroke: none; stroke-width: 1; stroke-dasharray: none; stroke-linecap: butt; stroke-linejoin: miter; stroke-miterlimit: 10; fill: rgb(0,0,0); fill-rule: nonzero; opacity: 1;" transform=" matrix(1 0 0 1 0 0) " stroke-linecap="round" />
	<path d="M 34.682 25.708 H 11.146 c -0.552 0 -1 -0.448 -1 -1 s 0.448 -1 1 -1 h 23.536 c 0.552 0 1 0.448 1 1 S 35.234 25.708 34.682 25.708 z" style="stroke: none; stroke-width: 1; stroke-dasharray: none; stroke-linecap: butt; stroke-linejoin: miter; stroke-miterlimit: 10; fill: rgb(0,0,0); fill-rule: nonzero; opacity: 1;" transform=" matrix(1 0 0 1 0 0) " stroke-linecap="round" />
	<path d="M 34.682 66.292 H 11.146 c -0.552 0 -1 -0.447 -1 -1 s 0.448 -1 1 -1 h 23.536 c 0.552 0 1 0.447 1 1 S 35.234 66.292 34.682 66.292 z" style="stroke: none; stroke-width: 1; stroke-dasharray: none; stroke-linecap: butt; stroke-linejoin: miter; stroke-miterlimit: 10; fill: rgb(0,0,0); fill-rule: nonzero; opacity: 1;" transform=" matrix(1 0 0 1 0 0) " stroke-linecap="round" />
</g>
</g>
</svg>