<?xml version="1.0" standalone="no"?>
<!DOCTYPE svg PUBLIC "-//W3C//DTD SVG 1.1//EN" "http://www.w3.org/Graphics/SVG/1.1/DTD/svg11.dtd" >
<svg>
<metadata>
Created by FontForge 20090622 at Wed Oct 17 10:52:02 2018
 By deploy user
Generated in 2010 by FontLab Studio. Copyright info pending.
</metadata>
<defs>
<font id="Brown-Thin" horiz-adv-x="570" >
  <font-face 
    font-family="Brown"
    font-weight="250"
    font-stretch="normal"
    units-per-em="1000"
    panose-1="0 0 0 0 0 0 0 0 0 0"
    ascent="800"
    descent="-200"
    x-height="440"
    cap-height="700"
    bbox="-96 -250 1310 1070"
    underline-thickness="20"
    underline-position="-80"
    unicode-range="U+0020-U+FB04"
  />
<missing-glyph horiz-adv-x="500" 
d="M75 0v700h350v-700h-350zM95 18h310v664h-310v-664z" />
    <glyph glyph-name="uniFB00" unicode="ff" horiz-adv-x="685" 
d="M655 715l-4 -17q-20 4 -34 4q-61 0 -96 -39q-20 -22 -25.5 -54.5t-5.5 -90.5v-78h170v-18h-170v-422h-20v422h-310v-422h-20v422h-130v18h130v79q0 63 7 98.5t30 59.5q39 43 108 43q21 0 40 -5l-4 -17q-20 4 -34 4q-61 0 -96 -39q-20 -22 -25.5 -54.5t-5.5 -90.5v-78h310
v79q0 63 7 98.5t30 59.5q39 43 108 43q21 0 40 -5z" />
    <glyph glyph-name="fi" unicode="fi" horiz-adv-x="560" 
d="M325 715l-4 -17q-20 4 -34 4q-61 0 -96 -39q-20 -22 -25.5 -54.5t-5.5 -90.5v-78h305v-440h-20v422h-285v-422h-20v422h-130v18h130v79q0 63 7 98.5t30 59.5q39 43 108 43q21 0 40 -5zM425 600q0 13 8.5 21.5t21.5 8.5t21.5 -8.5t8.5 -21.5t-8.5 -21.5t-21.5 -8.5
t-21.5 8.5t-8.5 21.5z" />
    <glyph glyph-name="fl" unicode="fl" horiz-adv-x="560" 
d="M445 0v422h-285v-422h-20v422h-130v18h130v79q0 63 7 98.5t30 59.5q39 43 108 43q21 0 40 -5l-4 -17q-20 4 -34 4q-61 0 -96 -39q-20 -22 -25.5 -54.5t-5.5 -90.5v-78h285v270h20v-710h-20z" />
    <glyph glyph-name="uniFB03" unicode="ffi" horiz-adv-x="890" 
d="M655 715l-4 -17q-20 4 -34 4q-61 0 -96 -39q-20 -22 -25.5 -54.5t-5.5 -90.5v-78h305v-440h-20v422h-285v-422h-20v422h-310v-422h-20v422h-130v18h130v79q0 63 7 98.5t30 59.5q39 43 108 43q21 0 40 -5l-4 -17q-20 4 -34 4q-61 0 -96 -39q-20 -22 -25.5 -54.5
t-5.5 -90.5v-78h310v79q0 63 7 98.5t30 59.5q39 43 108 43q21 0 40 -5zM755 600q0 13 8.5 21.5t21.5 8.5t21.5 -8.5t8.5 -21.5t-8.5 -21.5t-21.5 -8.5t-21.5 8.5t-8.5 21.5z" />
    <glyph glyph-name="uniFB04" unicode="ffl" horiz-adv-x="890" 
d="M775 0v422h-285v-422h-20v422h-310v-422h-20v422h-130v18h130v79q0 63 7 98.5t30 59.5q39 43 108 43q21 0 40 -5l-4 -17q-20 4 -34 4q-61 0 -96 -39q-20 -22 -25.5 -54.5t-5.5 -90.5v-78h310v79q0 63 7 98.5t30 59.5q39 43 108 43q21 0 40 -5l-4 -17q-20 4 -34 4
q-61 0 -96 -39q-20 -22 -25.5 -54.5t-5.5 -90.5v-78h285v270h20v-710h-20z" />
    <glyph glyph-name=".notdef" horiz-adv-x="500" 
d="M75 0v700h350v-700h-350zM95 18h310v664h-310v-664z" />
    <glyph glyph-name=".null" horiz-adv-x="0" 
 />
    <glyph glyph-name="nonmarkingreturn" horiz-adv-x="333" 
 />
    <glyph glyph-name="space" unicode=" " horiz-adv-x="270" 
 />
    <glyph glyph-name="exclam" unicode="!" horiz-adv-x="210" 
d="M95 200v500h20v-500h-20zM70 25q0 14 10.5 24.5t24.5 10.5t24.5 -10.5t10.5 -24.5t-10.5 -24.5t-24.5 -10.5t-24.5 10.5t-10.5 24.5z" />
    <glyph glyph-name="quotedbl" unicode="&#x22;" horiz-adv-x="330" 
d="M70 460v240h20v-240h-20zM240 460v240h20v-240h-20z" />
    <glyph glyph-name="numbersign" unicode="#" horiz-adv-x="595" 
d="M153 240h-110v18h115l50 184h-110v18h115l65 240h19l-65 -240h191l65 240h19l-65 -240h110v-18h-115l-50 -184h110v-18h-115l-64 -240h-19l64 240h-191l-64 -240h-19zM227 442l-50 -184h191l50 184h-191z" />
    <glyph glyph-name="dollar" unicode="$" horiz-adv-x="525" 
d="M45 110l16 12q73 -114 207 -114q73 0 125 44.5t52 117.5q0 105 -114 158q-20 9 -55 22.5l-59 23t-52.5 26t-46 33.5t-29.5 44t-12 60q0 81 55 124.5t123 47.5v106h20v-105q94 -4 160 -70l-13 -14q-63 66 -157 66q-62 0 -115 -40.5t-53 -114.5q0 -35 13.5 -62t42 -46
t53 -30.5t67 -27.5t63.5 -25q60 -27 94.5 -68.5t34.5 -108.5q0 -77 -54.5 -126.5t-135.5 -52.5v-105h-20v105q-131 4 -210 120z" />
    <glyph glyph-name="percent" unicode="%" horiz-adv-x="810" 
d="M360 545q0 62 -39.5 104.5t-100.5 42.5t-100.5 -42.5t-39.5 -104.5t39.5 -104.5t100.5 -42.5t100.5 42.5t39.5 104.5zM211 0h-21l409 700h21zM60 545q0 69 45.5 117t114.5 48t114.5 -48t45.5 -117t-45.5 -117t-114.5 -48t-114.5 48t-45.5 117zM730 155q0 62 -39.5 104.5
t-100.5 42.5t-100.5 -42.5t-39.5 -104.5t39.5 -104.5t100.5 -42.5t100.5 42.5t39.5 104.5zM430 155q0 69 45.5 117t114.5 48t114.5 -48t45.5 -117t-45.5 -117t-114.5 -48t-114.5 48t-45.5 117z" />
    <glyph glyph-name="ampersand" unicode="&#x26;" horiz-adv-x="616" 
d="M521 424l19 6q20 -60 20 -139q0 -97 -46 -171l127 -120h-27l-111 104q-85 -114 -240 -114q-107 0 -177.5 57t-70.5 148q0 73 44 121t123 91q-55 54 -79 90t-24 79q0 56 41.5 95t100.5 39q55 0 96.5 -38.5t41.5 -95.5q0 -100 -143 -174l284 -268q40 67 40 157
q0 70 -19 133zM201 416q138 72 138 160q0 47 -34.5 81.5t-83.5 34.5q-48 0 -85 -33t-37 -83q0 -29 16.5 -59.5t33.5 -48.5t52 -52zM263 8q68 0 128 28t98 81l-293 277q-33 -18 -56.5 -34t-50 -40.5t-40.5 -56t-14 -68.5q0 -77 61 -132t167 -55z" />
    <glyph glyph-name="quotesingle" unicode="'" horiz-adv-x="160" 
d="M70 460v240h20v-240h-20z" />
    <glyph glyph-name="parenleft" unicode="(" horiz-adv-x="405" 
d="M150 250q0 252 153 460l17 -11q-150 -202 -150 -449t150 -449l-17 -11q-153 208 -153 460z" />
    <glyph glyph-name="parenright" unicode=")" horiz-adv-x="405" 
d="M255 250q0 -252 -153 -460l-17 11q150 202 150 449t-150 449l17 11q153 -208 153 -460z" />
    <glyph glyph-name="asterisk" unicode="*" horiz-adv-x="484" 
d="M40 548l5 17l187 -61v196h18v-196l187 60l6 -17l-186 -61l114 -159l-14 -11l-116 158l-116 -157l-15 10l115 159z" />
    <glyph glyph-name="plus" unicode="+" horiz-adv-x="520" 
d="M60 269h191v191h18v-191h191v-18h-191v-191h-18v191h-191v18z" />
    <glyph glyph-name="comma" unicode="," horiz-adv-x="270" 
d="M81 -140l78 220h21l-78 -220h-21z" />
    <glyph glyph-name="hyphen" unicode="-" horiz-adv-x="400" 
d="M80 258h240v-18h-240v18z" />
    <glyph glyph-name="period" unicode="." horiz-adv-x="270" 
d="M115 25q0 14 10.5 24.5t24.5 10.5t24.5 -10.5t10.5 -24.5t-10.5 -24.5t-24.5 -10.5t-24.5 10.5t-10.5 24.5z" />
    <glyph glyph-name="slash" unicode="/" horiz-adv-x="355" 
d="M350 700l-325 -700h-20l325 700h20z" />
    <glyph glyph-name="zero" unicode="0" horiz-adv-x="580" 
d="M85 350q0 -74 11 -134t34.5 -107.5t64 -74t95.5 -26.5t95.5 26.5t64 74t34.5 107.5t11 134t-11 134t-34.5 107.5t-64 74t-95.5 26.5t-95.5 -26.5t-64 -74t-34.5 -107.5t-11 -134zM65 350q0 162 54 261t171 99t171 -99t54 -261t-54 -261t-171 -99t-171 99t-54 261z" />
    <glyph glyph-name="one" unicode="1" horiz-adv-x="370" 
d="M70 585v21l165 94h10v-700h-20v673z" />
    <glyph glyph-name="two" unicode="2" horiz-adv-x="515" 
d="M69 557l-18 6q15 65 67.5 106t123.5 41q82 0 137.5 -53.5t55.5 -131.5q0 -49 -23.5 -94.5t-72.5 -103.5l-263 -309h379v-18h-410v10l275 324q48 56 71.5 99.5t23.5 90.5q0 71 -50 119.5t-122 48.5q-61 0 -110.5 -38.5t-63.5 -96.5z" />
    <glyph glyph-name="three" unicode="3" horiz-adv-x="527" 
d="M35 93l17 11q28 -45 77 -70.5t109 -25.5q88 0 146 60.5t58 146.5q0 89 -58.5 148t-147.5 59q-45 0 -71 -10v10l227 260h-320v18h350v-10l-218 -252q20 2 32 2q97 0 161.5 -64t64.5 -161q0 -94 -64 -159.5t-160 -65.5q-64 0 -118.5 28t-84.5 75z" />
    <glyph glyph-name="four" unicode="4" horiz-adv-x="540" 
d="M20 210l370 490h10v-482h120v-18h-120v-200h-20v200h-360v10zM49 218h331v438z" />
    <glyph glyph-name="five" unicode="5" horiz-adv-x="545" 
d="M135 700h305v-18h-290l-42 -299q58 47 147 47q94 0 157 -64t63 -156t-64 -156t-159 -64q-66 0 -118 28.5t-79 79.5l17 10q25 -47 72.5 -73.5t107.5 -26.5q86 0 144.5 58.5t58.5 143.5q0 84 -57.5 143t-142.5 59q-103 0 -160 -66l-10 1z" />
    <glyph glyph-name="six" unicode="6" horiz-adv-x="560" 
d="M366 700l-203 -305q54 33 122 33q94 0 157 -63.5t63 -155.5t-63 -155.5t-157 -63.5q-96 0 -158 65t-62 153q0 71 64 169l212 323h25zM285 410q-87 0 -145 -55q-55 -80 -55 -146q0 -84 57.5 -142.5t142.5 -58.5t142.5 58.5t57.5 142.5t-57.5 142.5t-142.5 58.5z" />
    <glyph glyph-name="seven" unicode="7" horiz-adv-x="465" 
d="M20 682v18h420v-10l-336 -690h-20l331 682h-395z" />
    <glyph glyph-name="eight" unicode="8" horiz-adv-x="560" 
d="M280 -10q-93 0 -156.5 59t-63.5 144q0 70 44 124t115 73q-54 17 -86.5 58.5t-32.5 95.5q0 70 51.5 118t128.5 48t128.5 -48t51.5 -118q0 -54 -32.5 -95.5t-86.5 -58.5q71 -19 115 -73t44 -124q0 -85 -63.5 -144t-156.5 -59zM280 379q-85 0 -142.5 -54t-57.5 -132
t57.5 -131.5t142.5 -53.5t142.5 53.5t57.5 131.5t-57.5 132t-142.5 54zM280 397q66 0 113 43t47 104q0 62 -46 105t-114 43t-114 -43t-46 -105q0 -61 47 -104t113 -43z" />
    <glyph glyph-name="nine" unicode="9" horiz-adv-x="560" 
d="M194 0l203 305q-49 -33 -122 -33q-94 0 -157 63.5t-63 155.5t63 155.5t157 63.5q96 0 158 -65t62 -153q0 -71 -64 -169l-212 -323h-25zM275 290q87 0 145 55q55 80 55 146q0 84 -57.5 142.5t-142.5 58.5t-142.5 -58.5t-57.5 -142.5t57.5 -142.5t142.5 -58.5z" />
    <glyph glyph-name="colon" unicode=":" horiz-adv-x="270" 
d="M115 25q0 14 10.5 24.5t24.5 10.5t24.5 -10.5t10.5 -24.5t-10.5 -24.5t-24.5 -10.5t-24.5 10.5t-10.5 24.5zM115 415q0 14 10.5 24.5t24.5 10.5t24.5 -10.5t10.5 -24.5t-10.5 -24.5t-24.5 -10.5t-24.5 10.5t-10.5 24.5z" />
    <glyph glyph-name="semicolon" unicode=";" horiz-adv-x="270" 
d="M115 415q0 14 10.5 24.5t24.5 10.5t24.5 -10.5t10.5 -24.5t-10.5 -24.5t-24.5 -10.5t-24.5 10.5t-10.5 24.5zM81 -140l78 220h21l-78 -220h-21z" />
    <glyph glyph-name="less" unicode="&#x3c;" horiz-adv-x="520" 
d="M450 417l-366 -157l366 -157v-20l-400 172v10l400 172v-20z" />
    <glyph glyph-name="equal" unicode="=" horiz-adv-x="520" 
d="M60 360h400v-18h-400v18zM60 180h400v-18h-400v18z" />
    <glyph glyph-name="greater" unicode="&#x3e;" horiz-adv-x="520" 
d="M436 260l-366 157v20l400 -172v-10l-400 -172v20z" />
    <glyph glyph-name="question" unicode="?" horiz-adv-x="480" 
d="M195 25q0 14 10.5 24.5t24.5 10.5t24.5 -10.5t10.5 -24.5t-10.5 -24.5t-24.5 -10.5t-24.5 10.5t-10.5 24.5zM73 564l-19 5q11 61 62.5 101t123.5 40q82 0 136 -52.5t54 -127.5q0 -45 -22 -80.5t-53 -56.5t-62 -39t-53 -38t-22 -43q0 -33 32 -65l-15 -13q-37 37 -37 78
q0 28 22 50.5t53 40.5t62 38t53 52.5t22 75.5q0 68 -48.5 115t-121.5 47q-64 0 -110 -36t-57 -92z" />
    <glyph glyph-name="at" unicode="@" horiz-adv-x="1000" 
d="M635 163v177q-48 87 -144 87q-73 0 -122 -50t-49 -127t49.5 -127t122.5 -50q105 0 143 90zM930 291q0 -100 -45.5 -168t-127.5 -68q-90 0 -116 82q-19 -37 -58 -59.5t-91 -22.5q-82 0 -137 55.5t-55 139.5t55 139.5t136 55.5q99 0 144 -74v64h20v-243q0 -57 26 -88
t76 -31q71 0 112 61t41 157q0 165 -120 273t-283 108q-112 0 -208 -56t-152.5 -153.5t-56.5 -212.5q0 -176 123 -299t295 -123q135 0 241 82l11 -16q-109 -84 -253 -84q-181 0 -309 129t-128 311t128 311t309 129q114 0 210.5 -51.5t154.5 -143.5t58 -204z" />
    <glyph glyph-name="A" unicode="A" horiz-adv-x="620" 
d="M595 0l-103 239h-365l-102 -239h-20l300 700h10l300 -700h-20zM310 665l-175 -408h350z" />
    <glyph glyph-name="B" unicode="B" horiz-adv-x="600" 
d="M490 541q0 -49 -26.5 -88.5t-69.5 -57.5q67 -15 111.5 -69.5t44.5 -125.5q0 -94 -75 -156q-53 -44 -145 -44h-240v700h221q77 0 123 -38q56 -48 56 -121zM328 382h-218v-364h218q93 0 146 51q56 54 56 131t-56 131q-53 51 -146 51zM110 400h199q75 0 114 36q47 42 47 105
t-47 105q-39 36 -114 36h-199v-282z" />
    <glyph glyph-name="C" unicode="C" horiz-adv-x="715" 
d="M655 132l15 -12q-46 -59 -117 -94.5t-150 -35.5q-156 0 -257 102.5t-101 257.5q0 153 99.5 256.5t249.5 103.5q74 0 139.5 -28.5t111.5 -79.5l-14 -13q-95 103 -237 103t-235.5 -99.5t-93.5 -242.5q0 -146 95 -244t243 -98q76 0 141 34t111 90z" />
    <glyph glyph-name="D" unicode="D" horiz-adv-x="705" 
d="M660 350q0 -86 -37.5 -160.5t-102.5 -123.5q-90 -66 -240 -66h-190v700h190q150 0 240 -66q65 -49 102.5 -123.5t37.5 -160.5zM110 18h168q145 0 231 64q61 45 96 115.5t35 152.5t-35 152.5t-96 115.5q-86 64 -231 64h-168v-664z" />
    <glyph glyph-name="E" unicode="E" horiz-adv-x="505" 
d="M90 700h360v-18h-340v-282h270v-18h-270v-364h350v-18h-370v700z" />
    <glyph glyph-name="F" unicode="F" horiz-adv-x="485" 
d="M90 700h360v-18h-340v-282h270v-18h-270v-382h-20v700z" />
    <glyph glyph-name="G" unicode="G" horiz-adv-x="750" 
d="M660 131v251h-269v18h289v-275q-44 -60 -117 -97.5t-160 -37.5q-156 0 -257 102.5t-101 257.5q0 153 99.5 256.5t249.5 103.5q74 0 139.5 -28.5t111.5 -79.5l-14 -13q-95 103 -237 103t-235.5 -99.5t-93.5 -242.5q0 -146 95 -244t243 -98q78 0 145.5 33.5t111.5 89.5z
" />
    <glyph glyph-name="H" unicode="H" horiz-adv-x="730" 
d="M110 400h510v300h20v-700h-20v382h-510v-382h-20v700h20v-300z" />
    <glyph glyph-name="I" unicode="I" horiz-adv-x="200" 
d="M90 0v700h20v-700h-20z" />
    <glyph glyph-name="J" unicode="J" horiz-adv-x="422" 
d="M342 700v-515q0 -80 -33 -126q-51 -69 -142 -69q-54 0 -98 28.5t-64 76.5l18 8q17 -43 56.5 -69t87.5 -26q81 0 126 63q29 40 29 112v517h20z" />
    <glyph glyph-name="K" unicode="K" horiz-adv-x="590" 
d="M560 0h-30l-420 369v-369h-20v700h20v-319l398 319h31l-406 -327z" />
    <glyph glyph-name="L" unicode="L" horiz-adv-x="495" 
d="M110 700v-682h350v-18h-370v700h20z" />
    <glyph glyph-name="M" unicode="M" horiz-adv-x="820" 
d="M405 160l-295 485v-645h-20v700h10l310 -514l310 514h10v-700h-20v645l-295 -485h-10z" />
    <glyph glyph-name="N" unicode="N" horiz-adv-x="730" 
d="M90 0v700h10l520 -656v656h20v-700h-10l-520 656v-656h-20z" />
    <glyph glyph-name="O" unicode="O" horiz-adv-x="782" 
d="M65 350q0 -145 92.5 -243.5t233.5 -98.5t233.5 98.5t92.5 243.5t-92.5 243.5t-233.5 98.5t-233.5 -98.5t-92.5 -243.5zM45 350q0 153 99 256.5t247 103.5t247 -103.5t99 -256.5t-99 -256.5t-247 -103.5t-247 103.5t-99 256.5z" />
    <glyph glyph-name="P" unicode="P" horiz-adv-x="565" 
d="M110 380h229q79 0 123 41q48 46 48 110t-48 110q-44 41 -123 41h-229v-302zM341 362h-231v-362h-20v700h251q88 0 137 -47q52 -50 52 -122t-52 -122q-49 -47 -137 -47z" />
    <glyph glyph-name="Q" unicode="Q" horiz-adv-x="787" 
d="M45 350q0 153 99 256.5t247 103.5t247 -103.5t99 -256.5q0 -143 -87 -243l97 -107h-25l-84 93q-100 -103 -247 -103q-148 0 -247 103.5t-99 256.5zM434 318l14 12l189 -209q80 98 80 229q0 145 -92.5 243.5t-233.5 98.5t-233.5 -98.5t-92.5 -243.5t92.5 -243.5
t233.5 -98.5q140 0 234 99z" />
    <glyph glyph-name="R" unicode="R" horiz-adv-x="595" 
d="M267 382h-157v-382h-20v700h231q77 0 121 -36q58 -47 58 -123t-58 -123q-44 -36 -121 -36h-30l289 -382h-24zM110 400h209q72 0 112 34q49 42 49 107t-49 107q-40 34 -112 34h-209v-282z" />
    <glyph glyph-name="S" unicode="S" horiz-adv-x="525" 
d="M45 110l16 12q73 -114 207 -114q73 0 125 45t52 119q0 102 -114 156q-20 9 -55 22.5l-59 23t-52.5 26t-46 33.5t-29.5 44t-12 60q0 84 59.5 128.5t128.5 44.5q100 0 170 -70l-13 -14q-63 66 -157 66q-62 0 -115 -40.5t-53 -114.5q0 -35 13.5 -62t42 -46t53 -30.5
t67 -27.5t63.5 -25q129 -56 129 -174q0 -80 -56.5 -131t-141.5 -51q-139 0 -222 120z" />
    <glyph glyph-name="T" unicode="T" horiz-adv-x="500" 
d="M20 682v18h460v-18h-220v-682h-20v682h-220z" />
    <glyph glyph-name="U" unicode="U" horiz-adv-x="700" 
d="M350 -10q-76 0 -139 36t-98 97q-33 58 -33 147v430h20v-432q0 -82 30 -136q32 -57 90.5 -90.5t129.5 -33.5t129.5 33.5t90.5 90.5q30 54 30 136v432h20v-430q0 -89 -33 -147q-35 -61 -98 -97t-139 -36z" />
    <glyph glyph-name="V" unicode="V" horiz-adv-x="610" 
d="M35 700l270 -664l270 664h20l-285 -700h-10l-285 700h20z" />
    <glyph glyph-name="W" unicode="W" horiz-adv-x="920" 
d="M460 650l-202 -650h-10l-228 700h20l213 -653l202 653h10l202 -653l213 653h20l-228 -700h-10z" />
    <glyph glyph-name="X" unicode="X" horiz-adv-x="572" 
d="M286 393l205 307h22l-215 -321l254 -379h-22l-244 364l-244 -364h-22l254 379l-215 321h22z" />
    <glyph glyph-name="Y" unicode="Y" horiz-adv-x="530" 
d="M255 0v345l-235 355h23l222 -335l222 335h23l-235 -355v-345h-20z" />
    <glyph glyph-name="Z" unicode="Z" 
d="M40 0v10l451 672h-421v18h450v-10l-451 -672h471v-18h-500z" />
    <glyph glyph-name="bracketleft" unicode="[" horiz-adv-x="405" 
d="M150 -200v900h205v-18h-185v-864h185v-18h-205z" />
    <glyph glyph-name="backslash" unicode="\" horiz-adv-x="355" 
d="M330 0l-325 700h20l325 -700h-20z" />
    <glyph glyph-name="bracketright" unicode="]" horiz-adv-x="405" 
d="M255 700v-900h-205v18h185v864h-185v18h205z" />
    <glyph glyph-name="asciicircum" unicode="^" horiz-adv-x="460" 
d="M225 700h10l175 -350h-20l-160 320l-160 -320h-20z" />
    <glyph glyph-name="underscore" unicode="_" horiz-adv-x="430" 
d="M20 0h390v-18h-390v18z" />
    <glyph glyph-name="grave" unicode="`" horiz-adv-x="259" 
d="M70 650h22l97 -130h-22z" />
    <glyph glyph-name="a" unicode="a" horiz-adv-x="574" 
d="M459 440h20v-440h-20v82q-21 -35 -69 -63.5t-112 -28.5q-98 0 -160.5 65t-62.5 164q0 98 64.5 164.5t161.5 66.5q114 0 178 -89v79zM459 117v211q-28 48 -74 76t-102 28q-90 0 -149 -61t-59 -152t56.5 -151t146.5 -60q61 0 110 31t71 78z" />
    <glyph glyph-name="b" unicode="b" horiz-adv-x="574" 
d="M95 710h20v-349q64 89 178 89q97 0 161.5 -66.5t64.5 -164.5q0 -99 -62.5 -164t-160.5 -65q-64 0 -112 28.5t-69 63.5v-82h-20v710zM115 328v-211q22 -47 71 -78t110 -31q90 0 146.5 60t56.5 151t-59 152t-149 61q-56 0 -102 -28t-74 -76z" />
    <glyph glyph-name="c" unicode="c" horiz-adv-x="535" 
d="M469 107l16 -10q-28 -50 -79 -78.5t-116 -28.5q-101 0 -168 65.5t-67 165.5q0 95 65 162t160 67q118 0 187 -90l-16 -12q-59 84 -169 84q-86 0 -146.5 -61t-60.5 -150q0 -92 62 -152.5t153 -60.5q59 0 106 27t73 72z" />
    <glyph glyph-name="d" unicode="d" horiz-adv-x="574" 
d="M459 710h20v-710h-20v82q-21 -35 -69 -63.5t-112 -28.5q-98 0 -160.5 65t-62.5 164q0 98 64.5 164.5t161.5 66.5q114 0 178 -89v349zM459 117v211q-28 48 -74 76t-102 28q-90 0 -149 -61t-59 -152t56.5 -151t146.5 -60q61 0 110 31t71 78z" />
    <glyph glyph-name="e" unicode="e" horiz-adv-x="526" 
d="M263 432q-75 0 -125.5 -50t-60.5 -131h371q-6 77 -57 129t-128 52zM471 233h-396v-12q0 -92 54 -152.5t147 -60.5q100 0 162 72l14 -14q-67 -76 -176 -76q-102 0 -161.5 66.5t-59.5 164.5q0 97 57.5 163t150.5 66q90 0 147.5 -62.5t60.5 -154.5z" />
    <glyph glyph-name="f" unicode="f" horiz-adv-x="355" 
d="M325 715l-4 -17q-20 4 -34 4q-61 0 -96 -39q-20 -22 -25.5 -54.5t-5.5 -90.5v-78h170v-18h-170v-422h-20v422h-130v18h130v79q0 63 7 98.5t30 59.5q39 43 108 43q21 0 40 -5z" />
    <glyph glyph-name="g" unicode="g" horiz-adv-x="574" 
d="M459 440h20v-435q0 -122 -27 -167q-53 -88 -174 -88q-70 0 -122.5 29t-81.5 71l16 12q24 -39 74 -66.5t114 -27.5q111 0 157 81q24 43 24 155v78q-21 -35 -69 -63.5t-112 -28.5q-98 0 -160.5 65t-62.5 164q0 98 64.5 164.5t161.5 66.5q114 0 178 -89v79zM459 117v211
q-28 48 -74 76t-102 28q-90 0 -149 -61t-59 -152t56.5 -151t146.5 -60q61 0 110 31t71 78z" />
    <glyph glyph-name="h" unicode="h" horiz-adv-x="564" 
d="M95 710h20v-357q70 97 179 97q83 0 137 -57q48 -51 48 -143v-250h-20v250q0 84 -44 131q-48 51 -121 51q-109 0 -179 -109v-323h-20v710z" />
    <glyph glyph-name="i" unicode="i" horiz-adv-x="210" 
d="M95 0v440h20v-440h-20zM75 600q0 13 8.5 21.5t21.5 8.5t21.5 -8.5t8.5 -21.5t-8.5 -21.5t-21.5 -8.5t-21.5 8.5t-8.5 21.5z" />
    <glyph glyph-name="j" unicode="j" horiz-adv-x="255" 
d="M-20 -244l4 17q14 -5 37 -5q70 0 101 54q18 31 18 108v513h20v-512q0 -82 -20 -118q-34 -63 -117 -63q-25 0 -43 6zM120 600q0 13 8.5 21.5t21.5 8.5t21.5 -8.5t8.5 -21.5t-8.5 -21.5t-21.5 -8.5t-21.5 8.5t-8.5 21.5z" />
    <glyph glyph-name="k" unicode="k" horiz-adv-x="468" 
d="M453 0h-30l-308 230v-230h-20v710h20v-467l272 197h31l-280 -203z" />
    <glyph glyph-name="l" unicode="l" horiz-adv-x="210" 
d="M95 0v710h20v-710h-20z" />
    <glyph glyph-name="m" unicode="m" horiz-adv-x="918" 
d="M95 440h20v-86q75 96 182 96q77 0 130 -56q22 -23 34 -58q30 47 80 80.5t113 33.5q79 0 132 -56q47 -50 47 -144v-250h-20v250q0 86 -43 132q-47 50 -114 50q-62 0 -111 -34.5t-77 -85.5q6 -27 6 -62v-250h-20v250q0 86 -43 132q-47 50 -114 50q-107 0 -182 -109v-323
h-20v440z" />
    <glyph glyph-name="n" unicode="n" horiz-adv-x="564" 
d="M95 440h20v-87q70 97 179 97q83 0 137 -57q48 -51 48 -143v-250h-20v250q0 84 -44 131q-48 51 -121 51q-109 0 -179 -109v-323h-20v440z" />
    <glyph glyph-name="o" unicode="o" horiz-adv-x="558" 
d="M483 220q0 89 -58.5 150.5t-145.5 61.5t-145.5 -61.5t-58.5 -150.5t58.5 -150.5t145.5 -61.5t145.5 61.5t58.5 150.5zM55 220q0 96 64 163t160 67t160 -67t64 -163t-64 -163t-160 -67t-160 67t-64 163z" />
    <glyph glyph-name="p" unicode="p" horiz-adv-x="574" 
d="M95 440h20v-79q64 89 178 89q97 0 161.5 -66.5t64.5 -164.5q0 -99 -62.5 -164t-160.5 -65q-64 0 -112 28.5t-69 63.5v-322h-20v680zM115 328v-211q22 -47 71 -78t110 -31q90 0 146.5 60t56.5 151t-59 152t-149 61q-56 0 -102 -28t-74 -76z" />
    <glyph glyph-name="q" unicode="q" horiz-adv-x="574" 
d="M459 440h20v-680h-20v322q-21 -35 -69 -63.5t-112 -28.5q-98 0 -160.5 65t-62.5 164q0 98 64.5 164.5t161.5 66.5q114 0 178 -89v79zM459 117v211q-28 48 -74 76t-102 28q-90 0 -149 -61t-59 -152t56.5 -151t146.5 -60q61 0 110 31t71 78z" />
    <glyph glyph-name="r" unicode="r" horiz-adv-x="310" 
d="M275 449l-2 -18q-6 1 -12 1q-99 0 -146 -112v-320h-20v440h20v-80q19 41 57 65.5t88 24.5q7 0 15 -1z" />
    <glyph glyph-name="s" unicode="s" horiz-adv-x="413" 
d="M55 55l14 13q63 -60 143 -60q49 0 85 29t36 74q0 37 -27 61t-65.5 36.5l-77.5 25t-66 38t-27 64.5q0 52 38.5 83t95.5 31q73 0 131 -48l-13 -14q-49 44 -118 44q-45 0 -79.5 -25t-34.5 -71q0 -34 27 -55.5t66 -33.5t77.5 -25.5t65.5 -41t27 -69.5q0 -50 -40 -85.5
t-101 -35.5q-92 0 -157 65z" />
    <glyph glyph-name="t" unicode="t" horiz-adv-x="365" 
d="M335 18l5 -18q-27 -10 -68 -10q-81 0 -115 56q-17 28 -17 74v302h-130v18h130v130h20v-130h180v-18h-180v-304q0 -38 14 -61q28 -49 97 -49q33 0 64 10z" />
    <glyph glyph-name="u" unicode="u" horiz-adv-x="559" 
d="M464 0h-20v87q-72 -97 -182 -97q-77 0 -130 56q-47 50 -47 144v250h20v-250q0 -86 43 -132q47 -50 114 -50q109 0 182 109v323h20v-440z" />
    <glyph glyph-name="v" unicode="v" horiz-adv-x="452" 
d="M432 440l-201 -440h-10l-201 440h21l185 -406l185 406h21z" />
    <glyph glyph-name="w" unicode="w" horiz-adv-x="734" 
d="M521 0l-154 400l-154 -400h-10l-178 440h20l163 -404l154 404h10l154 -404l163 404h20l-178 -440h-10z" />
    <glyph glyph-name="x" unicode="x" horiz-adv-x="438" 
d="M388 0l-169 227l-169 -227h-25l180 241l-148 199h25l137 -185l137 185h25l-148 -199l180 -241h-25z" />
    <glyph glyph-name="y" unicode="y" horiz-adv-x="452" 
d="M410 440h22l-322 -682h-22l137 291l-205 391h21l195 -368z" />
    <glyph glyph-name="z" unicode="z" horiz-adv-x="445" 
d="M66 18h349v-18h-380v10l329 412h-309v18h340v-10z" />
    <glyph glyph-name="braceleft" unicode="{" horiz-adv-x="405" 
d="M134 250q36 -22 36 -90q0 -31 -5 -103.5t-5 -98.5q0 -79 30 -108q34 -32 110 -32h15v-18h-15q-90 0 -127 40q-33 36 -33 117q0 22 5 93t5 110q0 40 -11 57q-15 23 -49 23v20q34 0 49 23q11 17 11 57q0 39 -5 110t-5 93q0 81 33 117q37 40 127 40h15v-18h-15
q-76 0 -110 -32q-30 -29 -30 -108q0 -26 5 -98.5t5 -103.5q0 -68 -36 -90z" />
    <glyph glyph-name="bar" unicode="|" horiz-adv-x="140" 
d="M60 -200v900h20v-900h-20z" />
    <glyph glyph-name="braceright" unicode="}" horiz-adv-x="405" 
d="M271 250q-36 22 -36 90q0 31 5 103.5t5 98.5q0 79 -30 108q-34 32 -110 32h-15v18h15q90 0 127 -40q33 -36 33 -117q0 -22 -5 -93t-5 -110q0 -40 11 -57q15 -23 49 -23v-20q-34 0 -49 -23q-11 -17 -11 -57q0 -39 5 -110t5 -93q0 -81 -33 -117q-37 -40 -127 -40h-15v18h15
q76 0 110 32q30 29 30 108q0 26 -5 98.5t-5 103.5q0 68 36 90z" />
    <glyph glyph-name="asciitilde" unicode="~" horiz-adv-x="482" 
d="M68 219l-18 5q11 47 38 68.5t60 21.5q40 0 96.5 -44t89.5 -44q59 0 80 77l18 -5q-11 -47 -38 -68.5t-60 -21.5q-40 0 -96.5 44t-89.5 44q-59 0 -80 -77z" />
    <glyph glyph-name="exclamdown" unicode="&#xa1;" horiz-adv-x="210" 
d="M95 -240v500h20v-500h-20zM70 415q0 14 10.5 24.5t24.5 10.5t24.5 -10.5t10.5 -24.5t-10.5 -24.5t-24.5 -10.5t-24.5 10.5t-10.5 24.5z" />
    <glyph glyph-name="cent" unicode="&#xa2;" horiz-adv-x="525" 
d="M469 107l16 -10q-59 -102 -186 -107v-105h-20v105q-97 4 -160.5 69t-63.5 162q0 94 64.5 161t159.5 68v105h20v-106q104 -7 168 -89l-16 -12q-59 84 -169 84q-86 0 -146.5 -61t-60.5 -150q0 -92 62 -152.5t153 -60.5q59 0 106 27t73 72z" />
    <glyph glyph-name="sterling" unicode="&#xa3;" horiz-adv-x="465" 
d="M50 363v18h87q-41 90 -41 148q0 75 53 128t128 53q51 0 94 -26.5t66 -69.5l-17 -9q-21 39 -59 63t-84 24q-66 0 -113.5 -48.5t-47.5 -114.5q0 -56 43 -148h126v-18h-118q30 -76 30 -146q0 -67 -32.5 -117.5t-76.5 -81.5h377v-18h-435v10q60 24 103.5 80.5t43.5 126.5
q0 65 -32 146h-95z" />
    <glyph glyph-name="currency" unicode="&#xa4;" horiz-adv-x="500" 
d="M64 351q0 72 48 125l-72 72l13 13l72 -72q53 48 125 48t125 -48l72 72l13 -13l-72 -72q48 -53 48 -125t-48 -125l72 -72l-13 -13l-72 72q-53 -48 -125 -48t-125 48l-72 -72l-13 13l72 72q-48 53 -48 125zM84 351q0 -69 48.5 -117.5t117.5 -48.5t117.5 48.5t48.5 117.5
t-48.5 117.5t-117.5 48.5t-117.5 -48.5t-48.5 -117.5z" />
    <glyph glyph-name="yen" unicode="&#xa5;" horiz-adv-x="530" 
d="M34 261v18h221v66l-51 76h-170v18h158l-172 261h23l222 -335l222 335h23l-173 -261h159v-18h-171l-50 -76v-66h221v-18h-221v-261h-20v261h-221z" />
    <glyph glyph-name="brokenbar" unicode="&#xa6;" horiz-adv-x="180" 
d="M80 -200v390h20v-390h-20zM80 310v390h20v-390h-20z" />
    <glyph glyph-name="section" unicode="&#xa7;" horiz-adv-x="497" 
d="M452 230q0 -55 -37 -99t-100 -65q54 -20 83.5 -50t29.5 -83q0 -52 -30.5 -90.5t-71.5 -55.5t-83 -17q-105 0 -173 70l13 14q66 -66 159 -66q60 0 113 38.5t53 106.5q0 18 -4.5 33t-10.5 26t-19.5 21.5t-22 16t-28.5 13.5t-29.5 11t-34 10t-33.5 10q-41 13 -67.5 24
t-55.5 31t-43.5 50.5t-14.5 70.5q0 56 37 99.5t100 64.5q-54 20 -83.5 50t-29.5 83q0 52 30.5 90.5t71.5 55.5t83 17q105 0 173 -70l-13 -14q-66 66 -159 66q-60 0 -113 -38.5t-53 -106.5q0 -18 4.5 -33t10.5 -26t19.5 -21.5t22 -16t28.5 -13.5t29.5 -11t34 -10t33.5 -10
q41 -13 67.5 -24t55.5 -31t43.5 -50.5t14.5 -70.5zM432 230q0 23 -6 42t-14 33t-23.5 26.5t-28 20t-35 16t-36 13t-40 12t-38.5 11.5q-70 -18 -108 -59t-38 -95q0 -23 6 -42t14 -33t23.5 -26.5t28 -20t35 -16t36 -13t40 -12t38.5 -11.5q70 18 108 58.5t38 95.5z" />
    <glyph glyph-name="dieresis" unicode="&#xa8;" horiz-adv-x="340" 
d="M70 580q0 13 8.5 21.5t21.5 8.5t21.5 -8.5t8.5 -21.5t-8.5 -21.5t-21.5 -8.5t-21.5 8.5t-8.5 21.5zM210 580q0 13 8.5 21.5t21.5 8.5t21.5 -8.5t8.5 -21.5t-8.5 -21.5t-21.5 -8.5t-21.5 8.5t-8.5 21.5z" />
    <glyph glyph-name="copyright" unicode="&#xa9;" horiz-adv-x="840" 
d="M70 350q0 145 102.5 247.5t247.5 102.5t247.5 -102.5t102.5 -247.5t-102.5 -247.5t-247.5 -102.5t-247.5 102.5t-102.5 247.5zM548 221l12 -14q-55 -52 -132 -52q-83 0 -139 57t-56 140q0 84 55.5 141t135.5 57q72 0 124 -50l-11 -13q-47 45 -113 45q-72 0 -121.5 -52
t-49.5 -128q0 -75 50.5 -127t124.5 -52q69 0 120 48zM88 350q0 -137 97.5 -234.5t234.5 -97.5t234.5 97.5t97.5 234.5t-97.5 234.5t-234.5 97.5t-234.5 -97.5t-97.5 -234.5z" />
    <glyph glyph-name="ordfeminine" unicode="&#xaa;" horiz-adv-x="391" 
d="M198 710q70 0 108 -48v38h20v-280h-20v38q-39 -48 -108 -48q-65 0 -106.5 43.5t-41.5 106.5t41.5 106.5t106.5 43.5zM306 483v154q-41 55 -105 55q-56 0 -93.5 -38t-37.5 -94t37.5 -94t93.5 -38q64 0 105 55z" />
    <glyph glyph-name="guillemotleft" unicode="&#xab;" horiz-adv-x="520" 
d="M237 410h23l-150 -180l150 -180h-23l-147 175v10zM447 410h23l-150 -180l150 -180h-23l-147 175v10z" />
    <glyph glyph-name="logicalnot" unicode="&#xac;" horiz-adv-x="545" 
d="M460 360v-198h-18v180h-382v18h400z" />
    <glyph glyph-name="registered" unicode="&#xae;" horiz-adv-x="840" 
d="M70 350q0 145 102.5 247.5t247.5 102.5t247.5 -102.5t102.5 -247.5t-102.5 -247.5t-247.5 -102.5t-247.5 102.5t-102.5 247.5zM88 350q0 -137 97.5 -234.5t234.5 -97.5t234.5 97.5t97.5 234.5t-97.5 234.5t-234.5 97.5t-234.5 -97.5t-97.5 -234.5zM431 526h-112v-148h112
q51 0 70 18q24 22 24 56t-24 56q-19 18 -70 18zM299 544h134q54 0 79 -20q33 -27 33 -72t-33 -72q-25 -20 -79 -20h-5l161 -199h-22l-161 199h-87v-199h-20v383z" />
    <glyph glyph-name="macron" unicode="&#xaf;" horiz-adv-x="380" 
d="M70 581h240v-18h-240v18z" />
    <glyph glyph-name="degree" unicode="&#xb0;" horiz-adv-x="390" 
d="M50 555q0 60 42.5 102.5t102.5 42.5t102.5 -42.5t42.5 -102.5t-42.5 -102.5t-102.5 -42.5t-102.5 42.5t-42.5 102.5zM70 555q0 -52 36.5 -88.5t88.5 -36.5t88.5 36.5t36.5 88.5t-36.5 88.5t-88.5 36.5t-88.5 -36.5t-36.5 -88.5z" />
    <glyph glyph-name="plusminus" unicode="&#xb1;" horiz-adv-x="520" 
d="M60 293h191v167h18v-167h191v-18h-191v-167h-18v167h-191v18zM60 78h400v-18h-400v18z" />
    <glyph glyph-name="twosuperior" unicode="&#xb2;" horiz-adv-x="264" 
d="M224 607q0 -53 -55 -113l-124 -136h184v-18h-214v11l146 161q43 48 43 95q0 35 -24 60t-59 25q-28 0 -48.5 -16t-29.5 -42l-18 7q11 30 37 49.5t59 19.5q42 0 72.5 -29t30.5 -74z" />
    <glyph glyph-name="threesuperior" unicode="&#xb3;" horiz-adv-x="284" 
d="M15 387l16 11q31 -50 94 -50q45 0 74.5 30t29.5 74q0 43 -30.5 73t-74.5 30q-24 0 -41 -5v11l110 121h-162v18h191v-11l-105 -116h9q51 0 87 -35.5t36 -85.5q0 -52 -35 -87t-89 -35q-73 0 -110 57z" />
    <glyph glyph-name="acute" unicode="&#xb4;" horiz-adv-x="259" 
d="M167 650h22l-97 -130h-22z" />
    <glyph glyph-name="mu" unicode="&#xb5;" horiz-adv-x="564" 
d="M95 -240v680h20v-240q0 -97 51 -146q49 -46 116 -46q112 0 167 109v323h20v-440h-20v84q-57 -94 -167 -94q-77 0 -131 51q-25 23 -36 53v-334h-20z" />
    <glyph glyph-name="paragraph" unicode="&#xb6;" horiz-adv-x="635" 
d="M265 700h320v-18h-100v-882h-20v882h-200v-882h-20v470q-89 0 -152 63t-63 152q0 64 34.5 117t90.5 79q39 19 110 19zM51 485q0 -82 56.5 -139.5t137.5 -57.5v394q-81 0 -137.5 -57.5t-56.5 -139.5z" />
    <glyph glyph-name="periodcentered" unicode="&#xb7;" horiz-adv-x="270" 
d="M100 220q0 14 10.5 24.5t24.5 10.5t24.5 -10.5t10.5 -24.5t-10.5 -24.5t-24.5 -10.5t-24.5 10.5t-10.5 24.5z" />
    <glyph glyph-name="cedilla" unicode="&#xb8;" horiz-adv-x="199" 
d="M70 -140l40 140h19l-40 -140h-19z" />
    <glyph glyph-name="onesuperior" unicode="&#xb9;" horiz-adv-x="198" 
d="M30 630v20l93 50h10v-360h-20v334z" />
    <glyph glyph-name="ordmasculine" unicode="&#xba;" horiz-adv-x="396" 
d="M50 560q0 63 42 106.5t106 43.5t106 -43.5t42 -106.5t-42 -106.5t-106 -43.5t-106 43.5t-42 106.5zM70 560q0 -55 36.5 -93.5t91.5 -38.5t91.5 38.5t36.5 93.5t-36.5 93.5t-91.5 38.5t-91.5 -38.5t-36.5 -93.5z" />
    <glyph glyph-name="guillemotright" unicode="&#xbb;" horiz-adv-x="520" 
d="M260 410h23l147 -175v-10l-147 -175h-23l150 180zM50 410h23l147 -175v-10l-147 -175h-23l150 180z" />
    <glyph glyph-name="onequarter" unicode="&#xbc;" horiz-adv-x="501" 
d="M411 0v95h-185v10l195 255h10v-247h60v-18h-60v-95h-20zM256 113h155v203zM51 0h-21l409 700h21zM47 630v20l93 50h10v-360h-20v334z" />
    <glyph glyph-name="onehalf" unicode="&#xbd;" horiz-adv-x="529" 
d="M51 0h-21l409 700h21zM47 630v20l93 50h10v-360h-20v334zM489 267q0 -53 -55 -113l-124 -136h184v-18h-214v11l146 161q43 48 43 95q0 35 -24 60t-59 25q-28 0 -48.5 -16t-29.5 -42l-18 7q11 30 37 49.5t59 19.5q42 0 72.5 -29t30.5 -74z" />
    <glyph glyph-name="threequarters" unicode="&#xbe;" horiz-adv-x="555" 
d="M15 387l16 11q31 -50 94 -50q45 0 74.5 30t29.5 74q0 43 -30.5 73t-74.5 30q-24 0 -41 -5v11l110 121h-162v18h191v-11l-105 -116h9q51 0 87 -35.5t36 -85.5q0 -52 -35 -87t-89 -35q-73 0 -110 57zM465 0v95h-185v10l195 255h10v-247h60v-18h-60v-95h-20zM310 113h155
v203zM105 0h-21l409 700h21z" />
    <glyph glyph-name="questiondown" unicode="&#xbf;" horiz-adv-x="480" 
d="M295 435q0 -14 -10.5 -24.5t-24.5 -10.5t-24.5 10.5t-10.5 24.5t10.5 24.5t24.5 10.5t24.5 -10.5t10.5 -24.5zM417 -104l19 -5q-11 -61 -62.5 -101t-123.5 -40q-82 0 -136 52.5t-54 127.5q0 45 22 80.5t53 56.5t62 39t53 38t22 43q0 33 -32 65l15 13q37 -37 37 -78
q0 -28 -22 -50.5t-53 -40.5t-62 -38t-53 -52.5t-22 -75.5q0 -68 48.5 -115t121.5 -47q64 0 110 36t57 92z" />
    <glyph glyph-name="Agrave" unicode="&#xc0;" horiz-adv-x="620" 
d="M195 870h22l97 -130h-22zM595 0l-103 239h-365l-102 -239h-20l300 700h10l300 -700h-20zM310 665l-175 -408h350z" />
    <glyph glyph-name="Aacute" unicode="&#xc1;" horiz-adv-x="620" 
d="M402 870h22l-97 -130h-22zM595 0l-103 239h-365l-102 -239h-20l300 700h10l300 -700h-20zM310 665l-175 -408h350z" />
    <glyph glyph-name="Acircumflex" unicode="&#xc2;" horiz-adv-x="620" 
d="M295 870h31l102 -130h-22l-96 121l-95 -121h-22zM595 0l-103 239h-365l-102 -239h-20l300 700h10l300 -700h-20zM310 665l-175 -408h350z" />
    <glyph glyph-name="Atilde" unicode="&#xc3;" horiz-adv-x="620" 
d="M431 838l19 -3q-9 -72 -67 -72q-28 0 -75.5 29.5t-70.5 29.5q-41 0 -48 -57l-19 3q9 72 67 72q28 0 75.5 -29.5t70.5 -29.5q41 0 48 57zM595 0l-103 239h-365l-102 -239h-20l300 700h10l300 -700h-20zM310 665l-175 -408h350z" />
    <glyph glyph-name="Adieresis" unicode="&#xc4;" horiz-adv-x="620" 
d="M210 800q0 13 8.5 21.5t21.5 8.5t21.5 -8.5t8.5 -21.5t-8.5 -21.5t-21.5 -8.5t-21.5 8.5t-8.5 21.5zM350 800q0 13 8.5 21.5t21.5 8.5t21.5 -8.5t8.5 -21.5t-8.5 -21.5t-21.5 -8.5t-21.5 8.5t-8.5 21.5zM595 0l-103 239h-365l-102 -239h-20l300 700h10l300 -700h-20z
M310 665l-175 -408h350z" />
    <glyph glyph-name="Aring" unicode="&#xc5;" horiz-adv-x="620" 
d="M230 820q0 33 23.5 56.5t56.5 23.5t56.5 -23.5t23.5 -56.5t-23.5 -56.5t-56.5 -23.5t-56.5 23.5t-23.5 56.5zM248 820q0 -26 18 -44t44 -18t44 18t18 44t-18 44t-44 18t-44 -18t-18 -44zM595 0l-103 239h-365l-102 -239h-20l300 700h10l300 -700h-20zM310 665l-175 -408
h350z" />
    <glyph glyph-name="AE" unicode="&#xc6;" horiz-adv-x="845" 
d="M417 700h373v-18h-340v-282h270v-18h-270v-364h350v-18h-370v239h-280l-149 -239h-21zM162 257h268v428z" />
    <glyph glyph-name="Ccedilla" unicode="&#xc7;" horiz-adv-x="715" 
d="M348 -140l37 131q-149 6 -244.5 107.5t-95.5 251.5q0 153 99.5 256.5t249.5 103.5q74 0 139.5 -28.5t111.5 -79.5l-14 -13q-95 103 -237 103t-235.5 -99.5t-93.5 -242.5q0 -146 95 -244t243 -98q76 0 141 34t111 90l15 -12q-46 -59 -116.5 -94t-149.5 -36l-37 -130h-19z
" />
    <glyph glyph-name="Egrave" unicode="&#xc8;" horiz-adv-x="505" 
d="M90 700h360v-18h-340v-282h270v-18h-270v-364h350v-18h-370v700zM178 870h22l97 -130h-22z" />
    <glyph glyph-name="Eacute" unicode="&#xc9;" horiz-adv-x="505" 
d="M90 700h360v-18h-340v-282h270v-18h-270v-364h350v-18h-370v700zM348 870h22l-97 -130h-22z" />
    <glyph glyph-name="Ecircumflex" unicode="&#xca;" horiz-adv-x="505" 
d="M90 700h360v-18h-340v-282h270v-18h-270v-364h350v-18h-370v700zM250 870h31l102 -130h-22l-96 121l-95 -121h-22z" />
    <glyph glyph-name="Edieresis" unicode="&#xcb;" horiz-adv-x="505" 
d="M90 700h360v-18h-340v-282h270v-18h-270v-364h350v-18h-370v700zM175 800q0 13 8.5 21.5t21.5 8.5t21.5 -8.5t8.5 -21.5t-8.5 -21.5t-21.5 -8.5t-21.5 8.5t-8.5 21.5zM315 800q0 13 8.5 21.5t21.5 8.5t21.5 -8.5t8.5 -21.5t-8.5 -21.5t-21.5 -8.5t-21.5 8.5t-8.5 21.5z
" />
    <glyph glyph-name="Igrave" unicode="&#xcc;" horiz-adv-x="200" 
d="M87 0v700h20v-700h-20zM-10 870h22l97 -130h-22z" />
    <glyph glyph-name="Iacute" unicode="&#xcd;" horiz-adv-x="200" 
d="M93 0v700h20v-700h-20zM187 870h22l-97 -130h-22z" />
    <glyph glyph-name="Icircumflex" unicode="&#xce;" horiz-adv-x="200" 
d="M89 0v700h20v-700h-20zM84 870h31l102 -130h-22l-96 121l-95 -121h-22z" />
    <glyph glyph-name="Idieresis" unicode="&#xcf;" horiz-adv-x="200" 
d="M90 0v700h20v-700h-20zM0 800q0 13 8.5 21.5t21.5 8.5t21.5 -8.5t8.5 -21.5t-8.5 -21.5t-21.5 -8.5t-21.5 8.5t-8.5 21.5zM140 800q0 13 8.5 21.5t21.5 8.5t21.5 -8.5t8.5 -21.5t-8.5 -21.5t-21.5 -8.5t-21.5 8.5t-8.5 21.5z" />
    <glyph glyph-name="Eth" unicode="&#xd0;" horiz-adv-x="705" 
d="M-10 382v18h100v300h190q150 0 240 -66q65 -49 102.5 -123.5t37.5 -160.5t-37.5 -160.5t-102.5 -123.5q-90 -66 -240 -66h-190v382h-100zM110 18h168q145 0 231 64q61 45 96 115.5t35 152.5t-35 152.5t-96 115.5q-86 64 -231 64h-168v-282h200v-18h-200v-364z" />
    <glyph glyph-name="Ntilde" unicode="&#xd1;" horiz-adv-x="730" 
d="M90 0v700h10l520 -656v656h20v-700h-10l-520 656v-656h-20zM486 838l19 -3q-9 -72 -67 -72q-28 0 -75.5 29.5t-70.5 29.5q-41 0 -48 -57l-19 3q9 72 67 72q28 0 75.5 -29.5t70.5 -29.5q41 0 48 57z" />
    <glyph glyph-name="Ograve" unicode="&#xd2;" horiz-adv-x="782" 
d="M65 350q0 -145 92.5 -243.5t233.5 -98.5t233.5 98.5t92.5 243.5t-92.5 243.5t-233.5 98.5t-233.5 -98.5t-92.5 -243.5zM45 350q0 153 99 256.5t247 103.5t247 -103.5t99 -256.5t-99 -256.5t-247 -103.5t-247 103.5t-99 256.5zM294 870h22l97 -130h-22z" />
    <glyph glyph-name="Oacute" unicode="&#xd3;" horiz-adv-x="782" 
d="M65 350q0 -145 92.5 -243.5t233.5 -98.5t233.5 98.5t92.5 243.5t-92.5 243.5t-233.5 98.5t-233.5 -98.5t-92.5 -243.5zM45 350q0 153 99 256.5t247 103.5t247 -103.5t99 -256.5t-99 -256.5t-247 -103.5t-247 103.5t-99 256.5zM465 870h22l-97 -130h-22z" />
    <glyph glyph-name="Ocircumflex" unicode="&#xd4;" horiz-adv-x="782" 
d="M65 350q0 -145 92.5 -243.5t233.5 -98.5t233.5 98.5t92.5 243.5t-92.5 243.5t-233.5 98.5t-233.5 -98.5t-92.5 -243.5zM45 350q0 153 99 256.5t247 103.5t247 -103.5t99 -256.5t-99 -256.5t-247 -103.5t-247 103.5t-99 256.5zM376 870h31l102 -130h-22l-96 121l-95 -121
h-22z" />
    <glyph glyph-name="Otilde" unicode="&#xd5;" horiz-adv-x="782" 
d="M65 350q0 -145 92.5 -243.5t233.5 -98.5t233.5 98.5t92.5 243.5t-92.5 243.5t-233.5 98.5t-233.5 -98.5t-92.5 -243.5zM45 350q0 153 99 256.5t247 103.5t247 -103.5t99 -256.5t-99 -256.5t-247 -103.5t-247 103.5t-99 256.5zM512 838l19 -3q-9 -72 -67 -72
q-28 0 -75.5 29.5t-70.5 29.5q-41 0 -48 -57l-19 3q9 72 67 72q28 0 75.5 -29.5t70.5 -29.5q41 0 48 57z" />
    <glyph glyph-name="Odieresis" unicode="&#xd6;" horiz-adv-x="782" 
d="M65 350q0 -145 92.5 -243.5t233.5 -98.5t233.5 98.5t92.5 243.5t-92.5 243.5t-233.5 98.5t-233.5 -98.5t-92.5 -243.5zM45 350q0 153 99 256.5t247 103.5t247 -103.5t99 -256.5t-99 -256.5t-247 -103.5t-247 103.5t-99 256.5zM291 800q0 13 8.5 21.5t21.5 8.5t21.5 -8.5
t8.5 -21.5t-8.5 -21.5t-21.5 -8.5t-21.5 8.5t-8.5 21.5zM431 800q0 13 8.5 21.5t21.5 8.5t21.5 -8.5t8.5 -21.5t-8.5 -21.5t-21.5 -8.5t-21.5 8.5t-8.5 21.5z" />
    <glyph glyph-name="multiply" unicode="&#xd7;" horiz-adv-x="468" 
d="M78 429l156 -156l156 156l13 -13l-156 -156l156 -156l-13 -13l-156 156l-156 -156l-13 13l156 156l-156 156z" />
    <glyph glyph-name="Oslash" unicode="&#xd8;" horiz-adv-x="782" 
d="M45 350q0 153 99 256.5t247 103.5q110 0 198 -61l43 61h22l-51 -72q63 -49 98.5 -124t35.5 -164q0 -153 -99 -256.5t-247 -103.5q-112 0 -198 61l-43 -61h-22l50 72q-63 50 -98 124.5t-35 163.5zM65 350q0 -83 33 -154.5t91 -118.5l389 556q-83 59 -187 59
q-141 0 -233.5 -98.5t-92.5 -243.5zM717 350q0 83 -33 154t-92 118l-388 -556q82 -58 187 -58q141 0 233.5 98.5t92.5 243.5z" />
    <glyph glyph-name="Ugrave" unicode="&#xd9;" horiz-adv-x="700" 
d="M350 -10q-76 0 -139 36t-98 97q-33 58 -33 147v430h20v-432q0 -82 30 -136q32 -57 90.5 -90.5t129.5 -33.5t129.5 33.5t90.5 90.5q30 54 30 136v432h20v-430q0 -89 -33 -147q-35 -61 -98 -97t-139 -36zM253 870h22l97 -130h-22z" />
    <glyph glyph-name="Uacute" unicode="&#xda;" horiz-adv-x="700" 
d="M350 -10q-76 0 -139 36t-98 97q-33 58 -33 147v430h20v-432q0 -82 30 -136q32 -57 90.5 -90.5t129.5 -33.5t129.5 33.5t90.5 90.5q30 54 30 136v432h20v-430q0 -89 -33 -147q-35 -61 -98 -97t-139 -36zM424 870h22l-97 -130h-22z" />
    <glyph glyph-name="Ucircumflex" unicode="&#xdb;" horiz-adv-x="700" 
d="M350 -10q-76 0 -139 36t-98 97q-33 58 -33 147v430h20v-432q0 -82 30 -136q32 -57 90.5 -90.5t129.5 -33.5t129.5 33.5t90.5 90.5q30 54 30 136v432h20v-430q0 -89 -33 -147q-35 -61 -98 -97t-139 -36zM335 870h31l102 -130h-22l-96 121l-95 -121h-22z" />
    <glyph glyph-name="Udieresis" unicode="&#xdc;" horiz-adv-x="700" 
d="M350 -10q-76 0 -139 36t-98 97q-33 58 -33 147v430h20v-432q0 -82 30 -136q32 -57 90.5 -90.5t129.5 -33.5t129.5 33.5t90.5 90.5q30 54 30 136v432h20v-430q0 -89 -33 -147q-35 -61 -98 -97t-139 -36zM250 800q0 13 8.5 21.5t21.5 8.5t21.5 -8.5t8.5 -21.5t-8.5 -21.5
t-21.5 -8.5t-21.5 8.5t-8.5 21.5zM390 800q0 13 8.5 21.5t21.5 8.5t21.5 -8.5t8.5 -21.5t-8.5 -21.5t-21.5 -8.5t-21.5 8.5t-8.5 21.5z" />
    <glyph glyph-name="Yacute" unicode="&#xdd;" horiz-adv-x="530" 
d="M255 0v345l-235 355h23l222 -335l222 335h23l-235 -355v-345h-20zM338 870h22l-97 -130h-22z" />
    <glyph glyph-name="Thorn" unicode="&#xde;" horiz-adv-x="560" 
d="M110 199h229q79 0 123 41q48 46 48 110t-48 110q-44 41 -123 41h-229v-302zM90 700h20v-181h231q88 0 137 -47q52 -50 52 -122t-52 -122q-49 -47 -137 -47h-231v-181h-20v700z" />
    <glyph glyph-name="germandbls" unicode="&#xdf;" 
d="M185 21l10 17q41 -30 103 -30q85 0 141 58.5t56 142.5t-58 142.5t-143 58.5h-44v18h17q68 0 110.5 37t42.5 96q0 60 -43 100.5t-110 40.5q-73 0 -116 -45q-36 -38 -36 -112v-545h-20v545q0 81 40 123q50 52 132 52q75 0 124 -45.5t49 -111.5q0 -47 -26.5 -84.5
t-70.5 -55.5q75 -15 123.5 -75.5t48.5 -139.5q0 -91 -62 -154.5t-155 -63.5q-64 0 -113 31z" />
    <glyph glyph-name="agrave" unicode="&#xe0;" horiz-adv-x="574" 
d="M212 650h22l97 -130h-22zM459 440h20v-440h-20v82q-21 -35 -69 -63.5t-112 -28.5q-98 0 -160.5 65t-62.5 164q0 98 64.5 164.5t161.5 66.5q114 0 178 -89v79zM459 117v211q-28 48 -74 76t-102 28q-90 0 -149 -61t-59 -152t56.5 -151t146.5 -60q61 0 110 31t71 78z" />
    <glyph glyph-name="aacute" unicode="&#xe1;" horiz-adv-x="574" 
d="M371 650h22l-97 -130h-22zM459 440h20v-440h-20v82q-21 -35 -69 -63.5t-112 -28.5q-98 0 -160.5 65t-62.5 164q0 98 64.5 164.5t161.5 66.5q114 0 178 -89v79zM459 117v211q-28 48 -74 76t-102 28q-90 0 -149 -61t-59 -152t56.5 -151t146.5 -60q61 0 110 31t71 78z" />
    <glyph glyph-name="acircumflex" unicode="&#xe2;" horiz-adv-x="574" 
d="M282 650h31l102 -130h-22l-96 121l-95 -121h-22zM459 440h20v-440h-20v82q-21 -35 -69 -63.5t-112 -28.5q-98 0 -160.5 65t-62.5 164q0 98 64.5 164.5t161.5 66.5q114 0 178 -89v79zM459 117v211q-28 48 -74 76t-102 28q-90 0 -149 -61t-59 -152t56.5 -151t146.5 -60
q61 0 110 31t71 78z" />
    <glyph glyph-name="atilde" unicode="&#xe3;" horiz-adv-x="574" 
d="M418 618l19 -3q-9 -72 -67 -72q-28 0 -75.5 29.5t-70.5 29.5q-41 0 -48 -57l-19 3q9 72 67 72q28 0 75.5 -29.5t70.5 -29.5q41 0 48 57zM459 440h20v-440h-20v82q-21 -35 -69 -63.5t-112 -28.5q-98 0 -160.5 65t-62.5 164q0 98 64.5 164.5t161.5 66.5q114 0 178 -89v79z
M459 117v211q-28 48 -74 76t-102 28q-90 0 -149 -61t-59 -152t56.5 -151t146.5 -60q61 0 110 31t71 78z" />
    <glyph glyph-name="adieresis" unicode="&#xe4;" horiz-adv-x="574" 
d="M197 580q0 13 8.5 21.5t21.5 8.5t21.5 -8.5t8.5 -21.5t-8.5 -21.5t-21.5 -8.5t-21.5 8.5t-8.5 21.5zM337 580q0 13 8.5 21.5t21.5 8.5t21.5 -8.5t8.5 -21.5t-8.5 -21.5t-21.5 -8.5t-21.5 8.5t-8.5 21.5zM459 440h20v-440h-20v82q-21 -35 -69 -63.5t-112 -28.5
q-98 0 -160.5 65t-62.5 164q0 98 64.5 164.5t161.5 66.5q114 0 178 -89v79zM459 117v211q-28 48 -74 76t-102 28q-90 0 -149 -61t-59 -152t56.5 -151t146.5 -60q61 0 110 31t71 78z" />
    <glyph glyph-name="aring" unicode="&#xe5;" horiz-adv-x="574" 
d="M217 600q0 33 23.5 56.5t56.5 23.5t56.5 -23.5t23.5 -56.5t-23.5 -56.5t-56.5 -23.5t-56.5 23.5t-23.5 56.5zM235 600q0 -26 18.5 -44t43.5 -18t43.5 18t18.5 44t-18.5 44t-43.5 18t-43.5 -18t-18.5 -44zM459 440h20v-440h-20v82q-21 -35 -69 -63.5t-112 -28.5
q-98 0 -160.5 65t-62.5 164q0 98 64.5 164.5t161.5 66.5q114 0 178 -89v79zM459 117v211q-28 48 -74 76t-102 28q-90 0 -149 -61t-59 -152t56.5 -151t146.5 -60q61 0 110 31t71 78z" />
    <glyph glyph-name="ae" unicode="&#xe6;" horiz-adv-x="930" 
d="M459 440h20v-119q24 59 73 94t115 35q90 0 147.5 -62.5t60.5 -154.5h-396v-21q2 -88 56.5 -146t144.5 -58q100 0 162 72l14 -14q-67 -76 -176 -76q-73 0 -125 35t-76 95v-120h-20v82q-21 -35 -69 -63.5t-112 -28.5q-98 0 -160.5 65t-62.5 164q0 98 64.5 164.5t161.5 66.5
q114 0 178 -89v79zM459 117v211q-28 48 -74 76t-102 28q-90 0 -149 -61t-59 -152t56.5 -151t146.5 -60q61 0 110 31t71 78zM667 432q-75 0 -125.5 -50t-60.5 -131h371q-6 77 -57 129t-128 52z" />
    <glyph glyph-name="ccedilla" unicode="&#xe7;" horiz-adv-x="535" 
d="M235 -140l37 131q-94 6 -155.5 70.5t-61.5 159.5t65 162t160 67q118 0 187 -90l-16 -12q-59 84 -169 84q-86 0 -146.5 -61t-60.5 -150q0 -92 62 -152.5t153 -60.5q59 0 106 27t73 72l16 -10q-60 -105 -194 -107l-37 -130h-19z" />
    <glyph glyph-name="egrave" unicode="&#xe8;" horiz-adv-x="526" 
d="M173 650h22l97 -130h-22zM263 432q-75 0 -125.5 -50t-60.5 -131h371q-6 77 -57 129t-128 52zM471 233h-396v-12q0 -92 54 -152.5t147 -60.5q100 0 162 72l14 -14q-67 -76 -176 -76q-102 0 -161.5 66.5t-59.5 164.5q0 97 57.5 163t150.5 66q90 0 147.5 -62.5t60.5 -154.5z
" />
    <glyph glyph-name="eacute" unicode="&#xe9;" horiz-adv-x="526" 
d="M334 650h22l-97 -130h-22zM263 432q-75 0 -125.5 -50t-60.5 -131h371q-6 77 -57 129t-128 52zM471 233h-396v-12q0 -92 54 -152.5t147 -60.5q100 0 162 72l14 -14q-67 -76 -176 -76q-102 0 -161.5 66.5t-59.5 164.5q0 97 57.5 163t150.5 66q90 0 147.5 -62.5t60.5 -154.5
z" />
    <glyph glyph-name="ecircumflex" unicode="&#xea;" horiz-adv-x="526" 
d="M255 650h31l102 -130h-22l-96 121l-95 -121h-22zM263 432q-75 0 -125.5 -50t-60.5 -131h371q-6 77 -57 129t-128 52zM471 233h-396v-12q0 -92 54 -152.5t147 -60.5q100 0 162 72l14 -14q-67 -76 -176 -76q-102 0 -161.5 66.5t-59.5 164.5q0 97 57.5 163t150.5 66
q90 0 147.5 -62.5t60.5 -154.5z" />
    <glyph glyph-name="edieresis" unicode="&#xeb;" horiz-adv-x="526" 
d="M160 580q0 13 8.5 21.5t21.5 8.5t21.5 -8.5t8.5 -21.5t-8.5 -21.5t-21.5 -8.5t-21.5 8.5t-8.5 21.5zM300 580q0 13 8.5 21.5t21.5 8.5t21.5 -8.5t8.5 -21.5t-8.5 -21.5t-21.5 -8.5t-21.5 8.5t-8.5 21.5zM263 432q-75 0 -125.5 -50t-60.5 -131h371q-6 77 -57 129t-128 52z
M471 233h-396v-12q0 -92 54 -152.5t147 -60.5q100 0 162 72l14 -14q-67 -76 -176 -76q-102 0 -161.5 66.5t-59.5 164.5q0 97 57.5 163t150.5 66q90 0 147.5 -62.5t60.5 -154.5z" />
    <glyph glyph-name="igrave" unicode="&#xec;" horiz-adv-x="210" 
d="M95 0v440h20v-440h-20zM-5 650h22l97 -130h-22z" />
    <glyph glyph-name="iacute" unicode="&#xed;" horiz-adv-x="210" 
d="M95 0v440h20v-440h-20zM192 650h22l-97 -130h-22z" />
    <glyph glyph-name="icircumflex" unicode="&#xee;" horiz-adv-x="210" 
d="M95 0v440h20v-440h-20zM90 650h31l102 -130h-22l-96 121l-95 -121h-22z" />
    <glyph glyph-name="idieresis" unicode="&#xef;" horiz-adv-x="210" 
d="M95 0v440h20v-440h-20zM5 580q0 13 8.5 21.5t21.5 8.5t21.5 -8.5t8.5 -21.5t-8.5 -21.5t-21.5 -8.5t-21.5 8.5t-8.5 21.5zM145 580q0 13 8.5 21.5t21.5 8.5t21.5 -8.5t8.5 -21.5t-8.5 -21.5t-21.5 -8.5t-21.5 8.5t-8.5 21.5z" />
    <glyph glyph-name="eth" unicode="&#xf0;" horiz-adv-x="558" 
d="M503 220q0 -96 -64 -163t-160 -67t-160 67t-64 163t64 163t160 67q61 0 108 -26l-132 193l-111 -64l-9 15l111 64l-53 78h25l46 -68l100 58l9 -15l-100 -57l181 -266q49 -71 49 -142zM279 432q-87 0 -145.5 -61.5t-58.5 -150.5t58.5 -150.5t145.5 -61.5t145.5 61.5
t58.5 150.5q0 63 -45 130l-22 31q-53 51 -137 51z" />
    <glyph glyph-name="ntilde" unicode="&#xf1;" horiz-adv-x="564" 
d="M416 618l19 -3q-9 -72 -67 -72q-28 0 -75.5 29.5t-70.5 29.5q-41 0 -48 -57l-19 3q9 72 67 72q28 0 75.5 -29.5t70.5 -29.5q41 0 48 57zM95 440h20v-87q70 97 179 97q83 0 137 -57q48 -51 48 -143v-250h-20v250q0 84 -44 131q-48 51 -121 51q-109 0 -179 -109v-323h-20
v440z" />
    <glyph glyph-name="ograve" unicode="&#xf2;" horiz-adv-x="558" 
d="M483 220q0 89 -58.5 150.5t-145.5 61.5t-145.5 -61.5t-58.5 -150.5t58.5 -150.5t145.5 -61.5t145.5 61.5t58.5 150.5zM55 220q0 96 64 163t160 67t160 -67t64 -163t-64 -163t-160 -67t-160 67t-64 163zM180 650h22l97 -130h-22z" />
    <glyph glyph-name="oacute" unicode="&#xf3;" horiz-adv-x="558" 
d="M483 220q0 89 -58.5 150.5t-145.5 61.5t-145.5 -61.5t-58.5 -150.5t58.5 -150.5t145.5 -61.5t145.5 61.5t58.5 150.5zM55 220q0 96 64 163t160 67t160 -67t64 -163t-64 -163t-160 -67t-160 67t-64 163zM351 650h22l-97 -130h-22z" />
    <glyph glyph-name="ocircumflex" unicode="&#xf4;" horiz-adv-x="558" 
d="M483 220q0 89 -58.5 150.5t-145.5 61.5t-145.5 -61.5t-58.5 -150.5t58.5 -150.5t145.5 -61.5t145.5 61.5t58.5 150.5zM55 220q0 96 64 163t160 67t160 -67t64 -163t-64 -163t-160 -67t-160 67t-64 163zM262 650h31l102 -130h-22l-96 121l-95 -121h-22z" />
    <glyph glyph-name="otilde" unicode="&#xf5;" horiz-adv-x="558" 
d="M483 220q0 89 -58.5 150.5t-145.5 61.5t-145.5 -61.5t-58.5 -150.5t58.5 -150.5t145.5 -61.5t145.5 61.5t58.5 150.5zM55 220q0 96 64 163t160 67t160 -67t64 -163t-64 -163t-160 -67t-160 67t-64 163zM398 618l19 -3q-9 -72 -67 -72q-28 0 -75.5 29.5t-70.5 29.5
q-41 0 -48 -57l-19 3q9 72 67 72q28 0 75.5 -29.5t70.5 -29.5q41 0 48 57z" />
    <glyph glyph-name="odieresis" unicode="&#xf6;" horiz-adv-x="558" 
d="M483 220q0 89 -58.5 150.5t-145.5 61.5t-145.5 -61.5t-58.5 -150.5t58.5 -150.5t145.5 -61.5t145.5 61.5t58.5 150.5zM55 220q0 96 64 163t160 67t160 -67t64 -163t-64 -163t-160 -67t-160 67t-64 163zM177 580q0 13 8.5 21.5t21.5 8.5t21.5 -8.5t8.5 -21.5t-8.5 -21.5
t-21.5 -8.5t-21.5 8.5t-8.5 21.5zM317 580q0 13 8.5 21.5t21.5 8.5t21.5 -8.5t8.5 -21.5t-8.5 -21.5t-21.5 -8.5t-21.5 8.5t-8.5 21.5z" />
    <glyph glyph-name="divide" unicode="&#xf7;" horiz-adv-x="520" 
d="M60 269h400v-18h-400v18zM225 85q0 14 10.5 24.5t24.5 10.5t24.5 -10.5t10.5 -24.5t-10.5 -24.5t-24.5 -10.5t-24.5 10.5t-10.5 24.5zM225 435q0 14 10.5 24.5t24.5 10.5t24.5 -10.5t10.5 -24.5t-10.5 -24.5t-24.5 -10.5t-24.5 10.5t-10.5 24.5z" />
    <glyph glyph-name="oslash" unicode="&#xf8;" horiz-adv-x="558" 
d="M55 220q0 96 64 163t160 67q68 0 123 -37l26 37h22l-33 -47q40 -32 63 -80t23 -103q0 -96 -64 -163t-160 -67q-69 0 -124 36l-25 -36h-22l32 47q-85 67 -85 183zM483 220q0 103 -77 167l-240 -345q49 -34 113 -34q87 0 145.5 61.5t58.5 150.5zM75 220q0 -104 76 -167
l241 345q-52 34 -113 34q-87 0 -145.5 -61.5t-58.5 -150.5z" />
    <glyph glyph-name="ugrave" unicode="&#xf9;" horiz-adv-x="559" 
d="M192 650h22l97 -130h-22zM464 0h-20v87q-72 -97 -182 -97q-77 0 -130 56q-47 50 -47 144v250h20v-250q0 -86 43 -132q47 -50 114 -50q109 0 182 109v323h20v-440z" />
    <glyph glyph-name="uacute" unicode="&#xfa;" horiz-adv-x="559" 
d="M342 650h22l-97 -130h-22zM464 0h-20v87q-72 -97 -182 -97q-77 0 -130 56q-47 50 -47 144v250h20v-250q0 -86 43 -132q47 -50 114 -50q109 0 182 109v323h20v-440z" />
    <glyph glyph-name="ucircumflex" unicode="&#xfb;" horiz-adv-x="559" 
d="M263 650h31l102 -130h-22l-96 121l-95 -121h-22zM464 0h-20v87q-72 -97 -182 -97q-77 0 -130 56q-47 50 -47 144v250h20v-250q0 -86 43 -132q47 -50 114 -50q109 0 182 109v323h20v-440z" />
    <glyph glyph-name="udieresis" unicode="&#xfc;" horiz-adv-x="559" 
d="M179 580q0 13 8.5 21.5t21.5 8.5t21.5 -8.5t8.5 -21.5t-8.5 -21.5t-21.5 -8.5t-21.5 8.5t-8.5 21.5zM319 580q0 13 8.5 21.5t21.5 8.5t21.5 -8.5t8.5 -21.5t-8.5 -21.5t-21.5 -8.5t-21.5 8.5t-8.5 21.5zM464 0h-20v87q-72 -97 -182 -97q-77 0 -130 56q-47 50 -47 144v250
h20v-250q0 -86 43 -132q47 -50 114 -50q109 0 182 109v323h20v-440z" />
    <glyph glyph-name="yacute" unicode="&#xfd;" horiz-adv-x="452" 
d="M410 440h22l-322 -682h-22l137 291l-205 391h21l195 -368zM296 650h22l-97 -130h-22z" />
    <glyph glyph-name="thorn" unicode="&#xfe;" horiz-adv-x="574" 
d="M95 710h20v-349q64 89 178 89q97 0 161.5 -66.5t64.5 -164.5q0 -99 -62.5 -164t-160.5 -65q-64 0 -112 28.5t-69 63.5v-322h-20v950zM115 328v-211q22 -47 71 -78t110 -31q90 0 146.5 60t56.5 151t-59 152t-149 61q-56 0 -102 -28t-74 -76z" />
    <glyph glyph-name="ydieresis" unicode="&#xff;" horiz-adv-x="452" 
d="M410 440h22l-322 -682h-22l137 291l-205 391h21l195 -368zM122 580q0 13 8.5 21.5t21.5 8.5t21.5 -8.5t8.5 -21.5t-8.5 -21.5t-21.5 -8.5t-21.5 8.5t-8.5 21.5zM262 580q0 13 8.5 21.5t21.5 8.5t21.5 -8.5t8.5 -21.5t-8.5 -21.5t-21.5 -8.5t-21.5 8.5t-8.5 21.5z" />
    <glyph glyph-name="Amacron" unicode="&#x100;" horiz-adv-x="620" 
d="M190 801h240v-18h-240v18zM595 0l-103 239h-365l-102 -239h-20l300 700h10l300 -700h-20zM310 665l-175 -408h350z" />
    <glyph glyph-name="amacron" unicode="&#x101;" horiz-adv-x="574" 
d="M170 581h240v-18h-240v18zM459 440h20v-440h-20v82q-21 -35 -69 -63.5t-112 -28.5q-98 0 -160.5 65t-62.5 164q0 98 64.5 164.5t161.5 66.5q114 0 178 -89v79zM459 117v211q-28 48 -74 76t-102 28q-90 0 -149 -61t-59 -152t56.5 -151t146.5 -60q61 0 110 31t71 78z" />
    <glyph glyph-name="Abreve" unicode="&#x102;" horiz-adv-x="620" 
d="M407 865h18q0 -47 -34 -81t-81 -34t-81 34t-34 81h18q0 -41 28.5 -69t68.5 -28t68.5 28t28.5 69zM595 0l-103 239h-365l-102 -239h-20l300 700h10l300 -700h-20zM310 665l-175 -408h350z" />
    <glyph glyph-name="abreve" unicode="&#x103;" horiz-adv-x="574" 
d="M392 645h18q0 -47 -34 -81t-81 -34t-81 34t-34 81h18q0 -41 28 -69t69 -28t69 28t28 69zM459 440h20v-440h-20v82q-21 -35 -69 -63.5t-112 -28.5q-98 0 -160.5 65t-62.5 164q0 98 64.5 164.5t161.5 66.5q114 0 178 -89v79zM459 117v211q-28 48 -74 76t-102 28
q-90 0 -149 -61t-59 -152t56.5 -151t146.5 -60q61 0 110 31t71 78z" />
    <glyph glyph-name="Aogonek" unicode="&#x104;" horiz-adv-x="620" 
d="M315 700l300 -700q-32 -55 -32 -105q0 -43 22 -70t61 -27q26 0 42 8l5 -17q-18 -9 -45 -9q-50 0 -77.5 31.5t-27.5 81.5q0 54 31 108l-102 238h-365l-102 -239h-20l300 700h10zM310 665l-175 -408h350z" />
    <glyph glyph-name="aogonek" unicode="&#x105;" horiz-adv-x="574" 
d="M459 440h20v-440q-32 -55 -32 -105q0 -43 22 -70t61 -27q26 0 42 8l5 -17q-18 -9 -45 -9q-50 0 -77.5 31.5t-27.5 81.5q0 54 32 109v80q-21 -35 -69 -63.5t-112 -28.5q-98 0 -160.5 65t-62.5 164q0 98 64.5 164.5t161.5 66.5q114 0 178 -89v79zM459 117v211
q-28 48 -74 76t-102 28q-90 0 -149 -61t-59 -152t56.5 -151t146.5 -60q61 0 110 31t71 78z" />
    <glyph glyph-name="Cacute" unicode="&#x106;" horiz-adv-x="715" 
d="M655 132l15 -12q-46 -59 -117 -94.5t-150 -35.5q-156 0 -257 102.5t-101 257.5q0 153 99.5 256.5t249.5 103.5q74 0 139.5 -28.5t111.5 -79.5l-14 -13q-95 103 -237 103t-235.5 -99.5t-93.5 -242.5q0 -146 95 -244t243 -98q76 0 141 34t111 90zM468 870h22l-97 -130h-22z
" />
    <glyph glyph-name="cacute" unicode="&#x107;" horiz-adv-x="535" 
d="M469 107l16 -10q-28 -50 -79 -78.5t-116 -28.5q-101 0 -168 65.5t-67 165.5q0 95 65 162t160 67q118 0 187 -90l-16 -12q-59 84 -169 84q-86 0 -146.5 -61t-60.5 -150q0 -92 62 -152.5t153 -60.5q59 0 106 27t73 72zM355 650h22l-97 -130h-22z" />
    <glyph glyph-name="Ccircumflex" unicode="&#x108;" horiz-adv-x="715" 
d="M655 132l15 -12q-46 -59 -117 -94.5t-150 -35.5q-156 0 -257 102.5t-101 257.5q0 153 99.5 256.5t249.5 103.5q74 0 139.5 -28.5t111.5 -79.5l-14 -13q-95 103 -237 103t-235.5 -99.5t-93.5 -242.5q0 -146 95 -244t243 -98q76 0 141 34t111 90zM385 870h31l102 -130h-22
l-96 121l-95 -121h-22z" />
    <glyph glyph-name="ccircumflex" unicode="&#x109;" horiz-adv-x="535" 
d="M469 107l16 -10q-28 -50 -79 -78.5t-116 -28.5q-101 0 -168 65.5t-67 165.5q0 95 65 162t160 67q118 0 187 -90l-16 -12q-59 84 -169 84q-86 0 -146.5 -61t-60.5 -150q0 -92 62 -152.5t153 -60.5q59 0 106 27t73 72zM268 650h31l102 -130h-22l-96 121l-95 -121h-22z" />
    <glyph glyph-name="Cdotaccent" unicode="&#x10a;" horiz-adv-x="715" 
d="M655 132l15 -12q-46 -59 -117 -94.5t-150 -35.5q-156 0 -257 102.5t-101 257.5q0 153 99.5 256.5t249.5 103.5q74 0 139.5 -28.5t111.5 -79.5l-14 -13q-95 103 -237 103t-235.5 -99.5t-93.5 -242.5q0 -146 95 -244t243 -98q76 0 141 34t111 90zM354 820q0 13 8.5 21.5
t21.5 8.5t21.5 -8.5t8.5 -21.5t-8.5 -21.5t-21.5 -8.5t-21.5 8.5t-8.5 21.5z" />
    <glyph glyph-name="cdotaccent" unicode="&#x10b;" horiz-adv-x="535" 
d="M469 107l16 -10q-28 -50 -79 -78.5t-116 -28.5q-101 0 -168 65.5t-67 165.5q0 95 65 162t160 67q118 0 187 -90l-16 -12q-59 84 -169 84q-86 0 -146.5 -61t-60.5 -150q0 -92 62 -152.5t153 -60.5q59 0 106 27t73 72zM255 600q0 13 8.5 21.5t21.5 8.5t21.5 -8.5t8.5 -21.5
t-8.5 -21.5t-21.5 -8.5t-21.5 8.5t-8.5 21.5z" />
    <glyph glyph-name="Ccaron" unicode="&#x10c;" horiz-adv-x="715" 
d="M655 132l15 -12q-46 -59 -117 -94.5t-150 -35.5q-156 0 -257 102.5t-101 257.5q0 153 99.5 256.5t249.5 103.5q74 0 139.5 -28.5t111.5 -79.5l-14 -13q-95 103 -237 103t-235.5 -99.5t-93.5 -242.5q0 -146 95 -244t243 -98q76 0 141 34t111 90zM410 740h-31l-102 130h22
l95 -121l96 121h22z" />
    <glyph glyph-name="ccaron" unicode="&#x10d;" horiz-adv-x="535" 
d="M469 107l16 -10q-28 -50 -79 -78.5t-116 -28.5q-101 0 -168 65.5t-67 165.5q0 95 65 162t160 67q118 0 187 -90l-16 -12q-59 84 -169 84q-86 0 -146.5 -61t-60.5 -150q0 -92 62 -152.5t153 -60.5q59 0 106 27t73 72zM303 520h-31l-102 130h22l95 -121l96 121h22z" />
    <glyph glyph-name="Dcaron" unicode="&#x10e;" horiz-adv-x="705" 
d="M660 350q0 -86 -37.5 -160.5t-102.5 -123.5q-90 -66 -240 -66h-190v700h190q150 0 240 -66q65 -49 102.5 -123.5t37.5 -160.5zM110 18h168q145 0 231 64q61 45 96 115.5t35 152.5t-35 152.5t-96 115.5q-86 64 -231 64h-168v-664zM325 740h-31l-102 130h22l95 -121l96 121
h22z" />
    <glyph glyph-name="dcaron" unicode="&#x10f;" horiz-adv-x="604" 
d="M616 700h22l-97 -130h-22zM459 710h20v-710h-20v82q-21 -35 -69 -63.5t-112 -28.5q-98 0 -160.5 65t-62.5 164q0 98 64.5 164.5t161.5 66.5q114 0 178 -89v349zM459 117v211q-28 48 -74 76t-102 28q-90 0 -149 -61t-59 -152t56.5 -151t146.5 -60q61 0 110 31t71 78z" />
    <glyph glyph-name="Dcroat" unicode="&#x110;" horiz-adv-x="705" 
d="M-10 382v18h100v300h190q150 0 240 -66q65 -49 102.5 -123.5t37.5 -160.5t-37.5 -160.5t-102.5 -123.5q-90 -66 -240 -66h-190v382h-100zM110 18h168q145 0 231 64q61 45 96 115.5t35 152.5t-35 152.5t-96 115.5q-86 64 -231 64h-168v-282h200v-18h-200v-364z" />
    <glyph glyph-name="dcroat" unicode="&#x111;" horiz-adv-x="574" 
d="M459 710h20v-130h90v-18h-90v-562h-20v82q-21 -35 -69 -63.5t-112 -28.5q-98 0 -160.5 65t-62.5 164q0 98 64.5 164.5t161.5 66.5q114 0 178 -89v201h-130v18h130v130zM459 117v211q-28 48 -74 76t-102 28q-90 0 -149 -61t-59 -152t56.5 -151t146.5 -60q61 0 110 31
t71 78z" />
    <glyph glyph-name="Emacron" unicode="&#x112;" horiz-adv-x="505" 
d="M90 700h360v-18h-340v-282h270v-18h-270v-364h350v-18h-370v700zM150 801h240v-18h-240v18z" />
    <glyph glyph-name="emacron" unicode="&#x113;" horiz-adv-x="526" 
d="M152 581h240v-18h-240v18zM263 432q-75 0 -125.5 -50t-60.5 -131h371q-6 77 -57 129t-128 52zM471 233h-396v-12q0 -92 54 -152.5t147 -60.5q100 0 162 72l14 -14q-67 -76 -176 -76q-102 0 -161.5 66.5t-59.5 164.5q0 97 57.5 163t150.5 66q90 0 147.5 -62.5t60.5 -154.5
z" />
    <glyph glyph-name="Ebreve" unicode="&#x114;" horiz-adv-x="505" 
d="M90 700h360v-18h-340v-282h270v-18h-270v-364h350v-18h-370v700zM362 865h18q0 -47 -34 -81t-81 -34t-81 34t-34 81h18q0 -41 28 -69t69 -28t69 28t28 69z" />
    <glyph glyph-name="ebreve" unicode="&#x115;" horiz-adv-x="526" 
d="M360 645h18q0 -47 -34 -81t-81 -34t-81 34t-34 81h18q0 -41 28 -69t69 -28t69 28t28 69zM263 432q-75 0 -125.5 -50t-60.5 -131h371q-6 77 -57 129t-128 52zM471 233h-396v-12q0 -92 54 -152.5t147 -60.5q100 0 162 72l14 -14q-67 -76 -176 -76q-102 0 -161.5 66.5
t-59.5 164.5q0 97 57.5 163t150.5 66q90 0 147.5 -62.5t60.5 -154.5z" />
    <glyph glyph-name="Edotaccent" unicode="&#x116;" horiz-adv-x="505" 
d="M90 700h360v-18h-340v-282h270v-18h-270v-364h350v-18h-370v700zM240 820q0 13 8.5 21.5t21.5 8.5t21.5 -8.5t8.5 -21.5t-8.5 -21.5t-21.5 -8.5t-21.5 8.5t-8.5 21.5z" />
    <glyph glyph-name="edotaccent" unicode="&#x117;" horiz-adv-x="526" 
d="M243 600q0 13 8.5 21.5t21.5 8.5t21.5 -8.5t8.5 -21.5t-8.5 -21.5t-21.5 -8.5t-21.5 8.5t-8.5 21.5zM263 432q-75 0 -125.5 -50t-60.5 -131h371q-6 77 -57 129t-128 52zM471 233h-396v-12q0 -92 54 -152.5t147 -60.5q100 0 162 72l14 -14q-67 -76 -176 -76
q-102 0 -161.5 66.5t-59.5 164.5q0 97 57.5 163t150.5 66q90 0 147.5 -62.5t60.5 -154.5z" />
    <glyph glyph-name="Eogonek" unicode="&#x118;" horiz-adv-x="505" 
d="M90 700h360v-18h-340v-282h270v-18h-270v-364h350v-18h-133q-32 -55 -32 -105q0 -43 22 -70t61 -27q26 0 42 8l5 -17q-18 -9 -45 -9q-50 0 -77.5 31.5t-27.5 81.5q0 51 31 107h-216v700z" />
    <glyph glyph-name="eogonek" unicode="&#x119;" horiz-adv-x="526" 
d="M471 233h-396v-12q0 -92 54 -152.5t147 -60.5q100 0 162 72l14 -14q-45 -51 -110 -68q-30 -52 -30 -103q0 -43 22 -70t61 -27q26 0 42 8l5 -17q-18 -9 -45 -9q-50 0 -77.5 31.5t-27.5 81.5q0 48 26 100q-20 -3 -42 -3q-102 0 -161.5 66.5t-59.5 164.5q0 97 57.5 163
t150.5 66q90 0 147.5 -62.5t60.5 -154.5zM263 432q-75 0 -125.5 -50t-60.5 -131h371q-6 77 -57 129t-128 52z" />
    <glyph glyph-name="Ecaron" unicode="&#x11a;" horiz-adv-x="505" 
d="M90 700h360v-18h-340v-282h270v-18h-270v-364h350v-18h-370v700zM287 740h-31l-102 130h22l95 -121l96 121h22z" />
    <glyph glyph-name="ecaron" unicode="&#x11b;" horiz-adv-x="526" 
d="M288 520h-31l-102 130h22l95 -121l96 121h22zM263 432q-75 0 -125.5 -50t-60.5 -131h371q-6 77 -57 129t-128 52zM471 233h-396v-12q0 -92 54 -152.5t147 -60.5q100 0 162 72l14 -14q-67 -76 -176 -76q-102 0 -161.5 66.5t-59.5 164.5q0 97 57.5 163t150.5 66
q90 0 147.5 -62.5t60.5 -154.5z" />
    <glyph glyph-name="Gcircumflex" unicode="&#x11c;" horiz-adv-x="750" 
d="M660 131v251h-269v18h289v-275q-44 -60 -117 -97.5t-160 -37.5q-156 0 -257 102.5t-101 257.5q0 153 99.5 256.5t249.5 103.5q74 0 139.5 -28.5t111.5 -79.5l-14 -13q-95 103 -237 103t-235.5 -99.5t-93.5 -242.5q0 -146 95 -244t243 -98q78 0 145.5 33.5t111.5 89.5z
M385 870h31l102 -130h-22l-96 121l-95 -121h-22z" />
    <glyph glyph-name="gcircumflex" unicode="&#x11d;" horiz-adv-x="574" 
d="M271 650h31l102 -130h-22l-96 121l-95 -121h-22zM459 440h20v-435q0 -122 -27 -167q-53 -88 -174 -88q-70 0 -122.5 29t-81.5 71l16 12q24 -39 74 -66.5t114 -27.5q111 0 157 81q24 43 24 155v78q-21 -35 -69 -63.5t-112 -28.5q-98 0 -160.5 65t-62.5 164
q0 98 64.5 164.5t161.5 66.5q114 0 178 -89v79zM459 117v211q-28 48 -74 76t-102 28q-90 0 -149 -61t-59 -152t56.5 -151t146.5 -60q61 0 110 31t71 78z" />
    <glyph glyph-name="Gbreve" unicode="&#x11e;" horiz-adv-x="750" 
d="M660 131v251h-269v18h289v-275q-44 -60 -117 -97.5t-160 -37.5q-156 0 -257 102.5t-101 257.5q0 153 99.5 256.5t249.5 103.5q74 0 139.5 -28.5t111.5 -79.5l-14 -13q-95 103 -237 103t-235.5 -99.5t-93.5 -242.5q0 -146 95 -244t243 -98q78 0 145.5 33.5t111.5 89.5z
M491 865h18q0 -47 -34 -81t-81 -34t-81 34t-34 81h18q0 -41 28.5 -69t68.5 -28t68.5 28t28.5 69z" />
    <glyph glyph-name="gbreve" unicode="&#x11f;" horiz-adv-x="574" 
d="M384 645h18q0 -47 -34 -81t-81 -34t-81 34t-34 81h18q0 -41 28 -69t69 -28t69 28t28 69zM459 440h20v-435q0 -122 -27 -167q-53 -88 -174 -88q-70 0 -122.5 29t-81.5 71l16 12q24 -39 74 -66.5t114 -27.5q111 0 157 81q24 43 24 155v78q-21 -35 -69 -63.5t-112 -28.5
q-98 0 -160.5 65t-62.5 164q0 98 64.5 164.5t161.5 66.5q114 0 178 -89v79zM459 117v211q-28 48 -74 76t-102 28q-90 0 -149 -61t-59 -152t56.5 -151t146.5 -60q61 0 110 31t71 78z" />
    <glyph glyph-name="Gdotaccent" unicode="&#x120;" horiz-adv-x="750" 
d="M660 131v251h-269v18h289v-275q-44 -60 -117 -97.5t-160 -37.5q-156 0 -257 102.5t-101 257.5q0 153 99.5 256.5t249.5 103.5q74 0 139.5 -28.5t111.5 -79.5l-14 -13q-95 103 -237 103t-235.5 -99.5t-93.5 -242.5q0 -146 95 -244t243 -98q78 0 145.5 33.5t111.5 89.5z
M354 820q0 13 8.5 21.5t21.5 8.5t21.5 -8.5t8.5 -21.5t-8.5 -21.5t-21.5 -8.5t-21.5 8.5t-8.5 21.5z" />
    <glyph glyph-name="gdotaccent" unicode="&#x121;" horiz-adv-x="574" 
d="M257 600q0 13 8.5 21.5t21.5 8.5t21.5 -8.5t8.5 -21.5t-8.5 -21.5t-21.5 -8.5t-21.5 8.5t-8.5 21.5zM459 440h20v-435q0 -122 -27 -167q-53 -88 -174 -88q-70 0 -122.5 29t-81.5 71l16 12q24 -39 74 -66.5t114 -27.5q111 0 157 81q24 43 24 155v78q-21 -35 -69 -63.5
t-112 -28.5q-98 0 -160.5 65t-62.5 164q0 98 64.5 164.5t161.5 66.5q114 0 178 -89v79zM459 117v211q-28 48 -74 76t-102 28q-90 0 -149 -61t-59 -152t56.5 -151t146.5 -60q61 0 110 31t71 78z" />
    <glyph glyph-name="Gcommaaccent" unicode="&#x122;" horiz-adv-x="750" 
d="M660 131v251h-269v18h289v-275q-44 -60 -117 -97.5t-160 -37.5q-156 0 -257 102.5t-101 257.5q0 153 99.5 256.5t249.5 103.5q74 0 139.5 -28.5t111.5 -79.5l-14 -13q-95 103 -237 103t-235.5 -99.5t-93.5 -242.5q0 -146 95 -244t243 -98q78 0 145.5 33.5t111.5 89.5z
M403 -40h22l-97 -130h-22z" />
    <glyph glyph-name="gcommaaccent" unicode="&#x123;" horiz-adv-x="574" 
d="M351 650h22l-97 -130h-22zM459 440h20v-435q0 -122 -27 -167q-53 -88 -174 -88q-70 0 -122.5 29t-81.5 71l16 12q24 -39 74 -66.5t114 -27.5q111 0 157 81q24 43 24 155v78q-21 -35 -69 -63.5t-112 -28.5q-98 0 -160.5 65t-62.5 164q0 98 64.5 164.5t161.5 66.5
q114 0 178 -89v79zM459 117v211q-28 48 -74 76t-102 28q-90 0 -149 -61t-59 -152t56.5 -151t146.5 -60q61 0 110 31t71 78z" />
    <glyph glyph-name="Hcircumflex" unicode="&#x124;" horiz-adv-x="730" 
d="M110 400h510v300h20v-700h-20v382h-510v-382h-20v700h20v-300zM350 870h31l102 -130h-22l-96 121l-95 -121h-22z" />
    <glyph glyph-name="hcircumflex" unicode="&#x125;" horiz-adv-x="564" 
d="M100 880h31l102 -130h-22l-96 121l-95 -121h-22zM95 710h20v-357q70 97 179 97q83 0 137 -57q48 -51 48 -143v-250h-20v250q0 84 -44 131q-48 51 -121 51q-109 0 -179 -109v-323h-20v710z" />
    <glyph glyph-name="Hbar" unicode="&#x126;" horiz-adv-x="730" 
d="M10 580h80v120h20v-120h510v120h20v-120h80v-18h-80v-562h-20v382h-510v-382h-20v562h-80v18zM110 400h510v162h-510v-162z" />
    <glyph glyph-name="hbar" unicode="&#x127;" horiz-adv-x="564" 
d="M95 710h20v-130h130v-18h-130v-209q70 97 179 97q83 0 137 -57q48 -51 48 -143v-250h-20v250q0 84 -44 131q-48 51 -121 51q-109 0 -179 -109v-323h-20v562h-90v18h90v130z" />
    <glyph glyph-name="Itilde" unicode="&#x128;" horiz-adv-x="200" 
d="M90 0v700h20v-700h-20zM221 838l19 -3q-9 -72 -67 -72q-28 0 -75.5 29.5t-70.5 29.5q-41 0 -48 -57l-19 3q9 72 67 72q28 0 75.5 -29.5t70.5 -29.5q41 0 48 57z" />
    <glyph glyph-name="itilde" unicode="&#x129;" horiz-adv-x="210" 
d="M95 0v440h20v-440h-20zM226 618l19 -3q-9 -72 -67 -72q-28 0 -75.5 29.5t-70.5 29.5q-41 0 -48 -57l-19 3q9 72 67 72q28 0 75.5 -29.5t70.5 -29.5q41 0 48 57z" />
    <glyph glyph-name="Imacron" unicode="&#x12a;" horiz-adv-x="200" 
d="M90 0v700h20v-700h-20zM-20 801h240v-18h-240v18z" />
    <glyph glyph-name="imacron" unicode="&#x12b;" horiz-adv-x="210" 
d="M95 0v440h20v-440h-20zM-15 581h240v-18h-240v18z" />
    <glyph glyph-name="Ibreve" unicode="&#x12c;" horiz-adv-x="200" 
d="M90 0v700h20v-700h-20zM197 865h18q0 -47 -34 -81t-81 -34t-81 34t-34 81h18q0 -41 28.5 -69t68.5 -28t68.5 28t28.5 69z" />
    <glyph glyph-name="ibreve" unicode="&#x12d;" horiz-adv-x="210" 
d="M95 0v440h20v-440h-20zM202 645h18q0 -47 -34 -81t-81 -34t-81 34t-34 81h18q0 -41 28 -69t69 -28t69 28t28 69z" />
    <glyph glyph-name="Iogonek" unicode="&#x12e;" horiz-adv-x="200" 
d="M90 2v698h20v-700q-32 -55 -32 -105q0 -43 22 -70t61 -27q26 0 42 8l5 -17q-18 -9 -45 -9q-50 0 -77.5 31.5t-27.5 81.5q0 54 32 109z" />
    <glyph glyph-name="iogonek" unicode="&#x12f;" horiz-adv-x="210" 
d="M115 440v-440q-32 -55 -32 -105q0 -43 22 -70t61 -27q26 0 42 8l5 -17q-18 -9 -45 -9q-50 0 -77.5 31.5t-27.5 81.5q0 54 32 109v438h20zM75 600q0 13 8.5 21.5t21.5 8.5t21.5 -8.5t8.5 -21.5t-8.5 -21.5t-21.5 -8.5t-21.5 8.5t-8.5 21.5z" />
    <glyph glyph-name="Idotaccent" unicode="&#x130;" horiz-adv-x="200" 
d="M90 0v700h20v-700h-20zM70 820q0 13 8.5 21.5t21.5 8.5t21.5 -8.5t8.5 -21.5t-8.5 -21.5t-21.5 -8.5t-21.5 8.5t-8.5 21.5z" />
    <glyph glyph-name="dotlessi" unicode="&#x131;" horiz-adv-x="210" 
d="M95 0v440h20v-440h-20z" />
    <glyph glyph-name="IJ" unicode="&#x132;" horiz-adv-x="622" 
d="M90 0v700h20v-700h-20zM542 700v-515q0 -80 -33 -126q-51 -69 -142 -69q-54 0 -98 28.5t-64 76.5l18 8q17 -43 56.5 -69t87.5 -26q81 0 126 63q29 40 29 112v517h20z" />
    <glyph glyph-name="ij" unicode="&#x133;" horiz-adv-x="465" 
d="M95 0v440h20v-440h-20zM75 600q0 13 8.5 21.5t21.5 8.5t21.5 -8.5t8.5 -21.5t-8.5 -21.5t-21.5 -8.5t-21.5 8.5t-8.5 21.5zM330 600q0 13 8.5 21.5t21.5 8.5t21.5 -8.5t8.5 -21.5t-8.5 -21.5t-21.5 -8.5t-21.5 8.5t-8.5 21.5zM190 -244l4 17q14 -5 37 -5q70 0 101 54
q18 31 18 108v513h20v-512q0 -82 -20 -118q-34 -63 -117 -63q-25 0 -43 6z" />
    <glyph glyph-name="Jcircumflex" unicode="&#x134;" horiz-adv-x="422" 
d="M342 700v-515q0 -80 -33 -126q-51 -69 -142 -69q-54 0 -98 28.5t-64 76.5l18 8q17 -43 56.5 -69t87.5 -26q81 0 126 63q29 40 29 112v517h20zM301 870h31l102 -130h-22l-96 121l-95 -121h-22z" />
    <glyph glyph-name="jcircumflex" unicode="&#x135;" horiz-adv-x="255" 
d="M119 650h31l102 -130h-22l-96 121l-95 -121h-22zM-20 -244l4 17q14 -5 37 -5q70 0 101 54q18 31 18 108v513h20v-512q0 -82 -20 -118q-34 -63 -117 -63q-25 0 -43 6z" />
    <glyph glyph-name="Kcommaaccent" unicode="&#x136;" horiz-adv-x="590" 
d="M560 0h-30l-420 369v-369h-20v700h20v-319l398 319h31l-406 -327zM293 -40h22l-97 -130h-22z" />
    <glyph glyph-name="kcommaaccent" unicode="&#x137;" horiz-adv-x="468" 
d="M453 0h-30l-308 230v-230h-20v710h20v-467l272 197h31l-280 -203zM263 -40h22l-97 -130h-22z" />
    <glyph glyph-name="kgreenlandic" unicode="&#x138;" horiz-adv-x="468" 
d="M453 0h-30l-308 230v-230h-20v440h20v-197l272 197h31l-280 -203z" />
    <glyph glyph-name="Lacute" unicode="&#x139;" horiz-adv-x="495" 
d="M110 700v-682h350v-18h-370v700h20zM184 870h22l-97 -130h-22z" />
    <glyph glyph-name="lacute" unicode="&#x13a;" horiz-adv-x="210" 
d="M95 0v710h20v-710h-20zM190 880h22l-97 -130h-22z" />
    <glyph glyph-name="Lcommaaccent" unicode="&#x13b;" horiz-adv-x="495" 
d="M110 700v-682h350v-18h-370v700h20zM283 -40h22l-97 -130h-22z" />
    <glyph glyph-name="lcommaaccent" unicode="&#x13c;" horiz-adv-x="210" 
d="M95 0v710h20v-710h-20zM95 -40h22l-97 -130h-22z" />
    <glyph glyph-name="Lcaron" unicode="&#x13d;" horiz-adv-x="495" 
d="M110 700v-682h350v-18h-370v700h20zM267 700h22l-97 -130h-22z" />
    <glyph glyph-name="lcaron" unicode="&#x13e;" horiz-adv-x="240" 
d="M95 0v710h20v-710h-20zM252 700h22l-97 -130h-22z" />
    <glyph glyph-name="Ldot" unicode="&#x13f;" horiz-adv-x="495" 
d="M110 700v-682h350v-18h-370v700h20zM210 350q0 13 8.5 21.5t21.5 8.5t21.5 -8.5t8.5 -21.5t-8.5 -21.5t-21.5 -8.5t-21.5 8.5t-8.5 21.5z" />
    <glyph glyph-name="ldot" unicode="&#x140;" horiz-adv-x="210" 
d="M95 0v710h20v-710h-20zM165 350q0 13 8.5 21.5t21.5 8.5t21.5 -8.5t8.5 -21.5t-8.5 -21.5t-21.5 -8.5t-21.5 8.5t-8.5 21.5z" />
    <glyph glyph-name="Lslash" unicode="&#x141;" horiz-adv-x="495" 
d="M110 700v-293l150 87v-20l-150 -87v-369h350v-18h-370v376l-100 -58v20l100 58v304h20z" />
    <glyph glyph-name="lslash" unicode="&#x142;" horiz-adv-x="200" 
d="M90 0v376l-100 -58v20l100 58v314h20v-303l100 58v-20l-100 -58v-387h-20z" />
    <glyph glyph-name="Nacute" unicode="&#x143;" horiz-adv-x="730" 
d="M90 0v700h10l520 -656v656h20v-700h-10l-520 656v-656h-20zM428 870h22l-97 -130h-22z" />
    <glyph glyph-name="nacute" unicode="&#x144;" horiz-adv-x="564" 
d="M359 650h22l-97 -130h-22zM95 440h20v-87q70 97 179 97q83 0 137 -57q48 -51 48 -143v-250h-20v250q0 84 -44 131q-48 51 -121 51q-109 0 -179 -109v-323h-20v440z" />
    <glyph glyph-name="Ncommaaccent" unicode="&#x145;" horiz-adv-x="730" 
d="M90 0v700h10l520 -656v656h20v-700h-10l-520 656v-656h-20zM353 -40h22l-97 -130h-22z" />
    <glyph glyph-name="ncommaaccent" unicode="&#x146;" horiz-adv-x="564" 
d="M283 -40h22l-97 -130h-22zM95 440h20v-87q70 97 179 97q83 0 137 -57q48 -51 48 -143v-250h-20v250q0 84 -44 131q-48 51 -121 51q-109 0 -179 -109v-323h-20v440z" />
    <glyph glyph-name="Ncaron" unicode="&#x147;" horiz-adv-x="730" 
d="M90 0v700h10l520 -656v656h20v-700h-10l-520 656v-656h-20zM373 740h-31l-102 130h22l95 -121l96 121h22z" />
    <glyph glyph-name="ncaron" unicode="&#x148;" horiz-adv-x="564" 
d="M307 520h-31l-102 130h22l95 -121l96 121h22zM95 440h20v-87q70 97 179 97q83 0 137 -57q48 -51 48 -143v-250h-20v250q0 84 -44 131q-48 51 -121 51q-109 0 -179 -109v-323h-20v440z" />
    <glyph glyph-name="napostrophe" unicode="&#x149;" horiz-adv-x="564" 
d="M192 700h22l-97 -130h-22zM95 440h20v-87q70 97 179 97q83 0 137 -57q48 -51 48 -143v-250h-20v250q0 84 -44 131q-48 51 -121 51q-109 0 -179 -109v-323h-20v440z" />
    <glyph glyph-name="Eng" unicode="&#x14a;" horiz-adv-x="730" 
d="M90 0v700h10l520 -656v656h20v-755q0 -80 -33 -126q-51 -69 -142 -69q-54 0 -98 28.5t-64 76.5l18 8q17 -43 56.5 -69t87.5 -26q81 0 126 63q29 40 29 112v69l-510 644v-656h-20z" />
    <glyph glyph-name="eng" unicode="&#x14b;" horiz-adv-x="564" 
d="M95 440h20v-87q70 97 179 97q83 0 137 -57q48 -51 48 -143v-319q0 -82 -20 -118q-34 -63 -117 -63q-37 0 -73 16l7 17q30 -15 64 -15q70 0 101 54q18 31 18 108v320q0 84 -44 131q-48 51 -121 51q-109 0 -179 -109v-323h-20v440z" />
    <glyph glyph-name="Omacron" unicode="&#x14c;" horiz-adv-x="782" 
d="M65 350q0 -145 92.5 -243.5t233.5 -98.5t233.5 98.5t92.5 243.5t-92.5 243.5t-233.5 98.5t-233.5 -98.5t-92.5 -243.5zM45 350q0 153 99 256.5t247 103.5t247 -103.5t99 -256.5t-99 -256.5t-247 -103.5t-247 103.5t-99 256.5zM271 801h240v-18h-240v18z" />
    <glyph glyph-name="omacron" unicode="&#x14d;" horiz-adv-x="558" 
d="M159 581h240v-18h-240v18zM483 220q0 89 -58.5 150.5t-145.5 61.5t-145.5 -61.5t-58.5 -150.5t58.5 -150.5t145.5 -61.5t145.5 61.5t58.5 150.5zM55 220q0 96 64 163t160 67t160 -67t64 -163t-64 -163t-160 -67t-160 67t-64 163z" />
    <glyph glyph-name="Obreve" unicode="&#x14e;" horiz-adv-x="782" 
d="M65 350q0 -145 92.5 -243.5t233.5 -98.5t233.5 98.5t92.5 243.5t-92.5 243.5t-233.5 98.5t-233.5 -98.5t-92.5 -243.5zM45 350q0 153 99 256.5t247 103.5t247 -103.5t99 -256.5t-99 -256.5t-247 -103.5t-247 103.5t-99 256.5zM488 865h18q0 -47 -34 -81t-81 -34t-81 34
t-34 81h18q0 -41 28 -69t69 -28t69 28t28 69z" />
    <glyph glyph-name="obreve" unicode="&#x14f;" horiz-adv-x="558" 
d="M483 220q0 89 -58.5 150.5t-145.5 61.5t-145.5 -61.5t-58.5 -150.5t58.5 -150.5t145.5 -61.5t145.5 61.5t58.5 150.5zM55 220q0 96 64 163t160 67t160 -67t64 -163t-64 -163t-160 -67t-160 67t-64 163zM376 645h18q0 -47 -34 -81t-81 -34t-81 34t-34 81h18q0 -41 28 -69
t69 -28t69 28t28 69z" />
    <glyph glyph-name="Ohungarumlaut" unicode="&#x150;" horiz-adv-x="782" 
d="M65 350q0 -145 92.5 -243.5t233.5 -98.5t233.5 98.5t92.5 243.5t-92.5 243.5t-233.5 98.5t-233.5 -98.5t-92.5 -243.5zM45 350q0 153 99 256.5t247 103.5t247 -103.5t99 -256.5t-99 -256.5t-247 -103.5t-247 103.5t-99 256.5zM416 870h22l-97 -130h-22zM536 870h22
l-97 -130h-22z" />
    <glyph glyph-name="ohungarumlaut" unicode="&#x151;" horiz-adv-x="558" 
d="M483 220q0 89 -58.5 150.5t-145.5 61.5t-145.5 -61.5t-58.5 -150.5t58.5 -150.5t145.5 -61.5t145.5 61.5t58.5 150.5zM55 220q0 96 64 163t160 67t160 -67t64 -163t-64 -163t-160 -67t-160 67t-64 163zM306 650h22l-97 -130h-22zM426 650h22l-97 -130h-22z" />
    <glyph glyph-name="OE" unicode="&#x152;" horiz-adv-x="1132" 
d="M717 700h360v-18h-340v-282h270v-18h-270v-364h350v-18h-370v225q-36 -106 -123.5 -170.5t-202.5 -64.5q-148 0 -247 103.5t-99 256.5t99 256.5t247 103.5q115 0 202.5 -64.5t123.5 -170.5v225zM65 350q0 -145 92.5 -243.5t233.5 -98.5t233.5 98.5t92.5 243.5
t-92.5 243.5t-233.5 98.5t-233.5 -98.5t-92.5 -243.5z" />
    <glyph glyph-name="oe" unicode="&#x153;" horiz-adv-x="954" 
d="M55 220q0 96 64 163t160 67q77 0 134.5 -45t78.5 -116q19 72 71.5 116.5t127.5 44.5q90 0 147.5 -62.5t60.5 -154.5h-396v-12q0 -92 54 -152.5t147 -60.5q100 0 162 72l14 -14q-67 -76 -176 -76q-82 0 -137.5 44.5t-74.5 116.5q-21 -71 -78.5 -116t-134.5 -45
q-96 0 -160 67t-64 163zM483 220q0 89 -58.5 150.5t-145.5 61.5t-145.5 -61.5t-58.5 -150.5t58.5 -150.5t145.5 -61.5t145.5 61.5t58.5 150.5zM691 432q-75 0 -125.5 -50t-60.5 -131h371q-6 77 -57 129t-128 52z" />
    <glyph glyph-name="Racute" unicode="&#x154;" horiz-adv-x="595" 
d="M267 382h-157v-382h-20v700h231q77 0 121 -36q58 -47 58 -123t-58 -123q-44 -36 -121 -36h-30l289 -382h-24zM110 400h209q72 0 112 34q49 42 49 107t-49 107q-40 34 -112 34h-209v-282zM338 870h22l-97 -130h-22z" />
    <glyph glyph-name="racute" unicode="&#x155;" horiz-adv-x="310" 
d="M237 650h22l-97 -130h-22zM275 449l-2 -18q-6 1 -12 1q-99 0 -146 -112v-320h-20v440h20v-80q19 41 57 65.5t88 24.5q7 0 15 -1z" />
    <glyph glyph-name="Rcommaaccent" unicode="&#x156;" horiz-adv-x="595" 
d="M267 382h-157v-382h-20v700h231q77 0 121 -36q58 -47 58 -123t-58 -123q-44 -36 -121 -36h-30l289 -382h-24zM110 400h209q72 0 112 34q49 42 49 107t-49 107q-40 34 -112 34h-209v-282zM303 -40h22l-97 -130h-22z" />
    <glyph glyph-name="rcommaaccent" unicode="&#x157;" horiz-adv-x="310" 
d="M93 -40h22l-97 -130h-22zM275 449l-2 -18q-6 1 -12 1q-99 0 -146 -112v-320h-20v440h20v-80q19 41 57 65.5t88 24.5q7 0 15 -1z" />
    <glyph glyph-name="Rcaron" unicode="&#x158;" horiz-adv-x="595" 
d="M267 382h-157v-382h-20v700h231q77 0 121 -36q58 -47 58 -123t-58 -123q-44 -36 -121 -36h-30l289 -382h-24zM110 400h209q72 0 112 34q49 42 49 107t-49 107q-40 34 -112 34h-209v-282zM291 740h-31l-102 130h22l95 -121l96 121h22z" />
    <glyph glyph-name="rcaron" unicode="&#x159;" horiz-adv-x="310" 
d="M196 520h-31l-102 130h22l95 -121l96 121h22zM275 449l-2 -18q-6 1 -12 1q-99 0 -146 -112v-320h-20v440h20v-80q19 41 57 65.5t88 24.5q7 0 15 -1z" />
    <glyph glyph-name="Sacute" unicode="&#x15a;" horiz-adv-x="525" 
d="M45 110l16 12q73 -114 207 -114q73 0 125 45t52 119q0 102 -114 156q-20 9 -55 22.5l-59 23t-52.5 26t-46 33.5t-29.5 44t-12 60q0 84 59.5 128.5t128.5 44.5q100 0 170 -70l-13 -14q-63 66 -157 66q-62 0 -115 -40.5t-53 -114.5q0 -35 13.5 -62t42 -46t53 -30.5
t67 -27.5t63.5 -25q129 -56 129 -174q0 -80 -56.5 -131t-141.5 -51q-139 0 -222 120zM328 870h22l-97 -130h-22z" />
    <glyph glyph-name="sacute" unicode="&#x15b;" horiz-adv-x="413" 
d="M55 55l14 13q63 -60 143 -60q49 0 85 29t36 74q0 37 -27 61t-65.5 36.5l-77.5 25t-66 38t-27 64.5q0 52 38.5 83t95.5 31q73 0 131 -48l-13 -14q-49 44 -118 44q-45 0 -79.5 -25t-34.5 -71q0 -34 27 -55.5t66 -33.5t77.5 -25.5t65.5 -41t27 -69.5q0 -50 -40 -85.5
t-101 -35.5q-92 0 -157 65zM254 650h22l-97 -130h-22z" />
    <glyph glyph-name="Scircumflex" unicode="&#x15c;" horiz-adv-x="525" 
d="M45 110l16 12q73 -114 207 -114q73 0 125 45t52 119q0 102 -114 156q-20 9 -55 22.5l-59 23t-52.5 26t-46 33.5t-29.5 44t-12 60q0 84 59.5 128.5t128.5 44.5q100 0 170 -70l-13 -14q-63 66 -157 66q-62 0 -115 -40.5t-53 -114.5q0 -35 13.5 -62t42 -46t53 -30.5
t67 -27.5t63.5 -25q129 -56 129 -174q0 -80 -56.5 -131t-141.5 -51q-139 0 -222 120zM245 870h31l102 -130h-22l-96 121l-95 -121h-22z" />
    <glyph glyph-name="scircumflex" unicode="&#x15d;" horiz-adv-x="413" 
d="M55 55l14 13q63 -60 143 -60q49 0 85 29t36 74q0 37 -27 61t-65.5 36.5l-77.5 25t-66 38t-27 64.5q0 52 38.5 83t95.5 31q73 0 131 -48l-13 -14q-49 44 -118 44q-45 0 -79.5 -25t-34.5 -71q0 -34 27 -55.5t66 -33.5t77.5 -25.5t65.5 -41t27 -69.5q0 -50 -40 -85.5
t-101 -35.5q-92 0 -157 65zM192 650h31l102 -130h-22l-96 121l-95 -121h-22z" />
    <glyph glyph-name="Scedilla" unicode="&#x15e;" horiz-adv-x="525" 
d="M230 -140l37 130q-139 0 -222 120l16 12q73 -114 207 -114q73 0 125 45t52 119q0 102 -114 156q-20 9 -55 22.5l-59 23t-52.5 26t-46 33.5t-29.5 44t-12 60q0 84 59.5 128.5t128.5 44.5q100 0 170 -70l-13 -14q-63 66 -157 66q-62 0 -115 -40.5t-53 -114.5
q0 -35 13.5 -62t42 -46t53 -30.5t67 -27.5t63.5 -25q129 -56 129 -174q0 -75 -50.5 -125t-128.5 -56l-37 -131h-19z" />
    <glyph glyph-name="scedilla" unicode="&#x15f;" horiz-adv-x="413" 
d="M55 55l14 13q63 -60 143 -60q49 0 85 29t36 74q0 37 -27 61t-65.5 36.5l-77.5 25t-66 38t-27 64.5q0 52 38.5 83t95.5 31q73 0 131 -48l-13 -14q-49 44 -118 44q-45 0 -79.5 -25t-34.5 -71q0 -34 27 -55.5t66 -33.5t77.5 -25.5t65.5 -41t27 -69.5q0 -50 -40 -85.5
t-101 -35.5q-92 0 -157 65zM167 -140l40 140h19l-40 -140h-19z" />
    <glyph glyph-name="Scaron" unicode="&#x160;" horiz-adv-x="525" 
d="M278 740h-31l-102 130h22l95 -121l96 121h22zM45 110l16 12q73 -114 207 -114q73 0 125 45t52 119q0 102 -114 156q-20 9 -55 22.5l-59 23t-52.5 26t-46 33.5t-29.5 44t-12 60q0 84 59.5 128.5t128.5 44.5q100 0 170 -70l-13 -14q-63 66 -157 66q-62 0 -115 -40.5
t-53 -114.5q0 -35 13.5 -62t42 -46t53 -30.5t67 -27.5t63.5 -25q129 -56 129 -174q0 -80 -56.5 -131t-141.5 -51q-139 0 -222 120z" />
    <glyph glyph-name="scaron" unicode="&#x161;" horiz-adv-x="413" 
d="M55 55l14 13q63 -60 143 -60q49 0 85 29t36 74q0 37 -27 61t-65.5 36.5l-77.5 25t-66 38t-27 64.5q0 52 38.5 83t95.5 31q73 0 131 -48l-13 -14q-49 44 -118 44q-45 0 -79.5 -25t-34.5 -71q0 -34 27 -55.5t66 -33.5t77.5 -25.5t65.5 -41t27 -69.5q0 -50 -40 -85.5
t-101 -35.5q-92 0 -157 65zM218 520h-31l-102 130h22l95 -121l96 121h22z" />
    <glyph glyph-name="Tcommaaccent" unicode="&#x162;" horiz-adv-x="500" 
d="M20 682v18h460v-18h-220v-682h-20v682h-220zM240 -40h22l-97 -130h-22z" />
    <glyph glyph-name="tcommaaccent" unicode="&#x163;" horiz-adv-x="365" 
d="M250 -40h22l-97 -130h-22zM335 18l5 -18q-27 -10 -68 -10q-81 0 -115 56q-17 28 -17 74v302h-130v18h130v130h20v-130h180v-18h-180v-304q0 -38 14 -61q28 -49 97 -49q33 0 64 10z" />
    <glyph glyph-name="Tcaron" unicode="&#x164;" horiz-adv-x="500" 
d="M20 682v18h460v-18h-220v-682h-20v682h-220zM265 740h-31l-102 130h22l95 -121l96 121h22z" />
    <glyph glyph-name="tcaron" unicode="&#x165;" horiz-adv-x="365" 
d="M296 700h22l-97 -130h-22zM335 18l5 -18q-27 -10 -68 -10q-81 0 -115 56q-17 28 -17 74v302h-130v18h130v130h20v-130h180v-18h-180v-304q0 -38 14 -61q28 -49 97 -49q33 0 64 10z" />
    <glyph glyph-name="Tbar" unicode="&#x166;" horiz-adv-x="500" 
d="M240 0v382h-160v18h160v282h-220v18h460v-18h-220v-282h160v-18h-160v-382h-20z" />
    <glyph glyph-name="tbar" unicode="&#x167;" horiz-adv-x="365" 
d="M335 18l5 -18q-27 -10 -68 -10q-81 0 -115 56q-17 28 -17 74v112h-130v18h130v172h-130v18h130v130h20v-130h180v-18h-180v-172h180v-18h-180v-114q0 -38 14 -61q28 -49 97 -49q33 0 64 10z" />
    <glyph glyph-name="Utilde" unicode="&#x168;" horiz-adv-x="700" 
d="M350 -10q-76 0 -139 36t-98 97q-33 58 -33 147v430h20v-432q0 -82 30 -136q32 -57 90.5 -90.5t129.5 -33.5t129.5 33.5t90.5 90.5q30 54 30 136v432h20v-430q0 -89 -33 -147q-35 -61 -98 -97t-139 -36zM471 838l19 -3q-9 -72 -67 -72q-28 0 -75.5 29.5t-70.5 29.5
q-41 0 -48 -57l-19 3q9 72 67 72q28 0 75.5 -29.5t70.5 -29.5q41 0 48 57z" />
    <glyph glyph-name="utilde" unicode="&#x169;" horiz-adv-x="559" 
d="M400 618l19 -3q-9 -72 -67 -72q-28 0 -75.5 29.5t-70.5 29.5q-41 0 -48 -57l-19 3q9 72 67 72q28 0 75.5 -29.5t70.5 -29.5q41 0 48 57zM464 0h-20v87q-72 -97 -182 -97q-77 0 -130 56q-47 50 -47 144v250h20v-250q0 -86 43 -132q47 -50 114 -50q109 0 182 109v323h20
v-440z" />
    <glyph glyph-name="Umacron" unicode="&#x16a;" horiz-adv-x="700" 
d="M350 -10q-76 0 -139 36t-98 97q-33 58 -33 147v430h20v-432q0 -82 30 -136q32 -57 90.5 -90.5t129.5 -33.5t129.5 33.5t90.5 90.5q30 54 30 136v432h20v-430q0 -89 -33 -147q-35 -61 -98 -97t-139 -36zM230 801h240v-18h-240v18z" />
    <glyph glyph-name="umacron" unicode="&#x16b;" horiz-adv-x="559" 
d="M154 581h240v-18h-240v18zM464 0h-20v87q-72 -97 -182 -97q-77 0 -130 56q-47 50 -47 144v250h20v-250q0 -86 43 -132q47 -50 114 -50q109 0 182 109v323h20v-440z" />
    <glyph glyph-name="Ubreve" unicode="&#x16c;" horiz-adv-x="700" 
d="M350 -10q-76 0 -139 36t-98 97q-33 58 -33 147v430h20v-432q0 -82 30 -136q32 -57 90.5 -90.5t129.5 -33.5t129.5 33.5t90.5 90.5q30 54 30 136v432h20v-430q0 -89 -33 -147q-35 -61 -98 -97t-139 -36zM447 865h18q0 -47 -34 -81t-81 -34t-81 34t-34 81h18
q0 -41 28.5 -69t68.5 -28t68.5 28t28.5 69z" />
    <glyph glyph-name="ubreve" unicode="&#x16d;" horiz-adv-x="559" 
d="M371 645h18q0 -47 -34 -81t-81 -34t-81 34t-34 81h18q0 -41 28.5 -69t68.5 -28t68.5 28t28.5 69zM464 0h-20v87q-72 -97 -182 -97q-77 0 -130 56q-47 50 -47 144v250h20v-250q0 -86 43 -132q47 -50 114 -50q109 0 182 109v323h20v-440z" />
    <glyph glyph-name="Uring" unicode="&#x16e;" horiz-adv-x="700" 
d="M350 -10q-76 0 -139 36t-98 97q-33 58 -33 147v430h20v-432q0 -82 30 -136q32 -57 90.5 -90.5t129.5 -33.5t129.5 33.5t90.5 90.5q30 54 30 136v432h20v-430q0 -89 -33 -147q-35 -61 -98 -97t-139 -36zM270 820q0 33 23.5 56.5t56.5 23.5t56.5 -23.5t23.5 -56.5
t-23.5 -56.5t-56.5 -23.5t-56.5 23.5t-23.5 56.5zM288 820q0 -26 18 -44t44 -18t44 18t18 44t-18 44t-44 18t-44 -18t-18 -44z" />
    <glyph glyph-name="uring" unicode="&#x16f;" horiz-adv-x="559" 
d="M199 600q0 33 23.5 56.5t56.5 23.5t56.5 -23.5t23.5 -56.5t-23.5 -56.5t-56.5 -23.5t-56.5 23.5t-23.5 56.5zM217 600q0 -26 18.5 -44t43.5 -18t43.5 18t18.5 44t-18.5 44t-43.5 18t-43.5 -18t-18.5 -44zM464 0h-20v87q-72 -97 -182 -97q-77 0 -130 56q-47 50 -47 144
v250h20v-250q0 -86 43 -132q47 -50 114 -50q109 0 182 109v323h20v-440z" />
    <glyph glyph-name="Uhungarumlaut" unicode="&#x170;" horiz-adv-x="700" 
d="M350 -10q-76 0 -139 36t-98 97q-33 58 -33 147v430h20v-432q0 -82 30 -136q32 -57 90.5 -90.5t129.5 -33.5t129.5 33.5t90.5 90.5q30 54 30 136v432h20v-430q0 -89 -33 -147q-35 -61 -98 -97t-139 -36zM366 870h22l-97 -130h-22zM486 870h22l-97 -130h-22z" />
    <glyph glyph-name="uhungarumlaut" unicode="&#x171;" horiz-adv-x="559" 
d="M296 650h22l-97 -130h-22zM416 650h22l-97 -130h-22zM464 0h-20v87q-72 -97 -182 -97q-77 0 -130 56q-47 50 -47 144v250h20v-250q0 -86 43 -132q47 -50 114 -50q109 0 182 109v323h20v-440z" />
    <glyph glyph-name="Uogonek" unicode="&#x172;" horiz-adv-x="700" 
d="M350 -10q-76 0 -139 36t-98 97q-33 58 -33 147v430h20v-432q0 -82 30 -136q32 -57 90.5 -90.5t129.5 -33.5t129.5 33.5t90.5 90.5q30 54 30 136v432h20v-430q0 -89 -33 -147q-29 -51 -79 -85t-110 -44q-28 -53 -28 -99q0 -43 22 -70t61 -27q26 0 42 8l5 -17
q-18 -9 -45 -9q-50 0 -77.5 31.5t-27.5 81.5q0 46 26 98q-9 -1 -26 -1z" />
    <glyph glyph-name="uogonek" unicode="&#x173;" horiz-adv-x="559" 
d="M464 0q-32 -55 -32 -105q0 -43 22 -70t61 -27q26 0 42 8l5 -17q-18 -9 -45 -9q-50 0 -77.5 31.5t-27.5 81.5q0 54 32 109v85q-72 -97 -182 -97q-77 0 -130 56q-47 50 -47 144v250h20v-250q0 -86 43 -132q47 -50 114 -50q109 0 182 109v323h20v-440z" />
    <glyph glyph-name="Wcircumflex" unicode="&#x174;" horiz-adv-x="920" 
d="M460 650l-202 -650h-10l-228 700h20l213 -653l202 653h10l202 -653l213 653h20l-228 -700h-10zM445 870h31l102 -130h-22l-96 121l-95 -121h-22z" />
    <glyph glyph-name="wcircumflex" unicode="&#x175;" horiz-adv-x="734" 
d="M521 0l-154 400l-154 -400h-10l-178 440h20l163 -404l154 404h10l154 -404l163 404h20l-178 -440h-10zM352 650h31l102 -130h-22l-96 121l-95 -121h-22z" />
    <glyph glyph-name="Ycircumflex" unicode="&#x176;" horiz-adv-x="530" 
d="M255 0v345l-235 355h23l222 -335l222 335h23l-235 -355v-345h-20zM250 870h31l102 -130h-22l-96 121l-95 -121h-22z" />
    <glyph glyph-name="ycircumflex" unicode="&#x177;" horiz-adv-x="452" 
d="M410 440h22l-322 -682h-22l137 291l-205 391h21l195 -368zM210 650h31l102 -130h-22l-96 121l-95 -121h-22z" />
    <glyph glyph-name="Ydieresis" unicode="&#x178;" horiz-adv-x="530" 
d="M255 0v345l-235 355h23l222 -335l222 335h23l-235 -355v-345h-20zM165 800q0 13 8.5 21.5t21.5 8.5t21.5 -8.5t8.5 -21.5t-8.5 -21.5t-21.5 -8.5t-21.5 8.5t-8.5 21.5zM305 800q0 13 8.5 21.5t21.5 8.5t21.5 -8.5t8.5 -21.5t-8.5 -21.5t-21.5 -8.5t-21.5 8.5t-8.5 21.5z
" />
    <glyph glyph-name="Zacute" unicode="&#x179;" 
d="M40 0v10l451 672h-421v18h450v-10l-451 -672h471v-18h-500zM372 870h22l-97 -130h-22z" />
    <glyph glyph-name="zacute" unicode="&#x17a;" horiz-adv-x="445" 
d="M66 18h349v-18h-380v10l329 412h-309v18h340v-10zM290 650h22l-97 -130h-22z" />
    <glyph glyph-name="Zdotaccent" unicode="&#x17b;" 
d="M265 820q0 13 8.5 21.5t21.5 8.5t21.5 -8.5t8.5 -21.5t-8.5 -21.5t-21.5 -8.5t-21.5 8.5t-8.5 21.5zM40 0v10l451 672h-421v18h450v-10l-451 -672h471v-18h-500z" />
    <glyph glyph-name="zdotaccent" unicode="&#x17c;" horiz-adv-x="445" 
d="M66 18h349v-18h-380v10l329 412h-309v18h340v-10zM192 600q0 13 8.5 21.5t21.5 8.5t21.5 -8.5t8.5 -21.5t-8.5 -21.5t-21.5 -8.5t-21.5 8.5t-8.5 21.5z" />
    <glyph glyph-name="Zcaron" unicode="&#x17d;" 
d="M40 0v10l451 672h-421v18h450v-10l-451 -672h471v-18h-500zM306 740h-31l-102 130h22l95 -121l96 121h22z" />
    <glyph glyph-name="zcaron" unicode="&#x17e;" horiz-adv-x="445" 
d="M66 18h349v-18h-380v10l329 412h-309v18h340v-10zM241 520h-31l-102 130h22l95 -121l96 121h22z" />
    <glyph glyph-name="longs" unicode="&#x17f;" horiz-adv-x="330" 
d="M95 0v519q0 62 7.5 96t30.5 59q42 46 111 46q47 0 91 -25l-10 -15q-37 22 -79 22q-61 0 -99 -42q-20 -22 -26 -53.5t-6 -88.5v-518h-20z" />
    <glyph glyph-name="uni018F" unicode="&#x18f;" horiz-adv-x="741" 
d="M371 8q126 0 208.5 85t96.5 219h-610q10 -128 92.5 -216t212.5 -88zM90 570l-15 13q47 59 119 93t153 34q161 0 255 -104t94 -258q0 -151 -90 -254.5t-235 -103.5q-142 0 -231.5 97.5t-94.5 242.5h631v19q0 147 -89.5 245t-239.5 98q-79 0 -146.5 -33.5t-110.5 -88.5z
" />
    <glyph glyph-name="florin" unicode="&#x192;" horiz-adv-x="482" 
d="M253 559q-19 -86 -32 -178h166v-18h-169q-8 -51 -19.5 -143.5t-23 -170.5t-27.5 -153q-16 -74 -60 -111q-43 -35 -102 -35q-43 0 -82 21l9 17q34 -20 73 -20q51 0 88 31q40 32 55 102q16 75 27.5 149.5t24 172t18.5 140.5h-134v18h136q17 111 33 183q16 74 60 111
q43 35 102 35q43 0 82 -21l-9 -17q-34 20 -73 20q-51 0 -88 -31q-40 -32 -55 -102z" />
    <glyph glyph-name="uni01B5" unicode="&#x1b5;" 
d="M135 400h166l190 282h-421v18h450v-10l-195 -290h130v-18h-142l-244 -364h471v-18h-500v10l249 372h-154v18z" />
    <glyph glyph-name="uni01B6" unicode="&#x1b6;" horiz-adv-x="445" 
d="M66 18h349v-18h-380v10l177 222h-127v18h142l137 172h-309v18h340v-10l-144 -180h114v-18h-128z" />
    <glyph glyph-name="Aringacute" unicode="&#x1fa;" horiz-adv-x="620" 
d="M230 820q0 33 23.5 56.5t56.5 23.5t56.5 -23.5t23.5 -56.5t-23.5 -56.5t-56.5 -23.5t-56.5 23.5t-23.5 56.5zM248 820q0 -26 18 -44t44 -18t44 18t18 44t-18 44t-44 18t-44 -18t-18 -44zM402 1070h22l-97 -130h-22zM595 0l-103 239h-365l-102 -239h-20l300 700h10
l300 -700h-20zM310 665l-175 -408h350z" />
    <glyph glyph-name="aringacute" unicode="&#x1fb;" horiz-adv-x="574" 
d="M217 600q0 33 23.5 56.5t56.5 23.5t56.5 -23.5t23.5 -56.5t-23.5 -56.5t-56.5 -23.5t-56.5 23.5t-23.5 56.5zM235 600q0 -26 18.5 -44t43.5 -18t43.5 18t18.5 44t-18.5 44t-43.5 18t-43.5 -18t-18.5 -44zM371 880h22l-97 -130h-22zM459 440h20v-440h-20v82
q-21 -35 -69 -63.5t-112 -28.5q-98 0 -160.5 65t-62.5 164q0 98 64.5 164.5t161.5 66.5q114 0 178 -89v79zM459 117v211q-28 48 -74 76t-102 28q-90 0 -149 -61t-59 -152t56.5 -151t146.5 -60q61 0 110 31t71 78z" />
    <glyph glyph-name="AEacute" unicode="&#x1fc;" horiz-adv-x="845" 
d="M544 870h22l-97 -130h-22zM417 700h373v-18h-340v-282h270v-18h-270v-364h350v-18h-370v239h-280l-149 -239h-21zM162 257h268v428z" />
    <glyph glyph-name="aeacute" unicode="&#x1fd;" horiz-adv-x="930" 
d="M554 650h22l-97 -130h-22zM459 440h20v-119q24 59 73 94t115 35q90 0 147.5 -62.5t60.5 -154.5h-396v-21q2 -88 56.5 -146t144.5 -58q100 0 162 72l14 -14q-67 -76 -176 -76q-73 0 -125 35t-76 95v-120h-20v82q-21 -35 -69 -63.5t-112 -28.5q-98 0 -160.5 65t-62.5 164
q0 98 64.5 164.5t161.5 66.5q114 0 178 -89v79zM459 117v211q-28 48 -74 76t-102 28q-90 0 -149 -61t-59 -152t56.5 -151t146.5 -60q61 0 110 31t71 78zM667 432q-75 0 -125.5 -50t-60.5 -131h371q-6 77 -57 129t-128 52z" />
    <glyph glyph-name="Oslashacute" unicode="&#x1fe;" horiz-adv-x="782" 
d="M465 870h22l-97 -130h-22zM45 350q0 153 99 256.5t247 103.5q110 0 198 -61l43 61h22l-51 -72q63 -49 98.5 -124t35.5 -164q0 -153 -99 -256.5t-247 -103.5q-112 0 -198 61l-43 -61h-22l50 72q-63 50 -98 124.5t-35 163.5zM65 350q0 -83 33 -154.5t91 -118.5l389 556
q-83 59 -187 59q-141 0 -233.5 -98.5t-92.5 -243.5zM717 350q0 83 -33 154t-92 118l-388 -556q82 -58 187 -58q141 0 233.5 98.5t92.5 243.5z" />
    <glyph glyph-name="oslashacute" unicode="&#x1ff;" horiz-adv-x="558" 
d="M351 650h22l-97 -130h-22zM55 220q0 96 64 163t160 67q68 0 123 -37l26 37h22l-33 -47q40 -32 63 -80t23 -103q0 -96 -64 -163t-160 -67q-69 0 -124 36l-25 -36h-22l32 47q-85 67 -85 183zM483 220q0 103 -77 167l-240 -345q49 -34 113 -34q87 0 145.5 61.5t58.5 150.5z
M75 220q0 -104 76 -167l241 345q-52 34 -113 34q-87 0 -145.5 -61.5t-58.5 -150.5z" />
    <glyph glyph-name="Scommaaccent" unicode="&#x218;" horiz-adv-x="525" 
d="M45 110l16 12q73 -114 207 -114q73 0 125 45t52 119q0 102 -114 156q-20 9 -55 22.5l-59 23t-52.5 26t-46 33.5t-29.5 44t-12 60q0 84 59.5 128.5t128.5 44.5q100 0 170 -70l-13 -14q-63 66 -157 66q-62 0 -115 -40.5t-53 -114.5q0 -35 13.5 -62t42 -46t53 -30.5
t67 -27.5t63.5 -25q129 -56 129 -174q0 -80 -56.5 -131t-141.5 -51q-139 0 -222 120zM263 -40h22l-97 -130h-22z" />
    <glyph glyph-name="scommaaccent" unicode="&#x219;" horiz-adv-x="413" 
d="M55 55l14 13q63 -60 143 -60q49 0 85 29t36 74q0 37 -27 61t-65.5 36.5l-77.5 25t-66 38t-27 64.5q0 52 38.5 83t95.5 31q73 0 131 -48l-13 -14q-49 44 -118 44q-45 0 -79.5 -25t-34.5 -71q0 -34 27 -55.5t66 -33.5t77.5 -25.5t65.5 -41t27 -69.5q0 -50 -40 -85.5
t-101 -35.5q-92 0 -157 65zM213 -40h22l-97 -130h-22z" />
    <glyph glyph-name="uni0237" unicode="&#x237;" horiz-adv-x="235" 
d="M-20 -244l4 17q14 -5 37 -5q70 0 101 54q18 31 18 108v513h20v-512q0 -82 -20 -118q-34 -63 -117 -63q-25 0 -43 6z" />
    <glyph glyph-name="uni0259" unicode="&#x259;" horiz-adv-x="526" 
d="M263 8q75 0 125.5 50t60.5 131h-371q6 -77 57 -129t128 -52zM55 207h396v12q0 92 -54 152.5t-147 60.5q-100 0 -162 -72l-14 14q67 76 176 76q102 0 161.5 -66.5t59.5 -164.5q0 -97 -57.5 -163t-150.5 -66q-90 0 -147.5 62.5t-60.5 154.5z" />
    <glyph glyph-name="circumflex" unicode="&#x2c6;" horiz-adv-x="375" 
d="M172 650h31l102 -130h-22l-96 121l-95 -121h-22z" />
    <glyph glyph-name="caron" unicode="&#x2c7;" horiz-adv-x="375" 
d="M203 520h-31l-102 130h22l95 -121l96 121h22z" />
    <glyph glyph-name="breve" unicode="&#x2d8;" horiz-adv-x="370" 
d="M282 645h18q0 -47 -34 -81t-81 -34t-81 34t-34 81h18q0 -41 28 -69t69 -28t69 28t28 69z" />
    <glyph glyph-name="dotaccent" unicode="&#x2d9;" horiz-adv-x="200" 
d="M70 600q0 13 8.5 21.5t21.5 8.5t21.5 -8.5t8.5 -21.5t-8.5 -21.5t-21.5 -8.5t-21.5 8.5t-8.5 21.5z" />
    <glyph glyph-name="ring" unicode="&#x2da;" horiz-adv-x="300" 
d="M70 600q0 33 23.5 56.5t56.5 23.5t56.5 -23.5t23.5 -56.5t-23.5 -56.5t-56.5 -23.5t-56.5 23.5t-23.5 56.5zM88 600q0 -26 18 -44t44 -18t44 18t18 44t-18 44t-44 18t-44 -18t-18 -44z" />
    <glyph glyph-name="ogonek" unicode="&#x2db;" horiz-adv-x="290" 
d="M108 10h21q-10 -11 -24.5 -45t-14.5 -70q0 -43 22 -70t61 -27q26 0 42 8l5 -17q-18 -9 -45 -9q-50 0 -77.5 31.5t-27.5 81.5q0 25 9 53.5t16.5 42.5t12.5 21z" />
    <glyph glyph-name="tilde" unicode="&#x2dc;" horiz-adv-x="420" 
d="M331 618l19 -3q-9 -72 -67 -72q-28 0 -75.5 29.5t-70.5 29.5q-41 0 -48 -57l-19 3q9 72 67 72q28 0 75.5 -29.5t70.5 -29.5q41 0 48 57z" />
    <glyph glyph-name="hungarumlaut" unicode="&#x2dd;" horiz-adv-x="379" 
d="M167 650h22l-97 -130h-22zM287 650h22l-97 -130h-22z" />
    <glyph glyph-name="pi" unicode="&#x3c0;" horiz-adv-x="505" 
d="M140 0v420q-61 0 -93 -54l-17 10q22 39 67 55q27 9 58 9h315v-18h-100v-267q0 -70 20 -105q18 -32 45 -43l-7 -17q-29 8 -53 47q-25 41 -25 118v267h-190v-422h-20z" />
    <glyph glyph-name="Wgrave" unicode="&#x1e80;" horiz-adv-x="920" 
d="M460 650l-202 -650h-10l-228 700h20l213 -653l202 653h10l202 -653l213 653h20l-228 -700h-10zM358 870h22l97 -130h-22z" />
    <glyph glyph-name="wgrave" unicode="&#x1e81;" horiz-adv-x="734" 
d="M521 0l-154 400l-154 -400h-10l-178 440h20l163 -404l154 404h10l154 -404l163 404h20l-178 -440h-10zM255 650h22l97 -130h-22z" />
    <glyph glyph-name="Wacute" unicode="&#x1e82;" horiz-adv-x="920" 
d="M460 650l-202 -650h-10l-228 700h20l213 -653l202 653h10l202 -653l213 653h20l-228 -700h-10zM540 870h22l-97 -130h-22z" />
    <glyph glyph-name="wacute" unicode="&#x1e83;" horiz-adv-x="734" 
d="M521 0l-154 400l-154 -400h-10l-178 440h20l163 -404l154 404h10l154 -404l163 404h20l-178 -440h-10zM447 650h22l-97 -130h-22z" />
    <glyph glyph-name="Wdieresis" unicode="&#x1e84;" horiz-adv-x="920" 
d="M460 650l-202 -650h-10l-228 700h20l213 -653l202 653h10l202 -653l213 653h20l-228 -700h-10zM360 800q0 13 8.5 21.5t21.5 8.5t21.5 -8.5t8.5 -21.5t-8.5 -21.5t-21.5 -8.5t-21.5 8.5t-8.5 21.5zM500 800q0 13 8.5 21.5t21.5 8.5t21.5 -8.5t8.5 -21.5t-8.5 -21.5
t-21.5 -8.5t-21.5 8.5t-8.5 21.5z" />
    <glyph glyph-name="wdieresis" unicode="&#x1e85;" horiz-adv-x="734" 
d="M521 0l-154 400l-154 -400h-10l-178 440h20l163 -404l154 404h10l154 -404l163 404h20l-178 -440h-10zM267 580q0 13 8.5 21.5t21.5 8.5t21.5 -8.5t8.5 -21.5t-8.5 -21.5t-21.5 -8.5t-21.5 8.5t-8.5 21.5zM407 580q0 13 8.5 21.5t21.5 8.5t21.5 -8.5t8.5 -21.5
t-8.5 -21.5t-21.5 -8.5t-21.5 8.5t-8.5 21.5z" />
    <glyph glyph-name="uni1E8A" unicode="&#x1e8a;" horiz-adv-x="572" 
d="M255 820q0 13 8.5 21.5t21.5 8.5t21.5 -8.5t8.5 -21.5t-8.5 -21.5t-21.5 -8.5t-21.5 8.5t-8.5 21.5zM286 393l205 307h22l-215 -321l254 -379h-22l-244 364l-244 -364h-22l254 379l-215 321h22z" />
    <glyph glyph-name="uni1E8B" unicode="&#x1e8b;" horiz-adv-x="438" 
d="M388 0l-169 227l-169 -227h-25l180 241l-148 199h25l137 -185l137 185h25l-148 -199l180 -241h-25zM189 600q0 13 8.5 21.5t21.5 8.5t21.5 -8.5t8.5 -21.5t-8.5 -21.5t-21.5 -8.5t-21.5 8.5t-8.5 21.5z" />
    <glyph glyph-name="Ygrave" unicode="&#x1ef2;" horiz-adv-x="530" 
d="M255 0v345l-235 355h23l222 -335l222 335h23l-235 -355v-345h-20zM168 870h22l97 -130h-22z" />
    <glyph glyph-name="ygrave" unicode="&#x1ef3;" horiz-adv-x="452" 
d="M410 440h22l-322 -682h-22l137 291l-205 391h21l195 -368zM122 650h22l97 -130h-22z" />
    <glyph glyph-name="endash" unicode="&#x2013;" horiz-adv-x="430" 
d="M20 258h390v-18h-390v18z" />
    <glyph glyph-name="emdash" unicode="&#x2014;" horiz-adv-x="730" 
d="M20 258h690v-18h-690v18z" />
    <glyph glyph-name="quoteleft" unicode="&#x2018;" horiz-adv-x="219" 
d="M60 480l78 220h21l-78 -220h-21z" />
    <glyph glyph-name="quoteright" unicode="&#x2019;" horiz-adv-x="219" 
d="M60 480l78 220h21l-78 -220h-21z" />
    <glyph glyph-name="quotesinglbase" unicode="&#x201a;" horiz-adv-x="219" 
d="M60 -140l78 220h21l-78 -220h-21z" />
    <glyph glyph-name="quotedblleft" unicode="&#x201c;" horiz-adv-x="399" 
d="M60 480l78 220h21l-78 -220h-21zM240 480l78 220h21l-78 -220h-21z" />
    <glyph glyph-name="quotedblright" unicode="&#x201d;" horiz-adv-x="399" 
d="M60 480l78 220h21l-78 -220h-21zM240 480l78 220h21l-78 -220h-21z" />
    <glyph glyph-name="quotedblbase" unicode="&#x201e;" horiz-adv-x="399" 
d="M60 -140l78 220h21l-78 -220h-21zM240 -140l78 220h21l-78 -220h-21z" />
    <glyph glyph-name="dagger" unicode="&#x2020;" horiz-adv-x="494" 
d="M237 -200v607h-187v18h187v275h20v-275h187v-18h-187v-607h-20z" />
    <glyph glyph-name="daggerdbl" unicode="&#x2021;" horiz-adv-x="494" 
d="M257 190h187v-18h-187v-372h-20v372h-187v18h187v217h-187v18h187v275h20v-275h187v-18h-187v-217z" />
    <glyph glyph-name="bullet" unicode="&#x2022;" horiz-adv-x="480" 
d="M80 220q0 66 47 113t113 47t113 -47t47 -113t-47 -113t-113 -47t-113 47t-47 113z" />
    <glyph glyph-name="ellipsis" unicode="&#x2026;" horiz-adv-x="710" 
d="M120 25q0 14 10.5 24.5t24.5 10.5t24.5 -10.5t10.5 -24.5t-10.5 -24.5t-24.5 -10.5t-24.5 10.5t-10.5 24.5zM340 25q0 14 10.5 24.5t24.5 10.5t24.5 -10.5t10.5 -24.5t-10.5 -24.5t-24.5 -10.5t-24.5 10.5t-10.5 24.5zM560 25q0 14 10.5 24.5t24.5 10.5t24.5 -10.5
t10.5 -24.5t-10.5 -24.5t-24.5 -10.5t-24.5 10.5t-10.5 24.5z" />
    <glyph glyph-name="perthousand" unicode="&#x2030;" horiz-adv-x="1110" 
d="M430 155q0 69 45.5 117t114.5 48q53 0 93.5 -30.5t56.5 -78.5q16 49 56.5 79t93.5 30q69 0 114.5 -48t45.5 -117t-45.5 -117t-114.5 -48q-54 0 -94 30t-56 78q-16 -48 -56.5 -78t-93.5 -30q-69 0 -114.5 48t-45.5 117zM60 545q0 69 45.5 117t114.5 48t114.5 -48
t45.5 -117t-45.5 -117t-114.5 -48t-114.5 48t-45.5 117zM1030 155q0 62 -39.5 104.5t-100.5 42.5t-100.5 -42.5t-39.5 -104.5t39.5 -104.5t100.5 -42.5t100.5 42.5t39.5 104.5zM730 155q0 62 -39.5 104.5t-100.5 42.5t-100.5 -42.5t-39.5 -104.5t39.5 -104.5t100.5 -42.5
t100.5 42.5t39.5 104.5zM360 545q0 62 -39.5 104.5t-100.5 42.5t-100.5 -42.5t-39.5 -104.5t39.5 -104.5t100.5 -42.5t100.5 42.5t39.5 104.5zM211 0h-21l409 700h21z" />
    <glyph glyph-name="guilsinglleft" unicode="&#x2039;" horiz-adv-x="310" 
d="M237 410h23l-150 -180l150 -180h-23l-147 175v10z" />
    <glyph glyph-name="guilsinglright" unicode="&#x203a;" horiz-adv-x="310" 
d="M50 410h23l147 -175v-10l-147 -175h-23l150 180z" />
    <glyph glyph-name="fraction" unicode="&#x2044;" horiz-adv-x="440" 
d="M26 0h-21l409 700h21z" />
    <glyph glyph-name="uni2070" unicode="&#x2070;" horiz-adv-x="314" 
d="M157 330q-122 0 -122 190t122 190t122 -190t-122 -190zM157 692q-102 0 -102 -172t102 -172t102 172t-102 172z" />
    <glyph glyph-name="uni2074" unicode="&#x2074;" horiz-adv-x="285" 
d="M195 340v95h-185v10l195 255h10v-247h60v-18h-60v-95h-20zM40 453h155v203z" />
    <glyph glyph-name="uni2075" unicode="&#x2075;" horiz-adv-x="267" 
d="M41 529l-11 1l20 170h176v-18h-161l-14 -124q30 17 69 17q52 0 87 -35.5t35 -86.5q0 -53 -34.5 -88t-86.5 -35q-69 0 -106 52l15 12q34 -46 91 -46q44 0 72.5 30.5t28.5 74.5t-29.5 74t-72.5 30q-48 0 -79 -28z" />
    <glyph glyph-name="uni2076" unicode="&#x2076;" horiz-adv-x="283" 
d="M194 700l-102 -140q18 10 51 10q53 0 86.5 -34.5t33.5 -86.5q0 -50 -35.5 -84.5t-86.5 -34.5q-49 0 -85 33.5t-36 85.5q0 47 41 102l109 149h24zM142 552q-45 0 -77 -30q-25 -41 -25 -73q0 -43 29 -72t74 -29q43 0 71.5 29t28.5 72q0 45 -28.5 74t-72.5 29z" />
    <glyph glyph-name="uni2077" unicode="&#x2077;" horiz-adv-x="250" 
d="M15 682v18h215v-11l-171 -349h-20l167 342h-191z" />
    <glyph glyph-name="uni2078" unicode="&#x2078;" horiz-adv-x="281" 
d="M140 550q33 0 55 20t22 49q0 30 -22 51.5t-55 21.5t-54.5 -21.5t-21.5 -51.5q0 -29 21.5 -49t54.5 -20zM140 348q45 0 73 26.5t28 66.5q0 38 -29 64.5t-72 26.5t-71.5 -26t-28.5 -65q0 -40 27.5 -66.5t72.5 -26.5zM140 330q-53 0 -86.5 31t-33.5 80q0 34 19.5 61t51.5 40
q-47 29 -47 77q0 39 27 65t69 26t69.5 -26t27.5 -65q0 -49 -48 -77q32 -13 52 -40t20 -61q0 -49 -34 -80t-87 -31z" />
    <glyph glyph-name="uni2079" unicode="&#x2079;" horiz-adv-x="283" 
d="M89 340l102 140q-18 -10 -51 -10q-53 0 -86.5 34.5t-33.5 86.5q0 50 35.5 84.5t86.5 34.5q49 0 85 -33.5t36 -85.5q0 -47 -41 -102l-109 -149h-24zM141 488q45 0 77 30q25 41 25 73q0 43 -29.5 72t-73.5 29q-43 0 -71.5 -29t-28.5 -72q0 -45 28.5 -74t72.5 -29z" />
    <glyph glyph-name="uni2080" unicode="&#x2080;" horiz-adv-x="314" 
d="M157 -10q-122 0 -122 190t122 190t122 -190t-122 -190zM157 352q-102 0 -102 -172t102 -172t102 172t-102 172z" />
    <glyph glyph-name="uni2081" unicode="&#x2081;" horiz-adv-x="198" 
d="M30 290v20l93 50h10v-360h-20v334z" />
    <glyph glyph-name="uni2082" unicode="&#x2082;" horiz-adv-x="264" 
d="M224 267q0 -53 -55 -113l-124 -136h184v-18h-214v11l146 161q43 48 43 95q0 35 -24 60t-59 25q-28 0 -48.5 -16t-29.5 -42l-18 7q11 30 37 49.5t59 19.5q42 0 72.5 -29t30.5 -74z" />
    <glyph glyph-name="uni2083" unicode="&#x2083;" horiz-adv-x="284" 
d="M15 47l16 11q31 -50 94 -50q45 0 74.5 30t29.5 74q0 43 -30.5 73t-74.5 30q-24 0 -41 -5v11l110 121h-162v18h191v-11l-105 -116h9q51 0 87 -35.5t36 -85.5q0 -52 -35 -87t-89 -35q-73 0 -110 57z" />
    <glyph glyph-name="uni2084" unicode="&#x2084;" horiz-adv-x="285" 
d="M195 0v95h-185v10l195 255h10v-247h60v-18h-60v-95h-20zM40 113h155v203z" />
    <glyph glyph-name="uni2085" unicode="&#x2085;" horiz-adv-x="267" 
d="M41 189l-11 1l20 170h176v-18h-161l-14 -124q30 17 69 17q52 0 87 -35.5t35 -86.5q0 -53 -34.5 -88t-86.5 -35q-69 0 -106 52l15 12q34 -46 91 -46q44 0 72.5 30.5t28.5 74.5t-29.5 74t-72.5 30q-48 0 -79 -28z" />
    <glyph glyph-name="uni2086" unicode="&#x2086;" horiz-adv-x="283" 
d="M194 360l-102 -140q18 10 51 10q53 0 86.5 -34.5t33.5 -86.5q0 -50 -35.5 -84.5t-86.5 -34.5q-49 0 -85 33.5t-36 85.5q0 47 41 102l109 149h24zM142 212q-45 0 -77 -30q-25 -41 -25 -73q0 -43 29 -72t74 -29q43 0 71.5 29t28.5 72q0 45 -28.5 74t-72.5 29z" />
    <glyph glyph-name="uni2087" unicode="&#x2087;" horiz-adv-x="250" 
d="M15 342v18h215v-11l-171 -349h-20l167 342h-191z" />
    <glyph glyph-name="uni2088" unicode="&#x2088;" horiz-adv-x="281" 
d="M140 210q33 0 55 20t22 49q0 30 -22 51.5t-55 21.5t-54.5 -21.5t-21.5 -51.5q0 -29 21.5 -49t54.5 -20zM140 8q45 0 73 26.5t28 66.5q0 38 -29 64.5t-72 26.5t-71.5 -26t-28.5 -65q0 -40 27.5 -66.5t72.5 -26.5zM140 -10q-53 0 -86.5 31t-33.5 80q0 34 19.5 61t51.5 40
q-47 29 -47 77q0 39 27 65t69 26t69.5 -26t27.5 -65q0 -49 -48 -77q32 -13 52 -40t20 -61q0 -49 -34 -80t-87 -31z" />
    <glyph glyph-name="uni2089" unicode="&#x2089;" horiz-adv-x="283" 
d="M89 0l102 140q-18 -10 -51 -10q-53 0 -86.5 34.5t-33.5 86.5q0 50 35.5 84.5t86.5 34.5q49 0 85 -33.5t36 -85.5q0 -47 -41 -102l-109 -149h-24zM141 148q45 0 77 30q25 41 25 73q0 43 -29.5 72t-73.5 29q-43 0 -71.5 -29t-28.5 -72q0 -45 28.5 -74t72.5 -29z" />
    <glyph glyph-name="Euro" unicode="&#x20ac;" horiz-adv-x="585" 
d="M395 261h-302q20 -115 90 -184t183 -69q130 0 202 110l17 -11q-76 -117 -219 -117q-121 0 -197 74t-97 197h-77v18h74q-4 31 -4 71t4 71h-74v18h77q20 121 93 196t190 75q127 0 210 -117l-16 -11q-80 110 -194 110q-108 0 -175 -70t-88 -183h303v-18h-305q-5 -38 -5 -71
t5 -71h305v-18z" />
    <glyph glyph-name="trademark" unicode="&#x2122;" horiz-adv-x="840" 
d="M750 657l-157 -272h-16l-157 272v-340h-20v383h15l170 -292l170 292h15v-383h-20v340zM70 700h260v-18h-120v-365h-20v365h-120v18z" />
    <glyph glyph-name="Omega" unicode="&#x2126;" horiz-adv-x="760" 
d="M380 692q-137 0 -233.5 -97t-96.5 -257q0 -86 43.5 -171t126.5 -149v-18h-190v18h159q-62 55 -110.5 137.5t-48.5 182.5q0 157 99.5 264.5t250.5 107.5t250.5 -107.5t99.5 -264.5q0 -100 -48.5 -182.5t-110.5 -137.5h159v-18h-190v18q83 64 126.5 149t43.5 171
q0 160 -96.5 257t-233.5 97z" />
    <glyph glyph-name="arrowleft" unicode="&#x2190;" horiz-adv-x="731" 
d="M90 258h581v-18h-581l220 -220h-26l-224 225v8l224 225h26z" />
    <glyph glyph-name="arrowright" unicode="&#x2192;" horiz-adv-x="731" 
d="M60 258h581l-220 220h26l224 -225v-8l-224 -225h-26l220 220h-581v18z" />
    <glyph glyph-name="uni2196" unicode="&#x2196;" horiz-adv-x="560" 
d="M91 422l409 -409l-13 -13l-409 409v-319l-18 18v327l5 5h327l18 -18h-319z" />
    <glyph glyph-name="uni2197" unicode="&#x2197;" horiz-adv-x="560" 
d="M60 13l409 409h-319l18 18h327l5 -5v-327l-18 -18v319l-409 -409z" />
    <glyph glyph-name="uni2198" unicode="&#x2198;" horiz-adv-x="560" 
d="M469 18l-409 409l13 13l409 -409v319l18 -18v-327l-5 -5h-327l-18 18h319z" />
    <glyph glyph-name="uni2199" unicode="&#x2199;" horiz-adv-x="560" 
d="M500 427l-409 -409h329l-18 -18h-337l-5 5v327l18 18v-319l409 409z" />
    <glyph glyph-name="partialdiff" unicode="&#x2202;" horiz-adv-x="558" 
d="M503 220q0 -96 -64 -163t-160 -67t-160 67t-64 163t64 163t160 67q61 0 108 -26l-194 286h25l236 -348q49 -71 49 -142zM279 432q-87 0 -145.5 -61.5t-58.5 -150.5t58.5 -150.5t145.5 -61.5t145.5 61.5t58.5 150.5q0 63 -45 130l-21 31q-54 51 -138 51z" />
    <glyph glyph-name="Delta" unicode="&#x2206;" horiz-adv-x="572" 
d="M281 700h10l266 -690v-10h-542v10zM286 661l-249 -643h497z" />
    <glyph glyph-name="product" unicode="&#x220f;" horiz-adv-x="540" 
d="M385 0v682h-230v-682h-20v682h-100v18h470v-18h-100v-682h-20z" />
    <glyph glyph-name="summation" unicode="&#x2211;" horiz-adv-x="575" 
d="M490 520v162h-417l306 -316v-10l-317 -338h438v162h20v-180h-490v10l329 351l-319 329v10h470v-180h-20z" />
    <glyph glyph-name="minus" unicode="&#x2212;" horiz-adv-x="520" 
d="M60 269h400v-18h-400v18z" />
    <glyph glyph-name="uni2215" unicode="&#x2215;" horiz-adv-x="440" 
d="M26 0h-21l409 700h21z" />
    <glyph glyph-name="radical" unicode="&#x221a;" horiz-adv-x="571" 
d="M527 700h19l-249 -700h-10l-175 422h-102v18h114l167 -402z" />
    <glyph glyph-name="infinity" unicode="&#x221e;" horiz-adv-x="730" 
d="M538 100q-63 0 -100.5 40.5t-72.5 115.5q-17 -37 -30.5 -59.5t-34.5 -47.5t-47.5 -37t-60.5 -12q-70 0 -116 52t-46 125t46 125t116 52q34 0 60.5 -12t47.5 -37.5t34 -48t31 -59.5q17 36 30.5 59t34 48.5t47.5 37.5t61 12q70 0 116 -52t46 -125t-46 -125t-116 -52z
M538 118q62 0 102 47t40 112t-40 112t-102 47q-31 0 -56 -12t-45.5 -38.5t-32.5 -48t-30 -60.5q18 -39 30 -60.5t32.5 -48t45.5 -38.5t56 -12zM192 118q31 0 56.5 12t45 38.5t31.5 48t30 60.5q-18 39 -30 60.5t-31.5 48t-45 38.5t-56.5 12q-62 0 -102 -47t-40 -112t40 -112
t102 -47z" />
    <glyph glyph-name="integral" unicode="&#x222b;" horiz-adv-x="482" 
d="M253 559q-26 -120 -53 -332.5t-52 -330.5q-16 -74 -60 -111q-43 -35 -102 -35q-43 0 -82 21l9 17q34 -20 73 -20q51 0 88 31q40 32 55 102q26 120 53 332.5t52 330.5q16 74 60 111q43 35 102 35q43 0 82 -21l-9 -17q-34 20 -73 20q-51 0 -88 -31q-40 -32 -55 -102z" />
    <glyph glyph-name="approxequal" unicode="&#x2248;" horiz-adv-x="482" 
d="M68 130l-18 5q11 47 38 68.5t60 21.5q40 0 96.5 -44t89.5 -44q59 0 80 77l18 -5q-11 -47 -38 -68.5t-60 -21.5q-40 0 -96.5 44t-89.5 44q-59 0 -80 -77zM68 308l-18 5q11 47 38 68.5t60 21.5q40 0 96.5 -44t89.5 -44q59 0 80 77l18 -5q-11 -47 -38 -68.5t-60 -21.5
q-40 0 -96.5 44t-89.5 44q-59 0 -80 -77z" />
    <glyph glyph-name="notequal" unicode="&#x2260;" horiz-adv-x="520" 
d="M60 360h247l61 105h19l-61 -105h134v-18h-144l-93 -162h237v-18h-248l-60 -105h-19l60 105h-133v18h144l93 162h-237v18z" />
    <glyph glyph-name="lessequal" unicode="&#x2264;" horiz-adv-x="530" 
d="M70 78h400v-18h-400v18zM470 131l-410 154v10l410 154v-20l-373 -139l373 -139v-20z" />
    <glyph glyph-name="greaterequal" unicode="&#x2265;" horiz-adv-x="530" 
d="M60 78h400v-18h-400v18zM470 285l-410 -154v20l373 139l-373 139v20l410 -154v-10z" />
    <glyph glyph-name="lozenge" unicode="&#x25ca;" horiz-adv-x="548" 
d="M269 700h10l224 -345v-10l-224 -345h-10l-224 345v10zM63 350l211 -325l211 325l-211 325z" />
    <glyph glyph-name="parenleft.ss03" horiz-adv-x="405" 
d="M150 350q0 186 92 360l18 -8q-90 -172 -90 -352t90 -352l-18 -8q-92 174 -92 360z" />
    <glyph glyph-name="parenright.ss03" horiz-adv-x="405" 
d="M255 350q0 -186 -92 -360l-18 8q90 172 90 352t-90 352l18 8q92 -174 92 -360z" />
    <glyph glyph-name="bracketleft.ss03" horiz-adv-x="405" 
d="M150 0v700h205v-18h-185v-664h185v-18h-205z" />
    <glyph glyph-name="bracketright.ss03" horiz-adv-x="405" 
d="M255 700v-700h-205v18h185v664h-185v18h205z" />
    <glyph glyph-name="braceleft.ss03" horiz-adv-x="405" 
d="M134 350q36 -22 36 -90q0 -16 -5 -57.5t-5 -64.5q0 -58 30 -88q34 -32 110 -32h15v-18h-15q-90 0 -127 40q-33 36 -33 99q0 18 5 60t5 61q0 40 -11 57q-15 23 -49 23v20q34 0 49 23q11 17 11 57q0 19 -5 61t-5 60q0 63 33 99q37 40 127 40h15v-18h-15q-76 0 -110 -32
q-30 -30 -30 -88q0 -22 5 -64t5 -58q0 -68 -36 -90z" />
    <glyph glyph-name="braceright.ss03" horiz-adv-x="405" 
d="M271 350q-36 22 -36 90q0 16 5 58t5 64q0 58 -30 88q-34 32 -110 32h-15v18h15q90 0 127 -40q33 -36 33 -99q0 -18 -5 -60t-5 -61q0 -40 11 -57q15 -23 49 -23v-20q-34 0 -49 -23q-11 -17 -11 -57q0 -19 5 -61t5 -60q0 -63 -33 -99q-37 -40 -127 -40h-15v18h15
q76 0 110 32q30 30 30 88q0 23 -5 64.5t-5 57.5q0 68 36 90z" />
    <glyph glyph-name="bar.ss03" horiz-adv-x="140" 
d="M60 0v700h20v-700h-20z" />
    <glyph glyph-name="zero.tf" 
d="M80 350q0 -74 11 -134t34.5 -107.5t64 -74t95.5 -26.5t95.5 26.5t64 74t34.5 107.5t11 134t-11 134t-34.5 107.5t-64 74t-95.5 26.5t-95.5 -26.5t-64 -74t-34.5 -107.5t-11 -134zM60 350q0 162 54 261t171 99t171 -99t54 -261t-54 -261t-171 -99t-171 99t-54 261z" />
    <glyph glyph-name="one.tf" 
d="M75 0v18h215v655l-175 -100v21l185 106h10v-682h193v-18h-428z" />
    <glyph glyph-name="two.tf" 
d="M99 557l-18 6q15 65 67.5 106t123.5 41q82 0 137.5 -53.5t55.5 -131.5q0 -49 -23.5 -94.5t-72.5 -103.5l-263 -309h379v-18h-410v10l275 324q48 56 71.5 99.5t23.5 90.5q0 71 -50 119.5t-122 48.5q-61 0 -110.5 -38.5t-63.5 -96.5z" />
    <glyph glyph-name="three.tf" 
d="M55 93l17 11q28 -45 77 -70.5t109 -25.5q88 0 146 60.5t58 146.5q0 89 -58.5 148t-147.5 59q-45 0 -71 -10v10l227 260h-320v18h350v-10l-218 -252q20 2 32 2q97 0 161.5 -64t64.5 -161q0 -94 -64 -159.5t-160 -65.5q-64 0 -118.5 28t-84.5 75z" />
    <glyph glyph-name="four.tf" 
d="M40 210l370 490h10v-482h120v-18h-120v-200h-20v200h-360v10zM69 218h331v438z" />
    <glyph glyph-name="five.tf" 
d="M155 700h305v-18h-290l-42 -299q58 47 147 47q94 0 157 -64t63 -156t-64 -156t-159 -64q-66 0 -118 28.5t-79 79.5l17 10q25 -47 72.5 -73.5t107.5 -26.5q86 0 144.5 58.5t58.5 143.5q0 84 -57.5 143t-142.5 59q-103 0 -160 -66l-10 1z" />
    <glyph glyph-name="six.tf" 
d="M371 700l-203 -305q54 33 122 33q94 0 157 -63.5t63 -155.5t-63 -155.5t-157 -63.5q-96 0 -158 65t-62 153q0 71 64 169l212 323h25zM290 410q-87 0 -145 -55q-55 -80 -55 -146q0 -84 57.5 -142.5t142.5 -58.5t142.5 58.5t57.5 142.5t-57.5 142.5t-142.5 58.5z" />
    <glyph glyph-name="seven.tf" 
d="M75 682v18h420v-10l-336 -690h-20l331 682h-395z" />
    <glyph glyph-name="eight.tf" 
d="M285 -10q-93 0 -156.5 59t-63.5 144q0 70 44 124t115 73q-54 17 -86.5 58.5t-32.5 95.5q0 70 51.5 118t128.5 48t128.5 -48t51.5 -118q0 -54 -32.5 -95.5t-86.5 -58.5q71 -19 115 -73t44 -124q0 -85 -63.5 -144t-156.5 -59zM285 379q-85 0 -142.5 -54t-57.5 -132
t57.5 -131.5t142.5 -53.5t142.5 53.5t57.5 131.5t-57.5 132t-142.5 54zM285 397q66 0 113 43t47 104q0 62 -46 105t-114 43t-114 -43t-46 -105q0 -61 47 -104t113 -43z" />
    <glyph glyph-name="nine.tf" 
d="M199 0l203 305q-50 -33 -122 -33q-94 0 -157 63.5t-63 155.5t63 155.5t157 63.5q96 0 158 -65t62 -153q0 -71 -64 -169l-212 -323h-25zM280 290q87 0 145 55q55 80 55 146q0 84 -57.5 142.5t-142.5 58.5t-142.5 -58.5t-57.5 -142.5t57.5 -142.5t142.5 -58.5z" />
    <glyph glyph-name="parenleft.case" horiz-adv-x="405" 
d="M150 350q0 252 153 460l17 -11q-150 -202 -150 -449t150 -449l-17 -11q-153 208 -153 460z" />
    <glyph glyph-name="parenright.case" horiz-adv-x="405" 
d="M255 350q0 -252 -153 -460l-17 11q150 202 150 449t-150 449l17 11q153 -208 153 -460z" />
    <glyph glyph-name="bracketleft.case" horiz-adv-x="405" 
d="M150 -100v900h205v-18h-185v-864h185v-18h-205z" />
    <glyph glyph-name="bracketright.case" horiz-adv-x="405" 
d="M255 800v-900h-205v18h185v864h-185v18h205z" />
    <glyph glyph-name="braceleft.case" horiz-adv-x="405" 
d="M134 350q36 -22 36 -90q0 -31 -5 -103.5t-5 -98.5q0 -79 30 -108q34 -32 110 -32h15v-18h-15q-90 0 -127 40q-33 36 -33 117q0 22 5 93t5 110q0 40 -11 57q-15 23 -49 23v20q34 0 49 23q11 17 11 57q0 39 -5 110t-5 93q0 81 33 117q37 40 127 40h15v-18h-15
q-76 0 -110 -32q-30 -29 -30 -108q0 -26 5 -98.5t5 -103.5q0 -68 -36 -90z" />
    <glyph glyph-name="braceright.case" horiz-adv-x="405" 
d="M271 350q-36 22 -36 90q0 31 5 103.5t5 98.5q0 79 -30 108q-34 32 -110 32h-15v18h15q90 0 127 -40q33 -36 33 -117q0 -22 -5 -93t-5 -110q0 -40 11 -57q15 -23 49 -23v-20q-34 0 -49 -23q-11 -17 -11 -57q0 -39 5 -110t5 -93q0 -81 -33 -117q-37 -40 -127 -40h-15v18h15
q76 0 110 32q30 29 30 108q0 26 -5 98.5t-5 103.5q0 68 36 90z" />
    <glyph glyph-name="a.ss01" horiz-adv-x="500" 
d="M395 120v90q-61 40 -143 40q-68 0 -114.5 -34t-47.5 -90q0 -53 39.5 -85.5t97.5 -32.5q116 0 168 112zM395 232v30q0 78 -32 118q-42 52 -115 52q-85 0 -140 -55l-13 13q23 24 63 42t90 18q84 0 131 -60q36 -43 36 -130v-260h-20v86q-22 -45 -66 -70.5t-101 -25.5
q-67 0 -112.5 37.5t-45.5 96.5q0 67 54 105.5t130 38.5q69 0 141 -36z" />
    <glyph glyph-name="zero.tf.zero" 
d="M60 350q0 162 54 261t171 99t171 -99t54 -261t-54 -261t-171 -99t-171 99t-54 261zM490 350q0 160 -50 249l-300 -516q53 -75 145 -75q55 0 95.5 26.5t64 74t34.5 107.5t11 134zM80 350q0 -161 50 -250l299 517q-53 75 -144 75q-55 0 -95.5 -26.5t-64 -74t-34.5 -107.5
t-11 -134z" />
    <glyph glyph-name="endash.ss04" horiz-adv-x="1030" 
d="M20 258h990v-18h-990v18z" />
    <glyph glyph-name="periodcentered.case" horiz-adv-x="270" 
d="M100 350q0 14 10.5 24.5t24.5 10.5t24.5 -10.5t10.5 -24.5t-10.5 -24.5t-24.5 -10.5t-24.5 10.5t-10.5 24.5z" />
    <glyph glyph-name="bullet.case" horiz-adv-x="480" 
d="M80 350q0 66 47 113t113 47t113 -47t47 -113t-47 -113t-113 -47t-113 47t-47 113z" />
    <glyph glyph-name="asterisk.ss05" horiz-adv-x="484" 
d="M73 423l151 87l-151 87l9 16l151 -87v174h18v-175l151 88l9 -16l-150 -87l150 -87l-9 -16l-151 87v-174h-18v174l-151 -87z" />
    <glyph glyph-name="zero.zero" horiz-adv-x="580" 
d="M65 350q0 162 54 261t171 99t171 -99t54 -261t-54 -261t-171 -99t-171 99t-54 261zM495 350q0 160 -50 249l-300 -516q53 -75 145 -75q55 0 95.5 26.5t64 74t34.5 107.5t11 134zM85 350q0 -161 50 -250l299 517q-53 75 -144 75q-55 0 -95.5 -26.5t-64 -74t-34.5 -107.5
t-11 -134z" />
    <glyph glyph-name="uni2070.zero" horiz-adv-x="314" 
d="M157 330q-122 0 -122 190t122 190t122 -190t-122 -190zM157 692q-102 0 -102 -172q0 -78 22 -122l150 259q-25 35 -70 35zM157 348q102 0 102 172q0 78 -22 122l-150 -260q26 -34 70 -34z" />
    <glyph glyph-name="uni2080.zero" horiz-adv-x="314" 
d="M157 -10q-122 0 -122 190t122 190t122 -190t-122 -190zM157 352q-102 0 -102 -172q0 -78 22 -122l150 259q-25 35 -70 35zM157 8q102 0 102 172q0 78 -22 122l-150 -260q26 -34 70 -34z" />
    <glyph glyph-name="emdash.ss04" horiz-adv-x="1330" 
d="M20 258h1290v-18h-1290v18z" />
    <glyph glyph-name="currency.tf" 
d="M99 351q0 72 48 125l-72 72l13 13l72 -72q53 48 125 48t125 -48l72 72l13 -13l-72 -72q48 -53 48 -125t-48 -125l72 -72l-13 -13l-72 72q-53 -48 -125 -48t-125 48l-72 -72l-13 13l72 72q-48 53 -48 125zM119 351q0 -69 48.5 -117.5t117.5 -48.5t117.5 48.5t48.5 117.5
t-48.5 117.5t-117.5 48.5t-117.5 -48.5t-48.5 -117.5z" />
    <glyph glyph-name="hyphen.case" horiz-adv-x="400" 
d="M80 400h240v-18h-240v18z" />
    <glyph glyph-name="endash.case" horiz-adv-x="430" 
d="M20 400h390v-18h-390v18z" />
    <glyph glyph-name="emdash.case" horiz-adv-x="730" 
d="M20 400h690v-18h-690v18z" />
    <glyph glyph-name="endash.case.ss04" horiz-adv-x="1030" 
d="M20 400h990v-18h-990v18z" />
    <glyph glyph-name="emdash.case.ss04" horiz-adv-x="1330" 
d="M20 400h1290v-18h-1290v18z" />
    <glyph glyph-name="guillemotleft.case" horiz-adv-x="520" 
d="M237 510h23l-150 -180l150 -180h-23l-147 175v10zM447 510h23l-150 -180l150 -180h-23l-147 175v10z" />
    <glyph glyph-name="guillemotright.case" horiz-adv-x="520" 
d="M260 510h23l147 -175v-10l-147 -175h-23l150 180zM50 510h23l147 -175v-10l-147 -175h-23l150 180z" />
    <glyph glyph-name="guilsinglleft.case" horiz-adv-x="310" 
d="M237 510h23l-150 -180l150 -180h-23l-147 175v10z" />
    <glyph glyph-name="guilsinglright.case" horiz-adv-x="310" 
d="M50 510h23l147 -175v-10l-147 -175h-23l150 180z" />
    <glyph glyph-name="bar.case" horiz-adv-x="140" 
d="M60 -110v900h20v-900h-20z" />
    <glyph glyph-name="aacute.ss01" horiz-adv-x="500" 
d="M326 650h22l-97 -130h-22zM395 120v90q-61 40 -143 40q-68 0 -114.5 -34t-47.5 -90q0 -53 39.5 -85.5t97.5 -32.5q116 0 168 112zM395 232v30q0 78 -32 118q-42 52 -115 52q-85 0 -140 -55l-13 13q23 24 63 42t90 18q84 0 131 -60q36 -43 36 -130v-260h-20v86
q-22 -45 -66 -70.5t-101 -25.5q-67 0 -112.5 37.5t-45.5 96.5q0 67 54 105.5t130 38.5q69 0 141 -36z" />
    <glyph glyph-name="agrave.ss01" horiz-adv-x="500" 
d="M180 650h22l97 -130h-22zM395 120v90q-61 40 -143 40q-68 0 -114.5 -34t-47.5 -90q0 -53 39.5 -85.5t97.5 -32.5q116 0 168 112zM395 232v30q0 78 -32 118q-42 52 -115 52q-85 0 -140 -55l-13 13q23 24 63 42t90 18q84 0 131 -60q36 -43 36 -130v-260h-20v86
q-22 -45 -66 -70.5t-101 -25.5q-67 0 -112.5 37.5t-45.5 96.5q0 67 54 105.5t130 38.5q69 0 141 -36z" />
    <glyph glyph-name="acircumflex.ss01" horiz-adv-x="500" 
d="M247 650h31l102 -130h-22l-96 121l-95 -121h-22zM395 120v90q-61 40 -143 40q-68 0 -114.5 -34t-47.5 -90q0 -53 39.5 -85.5t97.5 -32.5q116 0 168 112zM395 232v30q0 78 -32 118q-42 52 -115 52q-85 0 -140 -55l-13 13q23 24 63 42t90 18q84 0 131 -60q36 -43 36 -130
v-260h-20v86q-22 -45 -66 -70.5t-101 -25.5q-67 0 -112.5 37.5t-45.5 96.5q0 67 54 105.5t130 38.5q69 0 141 -36z" />
    <glyph glyph-name="adieresis.ss01" horiz-adv-x="500" 
d="M162 580q0 13 8.5 21.5t21.5 8.5t21.5 -8.5t8.5 -21.5t-8.5 -21.5t-21.5 -8.5t-21.5 8.5t-8.5 21.5zM302 580q0 13 8.5 21.5t21.5 8.5t21.5 -8.5t8.5 -21.5t-8.5 -21.5t-21.5 -8.5t-21.5 8.5t-8.5 21.5zM395 120v90q-61 40 -143 40q-68 0 -114.5 -34t-47.5 -90
q0 -53 39.5 -85.5t97.5 -32.5q116 0 168 112zM395 232v30q0 78 -32 118q-42 52 -115 52q-85 0 -140 -55l-13 13q23 24 63 42t90 18q84 0 131 -60q36 -43 36 -130v-260h-20v86q-22 -45 -66 -70.5t-101 -25.5q-67 0 -112.5 37.5t-45.5 96.5q0 67 54 105.5t130 38.5
q69 0 141 -36z" />
    <glyph glyph-name="atilde.ss01" horiz-adv-x="500" 
d="M383 618l19 -3q-9 -72 -67 -72q-28 0 -75.5 29.5t-70.5 29.5q-41 0 -48 -57l-19 3q9 72 67 72q28 0 75.5 -29.5t70.5 -29.5q41 0 48 57zM395 120v90q-61 40 -143 40q-68 0 -114.5 -34t-47.5 -90q0 -53 39.5 -85.5t97.5 -32.5q116 0 168 112zM395 232v30q0 78 -32 118
q-42 52 -115 52q-85 0 -140 -55l-13 13q23 24 63 42t90 18q84 0 131 -60q36 -43 36 -130v-260h-20v86q-22 -45 -66 -70.5t-101 -25.5q-67 0 -112.5 37.5t-45.5 96.5q0 67 54 105.5t130 38.5q69 0 141 -36z" />
    <glyph glyph-name="aring.ss01" horiz-adv-x="500" 
d="M182 600q0 33 23.5 56.5t56.5 23.5t56.5 -23.5t23.5 -56.5t-23.5 -56.5t-56.5 -23.5t-56.5 23.5t-23.5 56.5zM200 600q0 -26 18 -44t44 -18t44 18t18 44t-18 44t-44 18t-44 -18t-18 -44zM395 120v90q-61 40 -143 40q-68 0 -114.5 -34t-47.5 -90q0 -53 39.5 -85.5
t97.5 -32.5q116 0 168 112zM395 232v30q0 78 -32 118q-42 52 -115 52q-85 0 -140 -55l-13 13q23 24 63 42t90 18q84 0 131 -60q36 -43 36 -130v-260h-20v86q-22 -45 -66 -70.5t-101 -25.5q-67 0 -112.5 37.5t-45.5 96.5q0 67 54 105.5t130 38.5q69 0 141 -36z" />
    <glyph glyph-name="ae.ss01" horiz-adv-x="865" 
d="M395 232v30q0 78 -32 118q-42 52 -115 52q-85 0 -140 -55l-13 13q23 24 63 42t90 18q84 0 131 -60q24 -29 32 -79q22 63 72 101t119 38q90 0 147.5 -62.5t60.5 -154.5h-396v-12q0 -92 54 -152.5t147 -60.5q100 0 162 72l14 -14q-67 -76 -176 -76q-73 0 -124.5 35
t-75.5 95v-120h-20v86q-22 -45 -66 -70.5t-101 -25.5q-67 0 -112.5 37.5t-45.5 96.5q0 67 54 105.5t130 38.5q69 0 141 -36zM395 120v90q-61 40 -143 40q-68 0 -114.5 -34t-47.5 -90q0 -53 39.5 -85.5t97.5 -32.5q116 0 168 112zM602 432q-75 0 -125.5 -50t-60.5 -131h371
q-6 77 -57 129t-128 52z" />
    <glyph glyph-name="zero.dnom" horiz-adv-x="314" 
d="M157 -10q-122 0 -122 190t122 190t122 -190t-122 -190zM157 352q-102 0 -102 -172t102 -172t102 172t-102 172z" />
    <glyph glyph-name="one.dnom" horiz-adv-x="198" 
d="M30 290v20l93 50h10v-360h-20v334z" />
    <glyph glyph-name="two.dnom" horiz-adv-x="264" 
d="M224 267q0 -53 -55 -113l-124 -136h184v-18h-214v11l146 161q43 48 43 95q0 35 -24 60t-59 25q-28 0 -48.5 -16t-29.5 -42l-18 7q11 30 37 49.5t59 19.5q42 0 72.5 -29t30.5 -74z" />
    <glyph glyph-name="three.dnom" horiz-adv-x="284" 
d="M15 47l16 11q31 -50 94 -50q45 0 74.5 30t29.5 74q0 43 -30.5 73t-74.5 30q-24 0 -41 -5v11l110 121h-162v18h191v-11l-105 -116h9q51 0 87 -35.5t36 -85.5q0 -52 -35 -87t-89 -35q-73 0 -110 57z" />
    <glyph glyph-name="four.dnom" horiz-adv-x="285" 
d="M195 0v95h-185v10l195 255h10v-247h60v-18h-60v-95h-20zM40 113h155v203z" />
    <glyph glyph-name="five.dnom" horiz-adv-x="267" 
d="M41 189l-11 1l20 170h176v-18h-161l-14 -124q30 17 69 17q52 0 87 -35.5t35 -86.5q0 -53 -34.5 -88t-86.5 -35q-69 0 -106 52l15 12q34 -46 91 -46q44 0 72.5 30.5t28.5 74.5t-29.5 74t-72.5 30q-48 0 -79 -28z" />
    <glyph glyph-name="six.dnom" horiz-adv-x="283" 
d="M194 360l-102 -140q18 10 51 10q53 0 86.5 -34.5t33.5 -86.5q0 -50 -35.5 -84.5t-86.5 -34.5q-49 0 -85 33.5t-36 85.5q0 47 41 102l109 149h24zM142 212q-45 0 -77 -30q-25 -41 -25 -73q0 -43 29 -72t74 -29q43 0 71.5 29t28.5 72q0 45 -28.5 74t-72.5 29z" />
    <glyph glyph-name="seven.dnom" horiz-adv-x="250" 
d="M15 342v18h215v-11l-171 -349h-20l167 342h-191z" />
    <glyph glyph-name="eight.dnom" horiz-adv-x="281" 
d="M140 210q33 0 55 20t22 49q0 30 -22 51.5t-55 21.5t-54.5 -21.5t-21.5 -51.5q0 -29 21.5 -49t54.5 -20zM140 8q45 0 73 26.5t28 66.5q0 38 -29 64.5t-72 26.5t-71.5 -26t-28.5 -65q0 -40 27.5 -66.5t72.5 -26.5zM140 -10q-53 0 -86.5 31t-33.5 80q0 34 19.5 61t51.5 40
q-47 29 -47 77q0 39 27 65t69 26t69.5 -26t27.5 -65q0 -49 -48 -77q32 -13 52 -40t20 -61q0 -49 -34 -80t-87 -31z" />
    <glyph glyph-name="nine.dnom" horiz-adv-x="283" 
d="M89 0l102 140q-18 -10 -51 -10q-53 0 -86.5 34.5t-33.5 86.5q0 50 35.5 84.5t86.5 34.5q49 0 85 -33.5t36 -85.5q0 -47 -41 -102l-109 -149h-24zM141 148q45 0 77 30q25 41 25 73q0 43 -29.5 72t-73.5 29q-43 0 -71.5 -29t-28.5 -72q0 -45 28.5 -74t72.5 -29z" />
    <glyph glyph-name="zero.numr" horiz-adv-x="314" 
d="M157 330q-122 0 -122 190t122 190t122 -190t-122 -190zM157 692q-102 0 -102 -172t102 -172t102 172t-102 172z" />
    <glyph glyph-name="one.numr" horiz-adv-x="198" 
d="M30 630v20l93 50h10v-360h-20v334z" />
    <glyph glyph-name="two.numr" horiz-adv-x="264" 
d="M224 607q0 -53 -55 -113l-124 -136h184v-18h-214v11l146 161q43 48 43 95q0 35 -24 60t-59 25q-28 0 -48.5 -16t-29.5 -42l-18 7q11 30 37 49.5t59 19.5q42 0 72.5 -29t30.5 -74z" />
    <glyph glyph-name="three.numr" horiz-adv-x="284" 
d="M15 387l16 11q31 -50 94 -50q45 0 74.5 30t29.5 74q0 43 -30.5 73t-74.5 30q-24 0 -41 -5v11l110 121h-162v18h191v-11l-105 -116h9q51 0 87 -35.5t36 -85.5q0 -52 -35 -87t-89 -35q-73 0 -110 57z" />
    <glyph glyph-name="four.numr" horiz-adv-x="285" 
d="M195 340v95h-185v10l195 255h10v-247h60v-18h-60v-95h-20zM40 453h155v203z" />
    <glyph glyph-name="five.numr" horiz-adv-x="267" 
d="M41 529l-11 1l20 170h176v-18h-161l-14 -124q30 17 69 17q52 0 87 -35.5t35 -86.5q0 -53 -34.5 -88t-86.5 -35q-69 0 -106 52l15 12q34 -46 91 -46q44 0 72.5 30.5t28.5 74.5t-29.5 74t-72.5 30q-48 0 -79 -28z" />
    <glyph glyph-name="six.numr" horiz-adv-x="283" 
d="M194 700l-102 -140q18 10 51 10q53 0 86.5 -34.5t33.5 -86.5q0 -50 -35.5 -84.5t-86.5 -34.5q-49 0 -85 33.5t-36 85.5q0 47 41 102l109 149h24zM142 552q-45 0 -77 -30q-25 -41 -25 -73q0 -43 29 -72t74 -29q43 0 71.5 29t28.5 72q0 45 -28.5 74t-72.5 29z" />
    <glyph glyph-name="seven.numr" horiz-adv-x="250" 
d="M15 682v18h215v-11l-171 -349h-20l167 342h-191z" />
    <glyph glyph-name="eight.numr" horiz-adv-x="281" 
d="M140 550q33 0 55 20t22 49q0 30 -22 51.5t-55 21.5t-54.5 -21.5t-21.5 -51.5q0 -29 21.5 -49t54.5 -20zM140 348q45 0 73 26.5t28 66.5q0 38 -29 64.5t-72 26.5t-71.5 -26t-28.5 -65q0 -40 27.5 -66.5t72.5 -26.5zM140 330q-53 0 -86.5 31t-33.5 80q0 34 19.5 61t51.5 40
q-47 29 -47 77q0 39 27 65t69 26t69.5 -26t27.5 -65q0 -49 -48 -77q32 -13 52 -40t20 -61q0 -49 -34 -80t-87 -31z" />
    <glyph glyph-name="nine.numr" horiz-adv-x="283" 
d="M89 340l102 140q-18 -10 -51 -10q-53 0 -86.5 34.5t-33.5 86.5q0 50 35.5 84.5t86.5 34.5q49 0 85 -33.5t36 -85.5q0 -47 -41 -102l-109 -149h-24zM141 488q45 0 77 30q25 41 25 73q0 43 -29.5 72t-73.5 29q-43 0 -71.5 -29t-28.5 -72q0 -45 28.5 -74t72.5 -29z" />
    <glyph glyph-name="zero.dnom.zero" horiz-adv-x="314" 
d="M157 -10q-122 0 -122 190t122 190t122 -190t-122 -190zM157 352q-102 0 -102 -172q0 -78 22 -122l150 259q-25 35 -70 35zM157 8q102 0 102 172q0 78 -22 122l-150 -260q26 -34 70 -34z" />
    <glyph glyph-name="zero.numr.zero" horiz-adv-x="314" 
d="M157 330q-122 0 -122 190t122 190t122 -190t-122 -190zM157 692q-102 0 -102 -172q0 -78 22 -122l150 259q-25 35 -70 35zM157 348q102 0 102 172q0 78 -22 122l-150 -260q26 -34 70 -34z" />
    <glyph glyph-name="minus.tf" 
d="M85 269h400v-18h-400v18z" />
    <glyph glyph-name="multiply.tf" 
d="M129 429l156 -156l156 156l13 -13l-156 -156l156 -156l-13 -13l-156 156l-156 -156l-13 13l156 156l-156 156z" />
    <glyph glyph-name="numbersign.tf" 
d="M141 240h-110v18h115l50 184h-110v18h115l65 240h19l-65 -240h191l65 240h19l-65 -240h110v-18h-115l-50 -184h110v-18h-115l-64 -240h-19l64 240h-191l-64 -240h-19zM215 442l-50 -184h191l50 184h-191z" />
    <glyph glyph-name="dollar.tf" 
d="M70 110l16 12q73 -114 207 -114q73 0 125 44.5t52 117.5q0 105 -114 158q-20 9 -55 22.5l-59 23t-52.5 26t-46 33.5t-29.5 44t-12 60q0 81 55 124.5t123 47.5v106h20v-105q94 -4 160 -70l-13 -14q-63 66 -157 66q-62 0 -115 -40.5t-53 -114.5q0 -35 13.5 -62t42 -46
t53 -30.5t67 -27.5t63.5 -25q60 -27 94.5 -68.5t34.5 -108.5q0 -77 -54.5 -126.5t-135.5 -52.5v-105h-20v105q-131 4 -210 120z" />
    <glyph glyph-name="plus.tf" 
d="M85 269h191v191h18v-191h191v-18h-191v-191h-18v191h-191v18z" />
    <glyph glyph-name="less.tf" 
d="M475 417l-366 -157l366 -157v-20l-400 172v10l400 172v-20z" />
    <glyph glyph-name="equal.tf" 
d="M85 360h400v-18h-400v18zM85 180h400v-18h-400v18z" />
    <glyph glyph-name="greater.tf" 
d="M461 260l-366 157v20l400 -172v-10l-400 -172v20z" />
    <glyph glyph-name="cent.tf" 
d="M480 107l16 -10q-59 -102 -186 -107v-105h-20v105q-97 4 -160.5 69t-63.5 162q0 94 64.5 161t159.5 68v105h20v-106q104 -7 168 -89l-16 -12q-59 84 -169 84q-86 0 -146.5 -61t-60.5 -150q0 -92 62 -152.5t153 -60.5q59 0 106 27t73 72z" />
    <glyph glyph-name="sterling.tf" 
d="M80 363v18h87q-41 90 -41 148q0 75 53 128t128 53q51 0 94 -26.5t66 -69.5l-17 -9q-21 39 -59 63t-84 24q-66 0 -113.5 -48.5t-47.5 -114.5q0 -56 43 -148h126v-18h-118q30 -76 30 -146q0 -67 -32.5 -117.5t-76.5 -81.5h377v-18h-435v10q60 24 103.5 80.5t43.5 126.5
q0 65 -32 146h-95z" />
    <glyph glyph-name="section.tf" 
d="M488 230q0 -55 -37 -99t-100 -65q54 -20 83.5 -50t29.5 -83q0 -52 -30.5 -90.5t-71.5 -55.5t-83 -17q-105 0 -173 70l13 14q66 -66 159 -66q60 0 113 38.5t53 106.5q0 18 -4.5 33t-10.5 26t-19.5 21.5t-22 16t-28.5 13.5t-29.5 11t-34 10t-33.5 10q-41 13 -67.5 24
t-55.5 31t-43.5 50.5t-14.5 70.5q0 56 37 99.5t100 64.5q-54 20 -83.5 50t-29.5 83q0 52 30.5 90.5t71.5 55.5t83 17q105 0 173 -70l-13 -14q-66 66 -159 66q-60 0 -113 -38.5t-53 -106.5q0 -18 4.5 -33t10.5 -26t19.5 -21.5t22 -16t28.5 -13.5t29.5 -11t34 -10t33.5 -10
q41 -13 67.5 -24t55.5 -31t43.5 -50.5t14.5 -70.5zM468 230q0 23 -6 42t-14 33t-23.5 26.5t-28 20t-35 16t-36 13t-40 12t-38.5 11.5q-70 -18 -108 -59t-38 -95q0 -23 6 -42t14 -33t23.5 -26.5t28 -20t35 -16t36 -13t40 -12t38.5 -11.5q70 18 108 58.5t38 95.5z" />
    <glyph glyph-name="notequal.tf" 
d="M85 360h247l61 105h19l-61 -105h134v-18h-144l-93 -162h237v-18h-248l-60 -105h-19l60 105h-133v18h144l93 162h-237v18z" />
    <glyph glyph-name="plusminus.tf" 
d="M85 293h191v167h18v-167h191v-18h-191v-167h-18v167h-191v18zM85 78h400v-18h-400v18z" />
    <glyph glyph-name="lessequal.tf" 
d="M85 78h400v-18h-400v18zM485 131l-410 154v10l410 154v-20l-373 -139l373 -139v-20z" />
    <glyph glyph-name="greaterequal.tf" 
d="M85 78h400v-18h-400v18zM495 285l-410 -154v20l373 139l-373 139v20l410 -154v-10z" />
    <glyph glyph-name="yen.tf" 
d="M54 261v18h221v66l-51 76h-170v18h158l-172 261h23l222 -335l222 335h23l-173 -261h159v-18h-171l-50 -76v-66h221v-18h-221v-261h-20v261h-221z" />
    <glyph glyph-name="mu.tf" 
d="M98 -240v680h20v-240q0 -97 51 -146q49 -46 116 -46q112 0 167 109v323h20v-440h-20v84q-57 -94 -167 -94q-77 0 -131 51q-25 23 -36 53v-334h-20z" />
    <glyph glyph-name="partialdiff.tf" 
d="M509 220q0 -96 -64 -163t-160 -67t-160 67t-64 163t64 163t160 67q61 0 108 -26l-194 286h25l236 -348q49 -71 49 -142zM285 432q-87 0 -145.5 -61.5t-58.5 -150.5t58.5 -150.5t145.5 -61.5t145.5 61.5t58.5 150.5q0 63 -45 130l-21 31q-54 51 -138 51z" />
    <glyph glyph-name="summation.tf" 
d="M490 520v162h-417l306 -316v-10l-317 -338h438v162h20v-180h-490v10l329 351l-319 329v10h470v-180h-20z" />
    <glyph glyph-name="product.tf" 
d="M400 0v682h-230v-682h-20v682h-100v18h470v-18h-100v-682h-20z" />
    <glyph glyph-name="pi.tf" 
d="M175 0v420q-61 0 -93 -54l-17 10q22 39 67 55q27 9 58 9h315v-18h-100v-267q0 -70 20 -105q18 -32 45 -43l-7 -17q-29 8 -53 47q-25 41 -25 118v267h-190v-422h-20z" />
    <glyph glyph-name="integral.tf" 
d="M344 559q-26 -120 -53 -332.5t-52 -330.5q-16 -74 -60 -111q-43 -35 -102 -35q-43 0 -82 21l9 17q34 -20 73 -20q51 0 88 31q40 32 55 102q26 120 53 332.5t52 330.5q16 74 60 111q43 35 102 35q43 0 82 -21l-9 -17q-34 20 -73 20q-51 0 -88 -31q-40 -32 -55 -102z" />
    <glyph glyph-name="logicalnot.tf" 
d="M485 360v-198h-18v180h-382v18h400z" />
    <glyph glyph-name="radical.tf" 
d="M531 700h19l-249 -700h-10l-175 422h-102v18h114l167 -402z" />
    <glyph glyph-name="florin.tf" 
d="M344 559q-19 -86 -32 -178h166v-18h-169q-8 -51 -19.5 -143.5t-23 -170.5t-27.5 -153q-16 -74 -60 -111q-43 -35 -102 -35q-43 0 -82 21l9 17q34 -20 73 -20q51 0 88 31q40 32 55 102q16 75 27.5 149.5t24 172t18.5 140.5h-134v18h136q17 111 33 183q16 74 60 111
q43 35 102 35q43 0 82 -21l-9 -17q-34 20 -73 20q-51 0 -88 -31q-40 -32 -55 -102z" />
    <glyph glyph-name="asciicircum.tf" 
d="M280 700h10l175 -350h-20l-160 320l-160 -320h-20z" />
    <glyph glyph-name="asciitilde.tf" 
d="M112 219l-18 5q11 47 38 68.5t60 21.5q40 0 96.5 -44t89.5 -44q59 0 80 77l18 -5q-11 -47 -38 -68.5t-60 -21.5q-40 0 -96.5 44t-89.5 44q-59 0 -80 -77z" />
    <glyph glyph-name="approxequal.tf" 
d="M112 130l-18 5q11 47 38 68.5t60 21.5q40 0 96.5 -44t89.5 -44q59 0 80 77l18 -5q-11 -47 -38 -68.5t-60 -21.5q-40 0 -96.5 44t-89.5 44q-59 0 -80 -77zM112 308l-18 5q11 47 38 68.5t60 21.5q40 0 96.5 -44t89.5 -44q59 0 80 77l18 -5q-11 -47 -38 -68.5t-60 -21.5
q-40 0 -96.5 44t-89.5 44q-59 0 -80 -77z" />
    <glyph glyph-name="Delta.tf" 
d="M280 700h10l266 -690v-10h-542v10zM285 661l-249 -643h497z" />
    <glyph glyph-name="Euro.tf" 
d="M389 261h-302q20 -115 90 -184t183 -69q130 0 202 110l17 -11q-76 -117 -219 -117q-121 0 -197 74t-97 197h-77v18h74q-4 31 -4 71t4 71h-74v18h77q20 121 93 196t190 75q127 0 210 -117l-16 -11q-80 110 -194 110q-108 0 -175 -70t-88 -183h303v-18h-305q-5 -38 -5 -71
t5 -71h305v-18z" />
    <glyph glyph-name="lozenge.tf" 
d="M280 700h10l224 -345v-10l-224 -345h-10l-224 345v10zM74 350l211 -325l211 325l-211 325z" />
    <glyph glyph-name="divide.tf" 
d="M85 269h400v-18h-400v18zM250 85q0 14 10.5 24.5t24.5 10.5t24.5 -10.5t10.5 -24.5t-10.5 -24.5t-24.5 -10.5t-24.5 10.5t-10.5 24.5zM250 435q0 14 10.5 24.5t24.5 10.5t24.5 -10.5t10.5 -24.5t-10.5 -24.5t-24.5 -10.5t-24.5 10.5t-10.5 24.5z" />
    <glyph glyph-name="quotedbl.tf" 
d="M190 460v240h20v-240h-20zM360 460v240h20v-240h-20z" />
    <glyph glyph-name="quotesingle.tf" 
d="M275 460v240h20v-240h-20z" />
    <glyph glyph-name="at.case" horiz-adv-x="1000" 
d="M635 253v177q-48 87 -144 87q-73 0 -122 -50t-49 -127t49.5 -127t122.5 -50q105 0 143 90zM930 381q0 -100 -45.5 -168t-127.5 -68q-90 0 -116 82q-19 -37 -58 -59.5t-91 -22.5q-82 0 -137 55.5t-55 139.5t55 139.5t136 55.5q99 0 144 -74v64h20v-243q0 -57 26 -88
t76 -31q71 0 112 61t41 157q0 165 -120 273t-283 108q-112 0 -208 -56t-152.5 -153.5t-56.5 -212.5q0 -176 123 -299t295 -123q135 0 241 82l11 -16q-109 -84 -253 -84q-181 0 -309 129t-128 311t128 311t309 129q114 0 210.5 -51.5t154.5 -143.5t58 -204z" />
    <glyph glyph-name="amacron.ss01" horiz-adv-x="500" 
d="M150 581h240v-18h-240v18zM395 120v90q-61 40 -143 40q-68 0 -114.5 -34t-47.5 -90q0 -53 39.5 -85.5t97.5 -32.5q116 0 168 112zM395 232v30q0 78 -32 118q-42 52 -115 52q-85 0 -140 -55l-13 13q23 24 63 42t90 18q84 0 131 -60q36 -43 36 -130v-260h-20v86
q-22 -45 -66 -70.5t-101 -25.5q-67 0 -112.5 37.5t-45.5 96.5q0 67 54 105.5t130 38.5q69 0 141 -36z" />
    <glyph glyph-name="abreve.ss01" horiz-adv-x="500" 
d="M359 645h18q0 -47 -34 -81t-81 -34t-81 34t-34 81h18q0 -41 28.5 -69t68.5 -28t68.5 28t28.5 69zM395 120v90q-61 40 -143 40q-68 0 -114.5 -34t-47.5 -90q0 -53 39.5 -85.5t97.5 -32.5q116 0 168 112zM395 232v30q0 78 -32 118q-42 52 -115 52q-85 0 -140 -55l-13 13
q23 24 63 42t90 18q84 0 131 -60q36 -43 36 -130v-260h-20v86q-22 -45 -66 -70.5t-101 -25.5q-67 0 -112.5 37.5t-45.5 96.5q0 67 54 105.5t130 38.5q69 0 141 -36z" />
    <glyph glyph-name="aogonek.ss01" horiz-adv-x="500" 
d="M395 232v30q0 78 -32 118q-42 52 -115 52q-85 0 -140 -55l-13 13q23 24 63 42t90 18q84 0 131 -60q36 -43 36 -130v-260q-32 -55 -32 -105q0 -43 22 -70t61 -27q26 0 42 8l5 -17q-18 -9 -45 -9q-50 0 -77.5 31.5t-27.5 81.5q0 54 32 109v84q-22 -45 -66 -70.5t-101 -25.5
q-67 0 -112.5 37.5t-45.5 96.5q0 67 54 105.5t130 38.5q69 0 141 -36zM395 120v90q-61 40 -143 40q-68 0 -114.5 -34t-47.5 -90q0 -53 39.5 -85.5t97.5 -32.5q116 0 168 112z" />
    <glyph glyph-name="aringacute.ss01" horiz-adv-x="500" 
d="M167 600q0 33 23.5 56.5t56.5 23.5t56.5 -23.5t23.5 -56.5t-23.5 -56.5t-56.5 -23.5t-56.5 23.5t-23.5 56.5zM185 600q0 -26 18.5 -44t43.5 -18t43.5 18t18.5 44t-18.5 44t-43.5 18t-43.5 -18t-18.5 -44zM321 880h22l-97 -130h-22zM395 120v90q-61 40 -143 40
q-68 0 -114.5 -34t-47.5 -90q0 -53 39.5 -85.5t97.5 -32.5q116 0 168 112zM395 232v30q0 78 -32 118q-42 52 -115 52q-85 0 -140 -55l-13 13q23 24 63 42t90 18q84 0 131 -60q36 -43 36 -130v-260h-20v86q-22 -45 -66 -70.5t-101 -25.5q-67 0 -112.5 37.5t-45.5 96.5
q0 67 54 105.5t130 38.5q69 0 141 -36z" />
    <glyph glyph-name="aeacute.ss01" horiz-adv-x="865" 
d="M490 650h22l-97 -130h-22zM395 232v30q0 78 -32 118q-42 52 -115 52q-85 0 -140 -55l-13 13q23 24 63 42t90 18q84 0 131 -60q24 -29 32 -79q22 63 72 101t119 38q90 0 147.5 -62.5t60.5 -154.5h-396v-12q0 -92 54 -152.5t147 -60.5q100 0 162 72l14 -14
q-67 -76 -176 -76q-73 0 -124.5 35t-75.5 95v-120h-20v86q-22 -45 -66 -70.5t-101 -25.5q-67 0 -112.5 37.5t-45.5 96.5q0 67 54 105.5t130 38.5q69 0 141 -36zM395 120v90q-61 40 -143 40q-68 0 -114.5 -34t-47.5 -90q0 -53 39.5 -85.5t97.5 -32.5q116 0 168 112zM602 432
q-75 0 -125.5 -50t-60.5 -131h371q-6 77 -57 129t-128 52z" />
    <glyph glyph-name="asterisk.ss06" horiz-adv-x="484" 
d="M45 455l-5 17l185 62l-115 159l15 10l116 -157l116 158l14 -11l-114 -159l186 -61l-6 -17l-187 60v-196h-18v196z" />
    <glyph glyph-name="asterisk.ss07" horiz-adv-x="484" 
d="M155 679l87 -151l87 151l16 -9l-87 -151h174v-18h-175l88 -151l-16 -9l-87 150l-87 -150l-16 9l87 151h-174v18h174l-87 151z" />
    <glyph glyph-name="asterisk.ss08" horiz-adv-x="484" 
d="M216 501h-164v18h164v-18zM237 483l-82 -142l-16 9l82 143zM432 501h-165v18h165v-18zM345 670l-83 -143l-15 10l82 142zM155 679l82 -142l-16 -10l-82 143zM262 493l83 -143l-16 -9l-82 142z" />
    <glyph glyph-name="asterisk.ss09" horiz-adv-x="484" 
d="M251 519h181v-18h-181v18zM251 700v-181h-18v181h18zM233 320v181h18v-181h-18zM52 501v18h181v-18h-181zM261 542l118 118l13 -13l-118 -118zM105 660l118 -118l-13 -13l-118 118zM379 360l-118 118l13 13l118 -118zM223 478l-118 -118l-13 13l118 118z" />
    <glyph glyph-name="f.ss02" horiz-adv-x="375" 
d="M380 695l-10 -15q-37 22 -79 22q-61 0 -99 -42q-20 -22 -26 -53.5t-6 -88.5v-78h215v-18h-215v-422h-20v422h-130v18h130v79q0 62 7.5 96t30.5 59q42 46 111 46q47 0 91 -25z" />
    <glyph glyph-name="j.ss02" horiz-adv-x="255" 
d="M160 443v-512q0 -82 -20 -118q-34 -63 -117 -63q-37 0 -73 16l7 17q30 -15 64 -15q70 0 101 54q18 31 18 108v513h20zM120 600q0 13 8.5 21.5t21.5 8.5t21.5 -8.5t8.5 -21.5t-8.5 -21.5t-21.5 -8.5t-21.5 8.5t-8.5 21.5z" />
    <glyph glyph-name="t.ss02" horiz-adv-x="430" 
d="M387 31l8 -16q-39 -25 -98 -25q-87 0 -125 62q-22 36 -22 98v272h-140v18h140v130h20v-130h235v-18h-235v-272q0 -56 18 -86q33 -56 109 -56q48 0 90 23z" />
    <glyph glyph-name="fi.ss02" horiz-adv-x="585" 
d="M140 440v79q0 62 7.5 96t30.5 59q42 46 111 46q47 0 91 -25l-10 -15q-37 22 -79 22q-61 0 -99 -42q-20 -22 -26 -53.5t-6 -88.5v-78h330v-440h-20v422h-310v-422h-20v422h-130v18h130zM450 600q0 13 8.5 21.5t21.5 8.5t21.5 -8.5t8.5 -21.5t-8.5 -21.5t-21.5 -8.5
t-21.5 8.5t-8.5 21.5z" />
    <glyph glyph-name="fl.ss02" horiz-adv-x="585" 
d="M140 440v79q0 62 7.5 96t30.5 59q42 46 111 46q47 0 91 -25l-10 -15q-37 22 -79 22q-61 0 -99 -42q-20 -22 -26 -53.5t-6 -88.5v-78h310v270h20v-710h-20v422h-310v-422h-20v422h-130v18h130z" />
    <glyph glyph-name="uniFB00.ss02" horiz-adv-x="735" 
d="M470 440v79q0 62 7.5 96t30.5 59q42 46 111 46q47 0 91 -25l-10 -15q-37 22 -79 22q-61 0 -99 -42q-20 -22 -26 -53.5t-6 -88.5v-78h215v-18h-215v-422h-20v422h-310v-422h-20v422h-130v18h130v79q0 62 7.5 96t30.5 59q42 46 111 46q47 0 91 -25l-10 -15q-37 22 -79 22
q-61 0 -99 -42q-20 -22 -26 -53.5t-6 -88.5v-78h310z" />
    <glyph glyph-name="uniFB03.ss02" horiz-adv-x="914" 
d="M469 440v79q0 62 7.5 96t30.5 59q42 46 111 46q47 0 91 -25l-10 -15q-37 22 -79 22q-61 0 -99 -42q-20 -22 -26 -53.5t-6 -88.5v-78h330v-440h-20v422h-310v-422h-20v422h-309v-422h-20v422h-130v18h130v79q0 62 7.5 96t30.5 59q42 46 111 46q47 0 91 -25l-10 -15
q-37 22 -79 22q-61 0 -99 -42q-20 -22 -26 -53.5t-6 -88.5v-78h309zM779 600q0 13 8.5 21.5t21.5 8.5t21.5 -8.5t8.5 -21.5t-8.5 -21.5t-21.5 -8.5t-21.5 8.5t-8.5 21.5z" />
    <glyph glyph-name="uniFB04.ss02" horiz-adv-x="915" 
d="M470 440v79q0 62 7.5 96t30.5 59q42 46 111 46q47 0 91 -25l-10 -15q-37 22 -79 22q-61 0 -99 -42q-20 -22 -26 -53.5t-6 -88.5v-78h310v270h20v-710h-20v422h-310v-422h-20v422h-310v-422h-20v422h-130v18h130v79q0 62 7.5 96t30.5 59q42 46 111 46q47 0 91 -25l-10 -15
q-37 22 -79 22q-61 0 -99 -42q-20 -22 -26 -53.5t-6 -88.5v-78h310z" />
    <glyph glyph-name="tbar.ss02" horiz-adv-x="430" 
d="M386 31l8 -16q-39 -25 -97 -25q-87 0 -125 62q-22 36 -22 98v82h-140v18h140v172h-140v18h140v130h20v-130h235v-18h-235v-172h235v-18h-235v-82q0 -56 18 -86q33 -56 109 -56q47 0 89 23z" />
    <glyph glyph-name="ij.ss02" horiz-adv-x="465" 
d="M95 0v440h20v-440h-20zM75 600q0 13 8.5 21.5t21.5 8.5t21.5 -8.5t8.5 -21.5t-8.5 -21.5t-21.5 -8.5t-21.5 8.5t-8.5 21.5zM370 443v-512q0 -82 -20 -118q-34 -63 -117 -63q-37 0 -73 16l7 17q30 -15 64 -15q70 0 101 54q18 31 18 108v513h20zM330 600q0 13 8.5 21.5
t21.5 8.5t21.5 -8.5t8.5 -21.5t-8.5 -21.5t-21.5 -8.5t-21.5 8.5t-8.5 21.5z" />
    <glyph glyph-name="tcommaaccent.ss02" horiz-adv-x="430" 
d="M290 -40h22l-97 -130h-22zM387 31l8 -16q-39 -25 -98 -25q-87 0 -125 62q-22 36 -22 98v272h-140v18h140v130h20v-130h235v-18h-235v-272q0 -56 18 -86q33 -56 109 -56q48 0 90 23z" />
    <glyph glyph-name="tcaron.ss02" horiz-adv-x="430" 
d="M306 700h22l-97 -130h-22zM387 31l8 -16q-39 -25 -98 -25q-87 0 -125 62q-22 36 -22 98v272h-140v18h140v130h20v-130h235v-18h-235v-272q0 -56 18 -86q33 -56 109 -56q48 0 90 23z" />
    <glyph glyph-name="jcircumflex.ss02" horiz-adv-x="255" 
d="M160 443v-512q0 -82 -20 -118q-34 -63 -117 -63q-37 0 -73 16l7 17q30 -15 64 -15q70 0 101 54q18 31 18 108v513h20zM119 650h31l102 -130h-22l-96 121l-95 -121h-22z" />
    <glyph glyph-name="uni0237.ss02" horiz-adv-x="235" 
d="M160 443v-512q0 -82 -20 -118q-34 -63 -117 -63q-37 0 -73 16l7 17q30 -15 64 -15q70 0 101 54q18 31 18 108v513h20z" />
    <glyph glyph-name="r.ss02" horiz-adv-x="340" 
d="M310 441l-5 -16q-17 7 -44 7q-55 0 -88.5 -30.5t-57.5 -81.5v-320h-20v440h20v-83q46 93 145 93q29 0 50 -9z" />
    <glyph glyph-name="racute.ss02" horiz-adv-x="340" 
d="M310 441l-5 -16q-17 7 -44 7q-55 0 -88.5 -30.5t-57.5 -81.5v-320h-20v440h20v-83q46 93 145 93q29 0 50 -9zM247 650h22l-97 -130h-22z" />
    <glyph glyph-name="rcaron.ss02" horiz-adv-x="340" 
d="M310 441l-5 -16q-17 7 -44 7q-55 0 -88.5 -30.5t-57.5 -81.5v-320h-20v440h20v-83q46 93 145 93q29 0 50 -9zM206 520h-31l-102 130h22l95 -121l96 121h22z" />
    <glyph glyph-name="rcommaaccent.ss02" horiz-adv-x="340" 
d="M310 441l-5 -16q-17 7 -44 7q-55 0 -88.5 -30.5t-57.5 -81.5v-320h-20v440h20v-83q46 93 145 93q29 0 50 -9zM93 -40h22l-97 -130h-22z" />
    </font>
</defs>
</svg>
